/* XPM */
static char *result[] = {
/* columns rows colors chars-per-pixel */
"50 50 150 2 ",
"   c #E36804",
".  c #E66609",
"X  c #E56E0C",
"o  c #E77306",
"O  c #E77907",
"+  c #E5770A",
"@  c #E6770C",
"#  c #E8700E",
"$  c #E8790B",
"%  c #EB7C0A",
"&  c #E97E0E",
"*  c #EB6F10",
"=  c #E77E13",
"-  c #E77E15",
";  c #E87A11",
":  c #E87D10",
">  c #E87E10",
",  c #E9840F",
"<  c #E9870F",
"1  c #F28E0E",
"2  c #E98317",
"3  c #EA8515",
"4  c #E98814",
"5  c #ED8816",
"6  c #E98E17",
"7  c #EC8C17",
"8  c #F08612",
"9  c #F08F13",
"0  c #EE9412",
"q  c #EC911A",
"w  c #F09013",
"e  c #F49714",
"r  c #F49F13",
"t  c #F09918",
"y  c #F0981C",
"u  c #F6A015",
"i  c #F9A713",
"p  c #F5A61A",
"a  c #F2B512",
"s  c #FBB616",
"d  c #F8BE14",
"f  c #EF9B24",
"g  c #ED9D28",
"h  c #F49822",
"j  c #F49C2F",
"k  c #EEA227",
"l  c #F0A323",
"z  c #F1A822",
"x  c #F5A822",
"c  c #F6A822",
"v  c #F5AE22",
"b  c #F1AB26",
"n  c #F5AF24",
"m  c #F3AA2B",
"M  c #F7B725",
"N  c #F9BA22",
"B  c #FBBD27",
"V  c #F9B529",
"C  c #F7BB2A",
"Z  c #F8BA28",
"A  c #FAB92A",
"S  c #F9BC2E",
"D  c #F3B530",
"F  c #F6B633",
"G  c #F6B836",
"H  c #F2B53B",
"J  c #F3BD38",
"K  c #F5BD38",
"L  c #FCC615",
"P  c #FACB12",
"I  c #F9CF16",
"U  c #F6CB19",
"Y  c #FAC526",
"T  c #FBC826",
"R  c #F7C72F",
"E  c #F8C328",
"W  c #FBC02A",
"Q  c #FCC32B",
"!  c #FAC729",
"~  c #F9C22D",
"^  c #FAC32C",
"/  c #F9C22E",
"(  c #F7C92F",
")  c #FED620",
"_  c #FBDF21",
"`  c #FBD12A",
"'  c #FBD52C",
"]  c #FDDD29",
"[  c #FBD92D",
"{  c #FAD92F",
"}  c #F9C333",
"|  c #FAC834",
" . c #F5C23A",
".. c #F2C33E",
"X. c #F6C33F",
"o. c #F9C03A",
"O. c #F8CF3E",
"+. c #F9D033",
"@. c #FCD435",
"#. c #FBDF33",
"$. c #FCD939",
"%. c #FAD83F",
"&. c #FBDF3F",
"*. c #FCDD3C",
"=. c #FCDF3E",
"-. c #FBE038",
";. c #FAE238",
":. c #F8E03A",
">. c #FBE438",
",. c #F9E43D",
"<. c #F5B743",
"1. c #F7B941",
"2. c #F9C94A",
"3. c #F9C84E",
"4. c #F7D441",
"5. c #FAD446",
"6. c #F9DE40",
"7. c #FCD74A",
"8. c #FBD94C",
"9. c #F5D756",
"0. c #F7D955",
"q. c #FADD56",
"w. c #F7DF5B",
"e. c #FAD85C",
"r. c #F8E040",
"t. c #F8E240",
"y. c #FDE348",
"u. c #FCE34E",
"i. c #FDE54E",
"p. c #FDEA4A",
"a. c #FBE055",
"s. c #FDED52",
"d. c #FCE158",
"f. c #FBE95E",
"g. c #FCE95F",
"h. c #FEF35E",
"j. c #F6D760",
"k. c #F7DC65",
"l. c #FCDF60",
"z. c #F3DC73",
"x. c #FBE160",
"c. c #FEEC61",
"v. c #FEF26C",
"b. c #F6E076",
"n. c #FCF078",
"m. c #FDF28B",
"M. c #F8EE98",
"N. c #FCF39A",
"B. c #FAF4A1",
"V. c None",
/* pixels */
"V.V.V.V.V.V.V.V.V.V.V.V.V.V.V.V.V.V.V.V.V.V.V.V.V.V.V.V.V.V.V.V.V.V.V.V.V.V.V.V.V.V.V.V.V.V.V.V.V.V.",
"V.V.V.V.V.V.V.V.V.V.V.V.V.V.V.V.V.V.V.V.V.V.V.V.V.V.V.V.V.V.V.V.V.V.V.V.V.V.V.V.V.V.V.V.V.V.V.V.V.V.",
"V.V.V.V.V.V.V.V.V.V.V.V.V.V.V.V.V.V.V.V.V.V.V.V.V.V.V.V.V.V.V.V.V.V.V.V.V.V.V.V.V.V.V.V.V.V.V.V.V.V.",
"V.V.V.V.V.V.V.V.V.V.V.V.V.V.V.V.V.V.V.V.V.V.V.V.V.V.V.V.V.V.V.V.V.V.V.V.V.V.V.V.V.V.V.V.V.V.V.V.V.V.",
"V.V.V.V.V.V.V.V.V.V.V.V.V.V.V.V.V.V.V.V.V.V.V.V.V.V.V.V.V.V.V.V.V.V.V.V.V.V.V.V.V.V.V.V.V.V.V.V.V.V.",
"V.V.V.V.V.V.V.V.V.V.V.V.V.V.V.V.V.V.V.V.V.V.V.V.V.V.V.V.V.V.V.V.V.V.V.V.V.V.V.V.V.V.V.V.V.V.V.V.V.V.",
"V.V.V.V.V.V.V.V.V.V.V.V.V.V.V.V.V.V.V.V.V.V.V.V.V.V.V.V.V.V.V.V.V.V.V.V.V.V.V.V.V.V.V.V.V.V.V.V.V.V.",
"V.V.V.V.V.V.V.V.V.V.V.V.V.V.V.V.V.V.V.V.V.V.V.V.V.V.V.V.V.V.V.V.V.V.V.V.V.V.V.V.V.V.V.V.V.V.V.V.V.V.",
"V.V.V.V.V.V.V.V.V.V.V.V.V.V.V.V.V.V.V.V.V.V.V.V.V.V.V.V.V.V.V.V.V.V.V.V.V.V.V.V.V.V.V.V.V.V.V.V.V.V.",
"V.V.V.V.V.V.V.V.V.V.V.V.V.V.V.V.V.V.V.V.V.V.V.V.V.V.V.V.V.V.V.V.V.V.V.V.V.V.V.V.V.V.V.V.V.V.V.V.V.V.",
"V.V.V.V.V.V.V.V.V.V.V.V.V.V.V.V.V.V.V.V.V.V.V.V.V.V.V.V.V.V.V.V.V.V.V.V.V.V.V.V.V.V.V.V.V.V.V.V.V.V.",
"V.V.V.V.V.V.V.V.V.V.V.V.V.V.V.V.V.V.V.V.V.V.V.V.V.V.V.V.V.V.V.V.V.V.V.V.V.V.V.V.V.V.V.V.V.V.V.V.V.V.",
"V.V.V.V.V.V.V.V.V.V.V.V.V.V.V.V.V.V.V.V.V.V.V.V.V.V.V.V.V.V.V.V.V.V.V.V.V.V.V.V.V.V.V.V.V.V.V.V.V.V.",
"V.V.V.V.V.V.V.V.V.V.V.V.V.V.V.V.V.V.V.V.V.V.V.V.V.V.V.V.T V.V.V.V.V.V.V.V.V.V.V.V.V.V.V.V.V.V.V.V.V.",
"V.V.V.V.V.V.V.V.V.V.V.V.V.V.V.V.V.V.V.V.V.V.V.V.` ' [ *.y.p.=.N V.V.V.V.V.V.V.V.V.V.V.V.V.V.V.V.V.V.",
"V.V.V.V.V.V.V.V.V.V.V.V.V.V.V.V.V.V.V.V.V.V.V.Y ! v y h j 1.a.h./ V.V.V.V.V.V.V.V.V.V.V.V.V.V.V.V.V.",
"V.V.V.V.V.V.V.V.V.V.V.V.V.V.V.V.V.V.V.V.V.Z ~ p 1 8 V.V.V.V.V.2.v.V V.V.V.V.V.V.V.V.V.V.V.V.V.V.V.V.",
"V.V.V.V.V.V.V.V.V.V.V.V.V.V.V.V.V.V.V.V.A W u e V.V.V.V.V.V.V.V.e.l.r V.V.V.V.V.V.V.V.V.V.V.V.V.V.V.",
"V.V.V.V.V.V.V.V.V.V.V.V.V.V.V.V.V.V.V.c Q s i V.V.V.V.V.V.V.V.V.3.n.n V.V.V.V.V.V.V.V.V.V.V.V.V.V.V.",
"V.V.V.V.V.V.V.V.V.V.V.V.V.V.V.V.V.V.g B L d V.V.V.V.V.V.V.V.V.V.V.m.G V.V.V.V.V.V.V.V.V.V.V.V.V.V.V.",
"V.V.V.V.V.V.V.V.V.V.V.V.V.V.V.V.V.V.S ) P V.V.V.V.V.V.V.V.V.V.V.V.N.<.V.V.V.V.V.V.V.V.V.V.V.V.V.V.V.",
"V.V.V.V.V.V.V.V.V.V.V.V.V.V.V.V.V.x ] I V.V.V.V.V.V.V.V.V.V.V.V.V.B.H V.V.V.V.V.V.V.V.V.V.V.V.V.V.V.",
"V.V.V.V.V.V.V.V.V.V.V.V.V.V.V.V.V.E _ V.V.V.V.V.V.V.V.V.V.V.V.V.V.M.z V.V.V.V.V.V.V.V.V.V.V.V.V.V.V.",
"V.V.V.V.V.V.V.V.V.V.V.V.V.V.V.V.t #.U V.V.V.V.V.V.V.V.V.V.V.V.V.z.b.0 V.V.V.V.V.V.V.V.V.V.V.V.V.V.V.",
"V.V.V.V.V.V.V.V.V.V.V.V.V.V.V.V.b >.a V.V.V.V.V.V.V.V.V.V.V.V.V.w.9.< V.V.V.V.V.V.V.V.V.V.V.V.V.V.V.",
"V.V.V.V.V.V.V.V.V.V.V.V.V.V.V.V...;.V.V.V.V.V.V.V.V.V.V.V.V.V.V.f.D O V.V.V.V.V.V.V.V.V.V.V.V.V.V.V.",
"V.V.V.V.V.V.V.V.V.V.V.V.V.V.V.- j.t.V.V.V.V.V.V.V.V.V.V.V.V.V.x.q.w V.V.V.V.V.V.V.V.V.V.V.V.V.V.V.V.",
"V.V.V.V.V.V.V.V.V.V.V.V.V.V.V.2 k.r.V.V.V.V.V.V.V.V.V.V.V.V.V.g.F % V.V.V.V.V.V.V.V.V.V.V.V.V.V.V.V.",
"V.V.V.V.V.V.V.V.V.V.V.V.V.V.V.4 0.:.V.V.V.V.V.V.V.V.V.V.V.V.8.d.9 V.V.V.V.V.V.V.V.V.V.V.V.V.V.V.V.V.",
"V.V.V.V.V.V.V.V.V.V.V.V.V.V.V., 4.,.V.V.V.V.V.V.V.V.V.V.V.| c.m o V.V.V.V.V.V.V.V.V.V.V.V.V.V.V.V.V.",
"V.V.V.V.V.V.V.V.V.V.V.V.V.V.V.+  .6.V.V.V.V.V.V.V.V.V.V.C s.K $ V.V.V.V.V.V.V.V.V.V.V.V.V.V.V.V.V.V.",
"V.V.V.V.V.V.V.V.V.V.V.V.V.V.V.V.f %.V.V.V.V.V.V.V.V.V.M i.X.& V.V.V.V.V.V.V.V.V.V.V.V.V.V.V.V.V.V.V.",
"V.V.V.V.V.V.V.V.V.V.V.V.V.V.V.V.; } ( V.V.V.V.V.V.V.o.u.J : V.V.V.V.V.V.V.V.V.V.V.V.V.V.V.V.V.V.V.V.",
"V.V.V.V.V.V.V.V.V.V.V.V.V.V.V.V.V.7 @.+.V.V.V.V.O.7.5.k @ V.V.V.V.V.V.V.V.V.V.V.V.V.V.V.V.V.V.V.V.V.",
"V.V.V.V.V.V.V.V.V.V.V.V.V.V.V.V.V.X 5 ^ $.&.-.{ R l >   V.V.V.V.V.V.V.V.V.V.V.V.V.V.V.V.V.V.V.V.V.V.",
"V.V.V.V.V.V.V.V.V.V.V.V.V.V.V.V.V.V.V.# 3 q 6 = * . V.V.V.V.V.V.V.V.V.V.V.V.V.V.V.V.V.V.V.V.V.V.V.V.",
"V.V.V.V.V.V.V.V.V.V.V.V.V.V.V.V.V.V.V.V.V.V.V.V.V.V.V.V.V.V.V.V.V.V.V.V.V.V.V.V.V.V.V.V.V.V.V.V.V.V.",
"V.V.V.V.V.V.V.V.V.V.V.V.V.V.V.V.V.V.V.V.V.V.V.V.V.V.V.V.V.V.V.V.V.V.V.V.V.V.V.V.V.V.V.V.V.V.V.V.V.V.",
"V.V.V.V.V.V.V.V.V.V.V.V.V.V.V.V.V.V.V.V.V.V.V.V.V.V.V.V.V.V.V.V.V.V.V.V.V.V.V.V.V.V.V.V.V.V.V.V.V.V.",
"V.V.V.V.V.V.V.V.V.V.V.V.V.V.V.V.V.V.V.V.V.V.V.V.V.V.V.V.V.V.V.V.V.V.V.V.V.V.V.V.V.V.V.V.V.V.V.V.V.V.",
"V.V.V.V.V.V.V.V.V.V.V.V.V.V.V.V.V.V.V.V.V.V.V.V.V.V.V.V.V.V.V.V.V.V.V.V.V.V.V.V.V.V.V.V.V.V.V.V.V.V.",
"V.V.V.V.V.V.V.V.V.V.V.V.V.V.V.V.V.V.V.V.V.V.V.V.V.V.V.V.V.V.V.V.V.V.V.V.V.V.V.V.V.V.V.V.V.V.V.V.V.V.",
"V.V.V.V.V.V.V.V.V.V.V.V.V.V.V.V.V.V.V.V.V.V.V.V.V.V.V.V.V.V.V.V.V.V.V.V.V.V.V.V.V.V.V.V.V.V.V.V.V.V.",
"V.V.V.V.V.V.V.V.V.V.V.V.V.V.V.V.V.V.V.V.V.V.V.V.V.V.V.V.V.V.V.V.V.V.V.V.V.V.V.V.V.V.V.V.V.V.V.V.V.V.",
"V.V.V.V.V.V.V.V.V.V.V.V.V.V.V.V.V.V.V.V.V.V.V.V.V.V.V.V.V.V.V.V.V.V.V.V.V.V.V.V.V.V.V.V.V.V.V.V.V.V.",
"V.V.V.V.V.V.V.V.V.V.V.V.V.V.V.V.V.V.V.V.V.V.V.V.V.V.V.V.V.V.V.V.V.V.V.V.V.V.V.V.V.V.V.V.V.V.V.V.V.V.",
"V.V.V.V.V.V.V.V.V.V.V.V.V.V.V.V.V.V.V.V.V.V.V.V.V.V.V.V.V.V.V.V.V.V.V.V.V.V.V.V.V.V.V.V.V.V.V.V.V.V.",
"V.V.V.V.V.V.V.V.V.V.V.V.V.V.V.V.V.V.V.V.V.V.V.V.V.V.V.V.V.V.V.V.V.V.V.V.V.V.V.V.V.V.V.V.V.V.V.V.V.V.",
"V.V.V.V.V.V.V.V.V.V.V.V.V.V.V.V.V.V.V.V.V.V.V.V.V.V.V.V.V.V.V.V.V.V.V.V.V.V.V.V.V.V.V.V.V.V.V.V.V.V.",
"V.V.V.V.V.V.V.V.V.V.V.V.V.V.V.V.V.V.V.V.V.V.V.V.V.V.V.V.V.V.V.V.V.V.V.V.V.V.V.V.V.V.V.V.V.V.V.V.V.V."
};
