/* XPM */
static char *result[] = {
/* columns rows colors chars-per-pixel */
"50 50 93 2 ",
"   c #090B14",
".  c #0B0D14",
"X  c #121215",
"o  c #161516",
"O  c #181617",
"+  c #191717",
"@  c #1A1817",
"#  c #1B1817",
"$  c #1A1917",
"%  c #1B1917",
"&  c #1A1818",
"*  c #1B1818",
"=  c #1A1918",
"-  c #1B1918",
";  c #1C1A18",
":  c #1E1B18",
">  c #1F1C18",
",  c #221F19",
"<  c #27221A",
"1  c #2D271C",
"2  c #3E3520",
"3  c #453A21",
"4  c #4D4123",
"5  c #574925",
"6  c #77622C",
"7  c #D67C11",
"8  c #DE7D10",
"9  c #BB983B",
"0  c #BC993C",
"q  c #DD8011",
"w  c #DE8011",
"e  c #DE8111",
"r  c #DF8111",
"t  c #DF8211",
"y  c #DD9E19",
"u  c #E98711",
"i  c #EB8711",
"p  c #EE8911",
"a  c #EF8A11",
"s  c #F08A11",
"d  c #F68B10",
"f  c #F18D11",
"g  c #F68C10",
"h  c #F78C10",
"j  c #F68D10",
"k  c #F78D10",
"l  c #F68D11",
"z  c #F78D11",
"x  c #F68E10",
"c  c #F78E10",
"v  c #F68E11",
"b  c #F78E11",
"n  c #F68F11",
"m  c #F78F11",
"M  c #F88B10",
"N  c #F88E10",
"B  c #F98F10",
"V  c #FA8F10",
"C  c #F79011",
"Z  c #F79111",
"A  c #F79412",
"S  c #F79512",
"D  c #F79713",
"F  c #FA9010",
"G  c #FC9110",
"H  c #F99713",
"J  c #F79813",
"K  c #F89C14",
"L  c #F89D14",
"P  c #E5AE1D",
"I  c #F7A316",
"U  c #F9A015",
"Y  c #F8A216",
"T  c #F8A917",
"R  c #FFAD17",
"E  c #F1A919",
"W  c #F8AB18",
"Q  c #F8AC18",
"!  c #F9AD19",
"~  c #F9AF19",
"^  c #F3B61C",
"/  c #F9B51B",
"(  c #F9B81B",
")  c #F9B91C",
"_  c #F9BA1C",
"`  c #F9BB1C",
"'  c #FABB1C",
"]  c #FBBB1C",
"[  c #FABC1D",
"{  c #FABE1D",
"}  c #FABF1D",
"|  c #FCC21E",
" . c None",
/* pixels */
" . . . . . . . . . . . . . . . . . . . . . . . . . . . . . . . . . . . . . . . . . . . . . . . . . .",
" . . . . . . . . . . . . . . . . . . . . . . . . . . . . . . . . . . . . . . . . . . . . . . . . . .",
" . . . . . . . . . . . . . . . . . . . . . . . . . . . . . . . . . . . . . . . . . . . . . . . . . .",
" . . . . . . . . . . . . . . . . . . . . . . . . . . . . . . . . . . . . . . . . . . . . . . . . . .",
" . . . . . . . . . . . . . . . . . . . . . . . . . . . . . . . . . . . . . . . . . . . . . . . . . .",
" . . . . . . . . . . . . . . . . . . . . . . . . . . . . . . . . . . . . . . . . . . . . . . . . . .",
" . . . . . . . . . . . . . . . . . . . . . . . . . . . . . . . . . . . . . . . . . . . . . . . . . .",
" . . . . . . . . . . . . . . . . . . . . . . . . . . . . . . . . . . . . .j j  . . . . . . . . . . .",
" . . . . . . . . . . . . . . . . . . . . . . . . . .j  . . . . . . .k x l k  . . . . . . . . . . . .",
" . . . . . . . . . . . . . . . . . . . . . . . . . .k x x  . . .j j c v l x  . . . . . . . . . . . .",
" . . . . . . . . . . . . . . . . . . . . . . . . . .k b k d j g m m j v k  . . . . . . . . . . . . .",
" . . . . . . . . . . . . . . . . . . . . . . . . . . .g L Y C Z T b g j x  . . . . . . . . . . . . .",
" . . . . . . . . . . . . . . . . . . . . . . . . . .x g A ) ( / ) J C b j  . . . . . . . . . . . . .",
" . . . . . . . . . . . . . . . . . . . . . . . .x x x b b ! } [ ' ` W Z j c j  . . . . . . . . . . .",
" . . . . . . . . . . . . . . . . . . . . . .j j j b j Z ~ [ _ _ { Q k b v k  . . . . . . . . . . . .",
" . . . . . . . . . . . . . . . . . . . . . . . .j j l v n I | P ^ ] D g x  . . . . . . . . . . . . .",
" . . . . . . . . . . . . . . . . . . . . . . . . .G V F M U R y E H S j x  . . . . . . . . . . . . .",
" . . . . . . . . . . . . . . . . . . . . . . . . .7 r w p f 8 t K g g b j  . . . . . . . . . . . . .",
" . . . . . . . . . . . . . . . . . . . . . . . . .s a i e q u c h v b l z x  . . . . . . . . . . . .",
" . . . . . . . . . . . . . . . . . . . . . . . . .N N B V V B v v k j k x  . . . . . . . . . . . . .",
" . . . . . . . . . . . . . . . . . . . . . . . . .j k  . . .j v l k  . . . . . . . . . . . . . . . .",
" . . . . . . . . . . . . . . . . . . . . . . . . . . . . . . .k j  . . . . . . . . . . . . . . . . .",
" . . . . . . . . . . . . . . . . . . . . .@ &  . . . . . . . . . . . . . . . . . . . . . . . . . . .",
" . . . . . . . . . . . . . . . . . . . .# - - %  . . . . . . . . . . . . . . . . . . . . . . . . . .",
" . . . . . . . . . . . . . . . . . . . .@ & - o  . . . . . . . . . . . . . . . . . . . . . . . . . .",
" . . . . . . . . . . . . . . . . . .& @ @ & O 1 3 ,  . . . . . . . . . . . . . . . . . . . . . . . .",
" . . . . . . . . . . . . . . . . .@ - - - - + < 6 9 5  . . . . . . . . . . . . . . . . . . . . . . .",
" . . . . . . . . . . . . . . . .- - @ @ @ @ - +   3 0 1  . . . . . . . . . . . . . . . . . . . . . .",
" . . . . . . . . . . . . . . .@ - @ - # - - @ - > . 2 4 X  . . . . . . . . . . . . . . . . . . . . .",
" . . . . . . . . . . . . . .@ % & % # - - - - - @ ; O : @ $  . . . . . . . . . . . . . . . . . . . .",
" . . . . . . . . . . . . . .@ * $ & - - - - - - - @ - @ - @  . . . . . . . . . . . . . . . . . . . .",
" . . . . . . . . . . . . . .- @ - @ - - - - - - - @ - - @ -  . . . . . . . . . . . . . . . . . . . .",
" . . . . . . . . . . . . . .@ - @ - - - - - - - - - - @ - @  . . . . . . . . . . . . . . . . . . . .",
" . . . . . . . . . . . . . .* @ - & - - - - - - - - @ @ - @  . . . . . . . . . . . . . . . . . . . .",
" . . . . . . . . . . . . . .$ - @ % # - - - - - - # = @ - $  . . . . . . . . . . . . . . . . . . . .",
" . . . . . . . . . . . . . .@ & % & # # - - - - # = # = * @  . . . . . . . . . . . . . . . . . . . .",
" . . . . . . . . . . . . . . .@ - @ @ - @ - - @ - # $ - #  . . . . . . . . . . . . . . . . . . . . .",
" . . . . . . . . . . . . . . . .# - & @ $ @ @ $ @ = - @  . . . . . . . . . . . . . . . . . . . . . .",
" . . . . . . . . . . . . . . . . .@ % - * - - * - * @  . . . . . . . . . . . . . . . . . . . . . . .",
" . . . . . . . . . . . . . . . . . .@ % $ @ @ $ $ @  . . . . . . . . . . . . . . . . . . . . . . . .",
" . . . . . . . . . . . . . . . . . . . . . . . . . . . . . . . . . . . . . . . . . . . . . . . . . .",
" . . . . . . . . . . . . . . . . . . . . . . . . . . . . . . . . . . . . . . . . . . . . . . . . . .",
" . . . . . . . . . . . . . . . . . . . . . . . . . . . . . . . . . . . . . . . . . . . . . . . . . .",
" . . . . . . . . . . . . . . . . . . . . . . . . . . . . . . . . . . . . . . . . . . . . . . . . . .",
" . . . . . . . . . . . . . . . . . . . . . . . . . . . . . . . . . . . . . . . . . . . . . . . . . .",
" . . . . . . . . . . . . . . . . . . . . . . . . . . . . . . . . . . . . . . . . . . . . . . . . . .",
" . . . . . . . . . . . . . . . . . . . . . . . . . . . . . . . . . . . . . . . . . . . . . . . . . .",
" . . . . . . . . . . . . . . . . . . . . . . . . . . . . . . . . . . . . . . . . . . . . . . . . . .",
" . . . . . . . . . . . . . . . . . . . . . . . . . . . . . . . . . . . . . . . . . . . . . . . . . .",
" . . . . . . . . . . . . . . . . . . . . . . . . . . . . . . . . . . . . . . . . . . . . . . . . . ."
};
