/* XPM */
static char *result[] = {
/* columns rows colors chars-per-pixel */
"50 50 63 1 ",
"  c #2C2C2C",
". c #2D2D2D",
"X c gray18",
"o c #2F2F2F",
"O c gray19",
"+ c #313131",
"@ c #323232",
"# c gray20",
"$ c #343434",
"% c #353535",
"& c #363635",
"* c gray21",
"= c #373737",
"- c gray22",
"; c #393939",
": c #3A3A39",
"> c #3A3A3A",
", c gray23",
"< c #383A3C",
"1 c gray24",
"2 c #3F3F40",
"3 c gray25",
"4 c #414140",
"5 c #414141",
"6 c gray26",
"7 c #434343",
"8 c #444343",
"9 c gray28",
"0 c #4B4B4B",
"q c #4C4C4C",
"w c #4E4E4E",
"e c #535353",
"r c gray33",
"t c gray35",
"y c #5F5F5F",
"u c #645B4B",
"i c gray38",
"p c #626262",
"a c #656565",
"s c gray40",
"d c #686868",
"f c DimGray",
"g c #6A6A6A",
"h c gray42",
"j c #6C6C6C",
"k c #6D6D6D",
"l c gray43",
"z c #6F6F6F",
"x c gray44",
"c c #717171",
"v c #727272",
"b c gray45",
"n c #747474",
"m c #FEA71B",
"M c #FEA81D",
"N c #F2AF34",
"B c #FDC83A",
"V c #FDDE4A",
"C c #FCDC5A",
"Z c #FBF07D",
"A c #CEB081",
"S c #FCF490",
"D c None",
/* pixels */
"DDDDDDDDDDDDDDDDDDDDDDDDDDDDDDDDDDDDDDDDDDDDDDDDDD",
"DDDDDDDDDDDDDDDDDDDDDDDDDDDDDDDDDDDDDDDDDDDDDDDDDD",
"DDDDDDDDDDDDDDDDDDDDDDDDDDDDDDDDDDDDDDDDDDDDDDDDDD",
"DDDDDDDDDDDDDDDDDDDDDDDDDDDDDDDDDDDDDDDDDDDDDDDDDD",
"DDDDDDDDDDDDDDDDDDDDDDDDDDDDDDDDDDDDDDDDDDDDDDDDDD",
"DDDDDDDDDDDDDDDDDDDDDDDDDDDDDDDDDDDDDDDDDDDDDDDDDD",
"DDDDDDDDDDDDDDDDDDDDDDDDDDDDDDDDDDDDDDDDDDDDDDDDDD",
"DDDDDDDDDDDDDDDDDDDDDDDDDDDDDDDDDDDDDDDDDDDDDDDDDD",
"DDDDDDDDDDDDDDDDDDDDDDDDDDDDDDDDDDDDDDDDDDDDDDDDDD",
"DDDDDDDDDDDDDDDDDDDDDDDDDDDDDDDDDDDDDDDDDDDDDDDDDD",
"DDDDDDDDDDDDDDDDDDDDDDDDDDDDDDDDDDDDDDDDDDDDDDDDDD",
"DDDDDDDDDDDDDDDDDDDDDDDDDDDDDDDDDDDDBmDDDDDDDDDDDD",
"DDDDDDDDDDDDDDDDDDDDDDDDDDDDDDDDDDDNSZMDDDDDDDDDDD",
"DDDDDDDDDDDDDDDDDDDDDDDDDDDDDDDADDDDCVDDDDDDDDDDDD",
"DDDDDDDDDDDDDDDDDDDDDDDDDDDDDDDDDDDDDDDDDDDDDDDDDD",
"DDDDDDDDDDDDDDDDDDDDDDDDDD%DDDDDDDDDDDDDDDDDDDDDDD",
"DDDDDDDDDDDDDDDDDDDDDDDDD62:uDDDDDDDDDDDDDDDDDDDDD",
"DDDDDDDDDDDDDDDDDDDXO+OO-767<-&DDDDDDDDDDDDDDDDDDD",
"DDDDDDDDDDDDDDDD@O#*%*11*>66876DDDDDDDDDDDDDDDDDDD",
"DDDDDDDDDDDDDDDo#=;%7ijki6*145DDDDDDDDDDDDDDDDDDDD",
"DDDDDDDDDDDDDD+*;-%7kvzzvk7$--$DDDDDDDDDDDDDDDDDDD",
"DDDDDDDDDDDDDO=-=-*yvkllkvy*-=-%DDDDDDDDDDDDDDDDDD",
"DDDDDDDDDDDDo*-=-=>gzllllzh>=--*DDDDDDDDDDDDDDDDDD",
"DDDDDDDDDDDD#-=--=>gzllllzf>=--=+DDDDDDDDDDDDDDDDD",
"DDDDDDDDDDDo=-==--%tbkllkbt%--=-+DDDDDDDDDDDDDDDDD",
"DDDDDDDDDDD#-=-==-*1abccns1=--=-# DDDDDDDDDDDDDDDD",
"DDDDDDDDDDD%-==--=-*,rppe=@=-==-$.DDDDDDDDDDDDDDDD",
"DDDDDDDDDDD*-==---=-=$-*>er1*-=-# DDDDDDDDDDDDDDDD",
"DDDDDDDDDDD*-=-----=-;=,dnba>=--@ DDDDDDDDDDDDDDDD",
"DDDDDDDDDDD=-=------=-$0ckkx9%--O DDDDDDDDDDDDDDDD",
"DDDDDDDDDDD=-==-------%7xxcl3*-=..DDDDDDDDDDDDDDDD",
"DDDDDDDDDDD=-=---------%wgdq*--# XDDDDDDDDDDDDDDDD",
"DDDDDDDDDDD%-=-=-----=--%;;%--=X oDDDDDDDDDDDDDDDD",
"DDDDDDDDDDD*-==-=-----=--==-=-+ .DDDDDDDDDDDDDDDDD",
"DDDDDDDDDDDD=-==-==----=---=-#  XDDDDDDDDDDDDDDDDD",
"DDDDDDDDDDDDD$--==========--@  .DDDDDDDDDDDDDDDDDD",
"DDDDDDDDDDDDDX+=----==----*O  XDDDDDDDDDDDDDDDDDDD",
"DDDDDDDDDDDDDD.X+%=----=$O. ..DDDDDDDDDDDDDDDDDDDD",
"DDDDDDDDDDDDDDDD ..oooo.   ..DDDDDDDDDDDDDDDDDDDDD",
"DDDDDDDDDDDDDDDDDD.      .XDDDDDDDDDDDDDDDDDDDDDDD",
"DDDDDDDDDDDDDDDDDDDDDDDDDDDDDDDDDDDDDDDDDDDDDDDDDD",
"DDDDDDDDDDDDDDDDDDDDDDDDDDDDDDDDDDDDDDDDDDDDDDDDDD",
"DDDDDDDDDDDDDDDDDDDDDDDDDDDDDDDDDDDDDDDDDDDDDDDDDD",
"DDDDDDDDDDDDDDDDDDDDDDDDDDDDDDDDDDDDDDDDDDDDDDDDDD",
"DDDDDDDDDDDDDDDDDDDDDDDDDDDDDDDDDDDDDDDDDDDDDDDDDD",
"DDDDDDDDDDDDDDDDDDDDDDDDDDDDDDDDDDDDDDDDDDDDDDDDDD",
"DDDDDDDDDDDDDDDDDDDDDDDDDDDDDDDDDDDDDDDDDDDDDDDDDD",
"DDDDDDDDDDDDDDDDDDDDDDDDDDDDDDDDDDDDDDDDDDDDDDDDDD",
"DDDDDDDDDDDDDDDDDDDDDDDDDDDDDDDDDDDDDDDDDDDDDDDDDD",
"DDDDDDDDDDDDDDDDDDDDDDDDDDDDDDDDDDDDDDDDDDDDDDDDDD"
};
