/* XPM */
static char *_6a5ff9a38c44f5ca67bd06de03baef3AlvTgE4C1pG0MIqY[] = {
/* columns rows colors chars-per-pixel */
"50 50 252 2 ",
"   c None",
".  c #030201",
"X  c #0B0A0C",
"o  c #0A0407",
"O  c #1B0401",
"+  c #0C0C11",
"@  c #091116",
"#  c #17161B",
"$  c #180D19",
"%  c #2A0203",
"&  c #380405",
"*  c #371110",
"=  c #1A182E",
"-  c #251C26",
";  c #2A1427",
":  c #1A262B",
">  c #262628",
",  c #292938",
"<  c #382833",
"1  c #393639",
"2  c #312E2D",
"3  c #2C2215",
"4  c #460104",
"5  c #5D0001",
"6  c #540105",
"7  c #4C0C16",
"8  c #4F1416",
"9  c #630103",
"0  c #6A0000",
"q  c #66010A",
"w  c #740102",
"e  c #7B0108",
"r  c #6B0E15",
"t  c #5A330A",
"y  c #552402",
"u  c #783503",
"i  c #75260F",
"p  c #511B2D",
"a  c #691724",
"s  c #4B3135",
"d  c #753237",
"f  c #794A10",
"g  c #6F4D2A",
"h  c #594321",
"j  c #322C43",
"k  c #2C3548",
"l  c #36364A",
"z  c #333A51",
"x  c #3B3B56",
"c  c #2E2C43",
"v  c #303669",
"b  c #423E56",
"n  c #493949",
"m  c #693948",
"M  c #513D6A",
"N  c #3A434E",
"B  c #3B4256",
"V  c #394658",
"C  c #3B496A",
"Z  c #3F5A7A",
"A  c #3F6578",
"S  c #594A4A",
"D  c #59595B",
"F  c #48444F",
"G  c #684C4F",
"H  c #767254",
"J  c #464B66",
"K  c #45536A",
"L  c #4A5767",
"P  c #485976",
"I  c #575773",
"U  c #725269",
"Y  c #58676D",
"T  c #4C617A",
"R  c #53647B",
"E  c #586879",
"W  c #4F6069",
"Q  c #6D656D",
"!  c #696A6E",
"~  c #726A69",
"^  c #66767C",
"/  c #78797A",
"(  c #6D736F",
")  c #8B0006",
"_  c #840009",
"`  c #94010C",
"'  c #990208",
"]  c #860515",
"[  c #980716",
"{  c #8A1407",
"}  c #AC000E",
"|  c #A30006",
" . c #BA000E",
".. c #B60007",
"X. c #A90513",
"o. c #B50012",
"O. c #BC0214",
"+. c #B80518",
"@. c #AD130B",
"#. c #8D2D0D",
"$. c #B52F0D",
"%. c #8E1320",
"&. c #A41423",
"*. c #BE0F24",
"=. c #8E2B33",
"-. c #AC2332",
";. c #C4000D",
":. c #CC0008",
">. c #D5000D",
",. c #C81B0D",
"<. c #C40114",
"1. c #CC0114",
"2. c #CC0917",
"3. c #D40114",
"4. c #DC0114",
"5. c #DB0716",
"6. c #D41810",
"7. c #C72809",
"8. c #C9360D",
"9. c #D9340A",
"0. c #E9300F",
"q. c #CC1929",
"w. c #CD2B21",
"e. c #EB3825",
"r. c #E31C12",
"t. c #8D520B",
"y. c #B45817",
"u. c #9D6915",
"i. c #AA7A13",
"p. c #AC7608",
"a. c #955C2E",
"s. c #876435",
"d. c #B8453B",
"f. c #C9420A",
"g. c #D8480C",
"h. c #D04C10",
"j. c #E54508",
"k. c #EF530C",
"l. c #F6520E",
"z. c #F25111",
"x. c #CC6D30",
"c. c #DD592E",
"v. c #863E46",
"b. c #834F4B",
"n. c #B45650",
"m. c #917777",
"M. c #AB7165",
"N. c #C97670",
"B. c #E9736E",
"V. c #DC5F57",
"C. c #B58719",
"Z. c #B2962E",
"A. c #B7A13A",
"S. c #BDA426",
"D. c #93822C",
"F. c #C58907",
"G. c #CB960C",
"H. c #D6A212",
"J. c #E8B519",
"K. c #C48928",
"L. c #CCB22A",
"P. c #D3B424",
"I. c #C8B033",
"U. c #E4AE2A",
"Y. c #F6CD28",
"T. c #FDDB38",
"R. c #EDCB30",
"E. c #FDE52F",
"W. c #928D53",
"Q. c #B19655",
"!. c #BBAB4C",
"~. c #919A6D",
"^. c #AB966F",
"/. c #D39652",
"(. c #CEB74F",
"). c #D68E6B",
"_. c #E7A469",
"`. c #FBDB48",
"'. c #EED946",
"]. c #FEEB59",
"[. c #D8CA72",
"{. c #F1DB75",
"}. c #D9C445",
"|. c #3E4183",
" X c #4E6585",
".X c #556B83",
"XX c #576885",
"oX c #5C7287",
"OX c #597193",
"+X c #637A8C",
"@X c #667885",
"#X c #797D86",
"$X c #637C96",
"%X c #71778B",
"&X c #5D7CA1",
"*X c #807E83",
"=X c #6D848B",
"-X c #6C8494",
";X c #6B8596",
":X c #748E9D",
">X c #768996",
",X c #7B9399",
"<X c #768B8F",
"1X c #6C8AA3",
"2X c #6386A7",
"3X c #7894A4",
"4X c #7393AB",
"5X c #7C9AAC",
"6X c #7793A3",
"7X c #7D9BB2",
"8X c #7192A9",
"9X c #6795AB",
"0X c #7FABC0",
"qX c #898988",
"wX c #88929A",
"eX c #909190",
"rX c #B5938F",
"tX c #8797A7",
"yX c #829FB3",
"uX c #979AA4",
"iX c #84A2AB",
"pX c #89A5A9",
"aX c #84A4B4",
"sX c #8CACB4",
"dX c #85A6B8",
"fX c #92A9B6",
"gX c #9BB8BA",
"hX c #93ABAE",
"jX c #AAAEAC",
"kX c #A8AC88",
"lX c #C48A8B",
"zX c #D48B93",
"xX c #D8AD8D",
"cX c #E8A986",
"vX c #D2B3AB",
"bX c #D5D091",
"nX c #FFF294",
"mX c #C9C6B3",
"MX c #EED5A6",
"NX c #99BDC6",
"BX c #8DAFC2",
"VX c #A9BCC5",
"CX c #9BD0D4",
"ZX c #A8C7CC",
"AX c #B7C6D4",
"SX c #A8D0D7",
"DX c #BCE6F0",
"FX c #BBDEEC",
"GX c #C5D5D8",
"HX c #FFFFCB",
"JX c #DAEDEF",
"KX c #E3D6D3",
/* pixels */
"                                                                                                    ",
"                                            rXwX, E W                                               ",
"                                        ^.KXxXgXXX7XdXZXpX                                          ",
"                                  M wXZXvXKXxX,X.XdX3XdX^ pX:X                                      ",
"                                  M #XFXrXcXjX.XW d s OX@XE NXoX                                    ",
"                                M v @ , ^.eXQ r 0 p T =X3X;X+XY z                                   ",
"                            n.V.*.Z $ i d r w 0 < OX=X:XZXsXB J 3X@X                                ",
"                          e.e.2.) 4 9 0 0 0 0 5 9 m P NXDXDXoX1XCXSX                                ",
"                        _ ' ] u g s.a.a.u.a.t.f u u h ( ~.W.n U #XuXG     V T / wXE V               ",
"                          OXeXbXHXnX].T.S.t.#.#.u.Z./.cXK.G.y.+.} O.' 9 7 B 4X/ GXdXJ               ",
"                        y.a.[.HX`.Y.H.t.{ ,.6.h.`.xXN./.N.}.E.y.o.+. .0 * B 1X( GX7XJ               ",
"                      f.0.x.nXY.Y.J.t.0 $.k.z.i.'.cXV./.V.U.T.C.,.o.<.e * P 3X-X,X<X6X<X            ",
"                    { r.@.[.`.R.H.F.{ 9 y g.j.L.P.{.bX_._.R.R.C.8.o.1.' 7 K 6XsXZXsXiXsX            ",
"                  6 { 3.x.].R.C.#.<.X.u #.l.g.Z.S.L.I.L.P.L.P.p.8.+.<.;.8 .XhXfX4XdX5X3X            ",
"                  6 ` 1.x.E.G.@.<.<.} 7.f.h.j.u.R.C.t t t i.H.u.7.<.+.1.7 OX<X@XBX-XoXsX            ",
"                    } ;.C.}.s.a $.8.c.c.z.f.y.p.P.y c l < y G.t.6.O.+.1.a V J L E x +XpX            ",
"                    ' n.~.eXXXB l.i * g _.B.cXbXt.> Y ^ V % u f.5.<.+.>.a C l j B E oX=X            ",
"                3XiX1X!.(.J D /.6.9 6 e q.B.zXcXkXAXSXNXaXm.c.g.1.1.+.O.a P J R 5X3XE <X            ",
"                >X6X2XZ.A.H E.Z.O.4.4.4.:.=.jX!.^.VXBXfXGXAXvXB.<.<.X.} a C J aXBX-XoX^             ",
"                ,XiX5X(.A.W.s.$ <.1.1.3.] pXJX^ ~.AXBXyXtXyX%XqXs O O % & < j $X1XL -               ",
"              >X5X3X&XA.A.N : g 1.1.1.4.%.hXJX,XwXuXL I , $Xn m.G 4 4 4 4 , z z z z V               ",
"                =X>X XA.I.N I.P.O.4.4.>.q.rXhXH jXtXL P z XXm.eXS O & % % x J  XXXP ;X              ",
"              =X3XdX2XZ.A.W.Y.g *.' _ | V.zXb./.mXeXJ I >XqXjX#X: . C @   x x  X XT 5X              ",
"                      f g s O o M.n 2 s M.zX=.Q.jX%XJ *XqX! n X . . . o   x x P  XOXiX              ",
"                        > # o y b.zXlXlX^.d g mXGXI tXqX/ s . + . . X       z K P oX=X              ",
"                          > - . . 1 S S m ; E fXfXl >X/ / / / Y X # -                               ",
"                            l , 2 1 , > b @XuXY @XtXL # - > s D < -                                 ",
"                              l l 1 1 > ! VXfX=XwXVXAXeX/ / Q N ,                                   ",
"                                j x j 1 aXoX.X1X4XoX$XVX<XI x                                       ",
"                                    j +X6XT 7X5X5X7XT 6XW ;                                         ",
"                                      :XE o + + + + X @X-X                                          ",
"                                  $.  4XE + # @ # # # +X+X                                          ",
"                                  j.7..X:XR 7X7X0XyXR $XL                                           ",
"                                g.0.<.7 OXXXP ;X$XT  X X                                            ",
"                                $.4.[ 5 ;  XOXk V OXP < #.                                          ",
"                                9 O.4.` | 4 V : : k * f.l.                                          ",
"                                  w  .4.>.n.CX! 7 ' 2.0.z.8.                                        ",
"                                  6 w } _ D CXpXX.<.] q 9.k.                                        ",
"                                      4 % 9 d a ) e q 5 @.z.#.                                      ",
"                                      ) O.3.4.X.} _ 9 e O.8.                                        ",
"                                      G ] ..1.<.` o.O. .%.F                                         ",
"                                  <XZX0XXXm X.o.w o.' a s p     6.8.                                ",
"                                5XsX:X5X0X2XXX* & % 4 ] o.| ` 6 X.5.7.                              ",
"                          g.g.$.-.&.&.&.U oXP , % _ } 1.:.+. ._ e 1.6.                              ",
"                        g.l.z.4.4.4.4.4.>.r s [ } <.3.<.m.hXb.} w O.3.@.                            ",
"                      $.j.9.:..... .....) ` } ;.3.>.:.=.CXgX5Xe 6 5 0 4                             ",
"                      ~ ~ ~ ~ Q Q Q Q ! a O.2.1.%.G eX3X=XiX:XF ^ @X^                               ",
"                      1X4X4X4X4X4X4X4X9XS ' X.` l T 2X$XK N R oX1X4X1X                              ",
"                                                                                                    ",
"                                                                                                    "
};
