/* XPM */
static char *result[] = {
/* columns rows colors chars-per-pixel */
"50 50 248 2 ",
"   c #010000",
".  c #05070C",
"X  c #1A161A",
"o  c #160D0D",
"O  c #280202",
"+  c #380304",
"@  c #281517",
"#  c #39190C",
"$  c #13172D",
"%  c #251B26",
"&  c #281F33",
"*  c #262629",
"=  c #2C2A3A",
"-  c #322937",
";  c #2A323A",
":  c #372E2E",
">  c #2B2119",
",  c #450208",
"<  c #5B0305",
"1  c #491A17",
"2  c #50110F",
"3  c #6B0202",
"4  c #660307",
"5  c #730305",
"6  c #761505",
"7  c #6F0F13",
"8  c #582C0C",
"9  c #6E3313",
"0  c #481A28",
"q  c #4F1024",
"w  c #7D1721",
"e  c #631A26",
"r  c #4C2F33",
"t  c #782027",
"y  c #6F2931",
"u  c #4E483A",
"i  c #714D2B",
"p  c #293749",
"a  c #363749",
"s  c #383B55",
"d  c #2F2E48",
"f  c #47394D",
"g  c #703045",
"h  c #493966",
"j  c #35424B",
"k  c #38434F",
"l  c #3D4757",
"z  c #2D455C",
"x  c #3D4D6C",
"c  c #4A4649",
"v  c #43495B",
"b  c #5A5A5B",
"n  c #4E5155",
"m  c #6D4E4F",
"M  c #6D7053",
"N  c #424A64",
"B  c #4C5B6B",
"V  c #485367",
"C  c #595A6C",
"Z  c #4B5C76",
"A  c #495A79",
"S  c #575571",
"D  c #645866",
"F  c #4C6374",
"G  c #536679",
"H  c #5A737D",
"J  c #6B6B77",
"K  c #787A77",
"L  c #71696B",
"P  c #88020A",
"I  c #970107",
"U  c #870715",
"Y  c #900B16",
"T  c #A4000D",
"R  c #AA030A",
"E  c #BB000C",
"W  c #B6000A",
"Q  c #A70211",
"!  c #BC0214",
"~  c #B70615",
"^  c #B51708",
"/  c #8D2C08",
"(  c #B9330E",
")  c #8A1826",
"_  c #AC1A27",
"`  c #8D2C30",
"'  c #B73235",
"]  c #C3010D",
"[  c #CC000A",
"{  c #CC0705",
"}  c #D8010E",
"|  c #C40113",
" . c #CB0114",
".. c #C9071A",
"X. c #D40114",
"o. c #D90114",
"O. c #D60517",
"+. c #D0170F",
"@. c #C4250F",
"#. c #C63A0A",
"$. c #D13713",
"%. c #EA3706",
"&. c #F0270F",
"*. c #D72B30",
"=. c #E53323",
"-. c #985703",
";. c #8C520E",
":. c #AB4F0B",
">. c #926E17",
",. c #B1740F",
"<. c #954D26",
"1. c #94682E",
"2. c #AF712C",
"3. c #D4450B",
"4. c #D44A13",
"5. c #E4460A",
"6. c #F7470B",
"7. c #FC520A",
"8. c #E34E14",
"9. c #CD5731",
"0. c #E96A36",
"q. c #E95039",
"w. c #8A3745",
"e. c #913F47",
"r. c #A93947",
"t. c #974A55",
"y. c #94514E",
"u. c #975860",
"i. c #986B6A",
"p. c #8F7171",
"a. c #A87071",
"s. c #AE6456",
"d. c #CF734F",
"f. c #C77264",
"g. c #E35663",
"h. c #788275",
"j. c #B89014",
"k. c #B29031",
"l. c #BEAD31",
"z. c #CE9213",
"x. c #CAB329",
"c. c #D7B62A",
"v. c #D1AC2C",
"b. c #DFA51B",
"n. c #EBC428",
"m. c #F6CD28",
"M. c #F6D52D",
"N. c #EAC437",
"B. c #FBD536",
"V. c #EED22E",
"C. c #A98E4F",
"Z. c #96847A",
"A. c #818B7C",
"S. c #B88B6A",
"D. c #9B915A",
"F. c #D58953",
"G. c #D5BA52",
"H. c #CD8B6E",
"J. c #EB9170",
"K. c #EDD248",
"L. c #D0C472",
"P. c #F1DB73",
"I. c #FFE464",
"U. c #FFE55E",
"Y. c #24448C",
"T. c #556A86",
"R. c #5C7388",
"E. c #5D7594",
"W. c #4F6481",
"Q. c #647C8D",
"!. c #657786",
"~. c #787884",
"^. c #667D92",
"/. c #6B6E8C",
"(. c #7472A0",
"). c #D8738B",
"_. c #778489",
"`. c #6A8598",
"'. c #778C9A",
"]. c #7B949A",
"[. c #69818B",
"{. c #6988A3",
"}. c #738DA5",
"|. c #739DAE",
" X c #7C9AAB",
".X c #7894A3",
"XX c #7599B1",
"oX c #6C94AF",
"OX c #76A3B6",
"+X c #72A1A6",
"@X c #878789",
"#X c #888A94",
"$X c #89959B",
"%X c #92928E",
"&X c #B1918F",
"*X c #BCB08C",
"=X c #869BA6",
"-X c #949CA7",
";X c #8CA3AB",
":X c #9BA2AD",
">X c #94A4A8",
",X c #87A6B7",
"<X c #95AAB5",
"1X c #97B6BA",
"2X c #87B2BB",
"3X c #A6AAAC",
"4X c #BAA9A7",
"5X c #A5ADB3",
"6X c #A8B6B9",
"7X c #B6B8BB",
"8X c #CE8E8A",
"9X c #CBA798",
"0X c #D2A192",
"qX c #F9B293",
"wX c #C9B6B1",
"eX c #9EC0BF",
"rX c #DBCB8C",
"tX c #ECD385",
"yX c #FCE798",
"uX c #D8C3B9",
"iX c #F5EEB3",
"pX c #8CB4C3",
"aX c #9AB7C2",
"sX c #89AAC1",
"dX c #A9BAC2",
"fX c #AFA9C6",
"gX c #98C5C9",
"hX c #A4C5CB",
"jX c #B9C3C7",
"kX c #B8CAD4",
"lX c #A6CCD3",
"zX c #B4E2E6",
"xX c #C7C8C9",
"cX c #D5CAC6",
"vX c #C9CED2",
"bX c #D9D9D9",
"nX c #D2D3D1",
"mX c #F4D9D5",
"MX c #E1E0DF",
"NX c #D3EAEC",
"BX c #EBECEC",
"VX c #E5E7E6",
"CX c #F5F5F4",
"ZX c #F6FDFD",
"AX c #FFFFFF",
"SX c #FAF9F7",
"DX c #EBF1F2",
"FX c None",
/* pixels */
"FXAXAXAXAXAXAXAXAXAXAXAXAXAXAXAXAXAXAXAXMX4X5X_.$X>X3XnXCXAXAXSXAXAXAXAXAXAXAXAXAXAXAXAXAXAXAXFXFXFX",
"FXAXAXAXAXAXAXAXAXAXAXAXAXAXAXAXSXCXMXwXuX0X6X[.R. X,X1X-XbXAXAXSXxXCXAXAXAXAXAXAXAXAXAXAXAXAXFXFXFX",
"FXAXAXAXAXAXAXAXAXAXAXAXAXSXAXVX^.;X:X4XmXqX4XR.}.sX2X<X_.2X6XCX7XvXAXAXSXAXAXAXAXAXAXAXAXAXAXFXFXFX",
"FXAXAXAXAXAXAXAXAXAXAXAXAXAXAXfXh _.DXwXqX0X'.Z ~.m Z Q.v '.aXJ xXAXAXAXAXAXAXAXAXAXAXAXAXAXAXFXFXFX",
"FXAXAXAXAXAXAXAXAXAXAXAXAXZXnX(.$ ; B D.&X=XD e 4 0 G .X.X[.].G #XSXAXAXAXAXAXAXAXAXAXAXAXAXAXFXFXFX",
"FXAXAXAXAXAXAXAXAXAXAXZXcX8X9.w.Y.. 1 y.m w 5 < f E.R.].,X`.l V Z 3XAXZXSXAXAXAXAXAXAXAXAXAXAXFXFXFX",
"FXAXAXAXAXAXAXAXAXAXZXH.9.q.=.W q 2 w 3 3 3 3 , f Q.[.lXzXlXB `.lX<XbXAXAXAXAXBXbXVXAXAXAXAXAXFXFXFX",
"FXAXAXAXAXAXAXAXAXAX&XR ] W I 8 < 3 3 6 6 6 6 6 5 e V 1XhX1XT.`.2XgX6XSXZX>X_.J m L _.5XAXAXAXFXFXFX",
"FXAXAXAXAXAXAXAXAXAXwXp.L m C.rXL.L.N.c.j.>.;.i >.>.C.l.k.>.t ) ` r.` y.g ; F R.>X<XG k nXAXAXFXFXFX",
"FXAXAXAXAXAXAXAXAXSXwX-X].rXiXyXU.B.v.i 9 R ^ ,.K.F.J.J.d.c.z.@.E | ~ 4 , - }.[.7XzXXXl vXAXAXFXFXFX",
"FXAXAXAXSXAXAXAXAX&X3.#.2.yXI.m.n.,.6 ^ %.6.( c.yXf.H.H.f.N.B.,.~ ~ | 5 , a Q.H $X=XR.v xXAXAXFXFXFX",
"FXAXAXAXAXAXAXAX&X/ &.( tXI.m.n.b.-.< ( 4.7.z.x.P.).F.d.d.M.N.,.^ ~  .I , v '. X$X$X.X,X7XAXAXFXFXFX",
"FXAXAXAXAXAXAX4X< @.] k.I.m.z.,.:.P 2 8 3.6.b.x.x.P.L.L.K.c.n.j.#.! ..W < l !.;XaXpX;X.X6XAXAXFXFXFX",
"FXAXAXAXAXSXSX&X< X.~ G.B.c.-.Q { R / / 8.6.2.l.c.j.z.j.j.x.z.-.@.| ! X.4 Z ;X<XOX,X=X`.dXAXAXFXFXFX",
"FXAXAXAXAXSXAXxX5 ] @.n.m.:.R | ~ ~ ^ #.#.5.-.x.c.9 # > 8 ,.b.-.@.| ~ X.7 N ].B '.,XZ `.dXAXAXFXFXFX",
"FXAXAXAXAXAXAXVX) [ :.G.G.m t #.3.8.0.0.5.,.>.z.>.> V v * 8 z.-.+.! ! X.U s s V V N v `.6XAXAXFXFXFX",
"FXAXAXAXAXAXAXVXy._ k.h.#Xx m 6.2 O u J.J.H.iX1.r j _._.; # / 3.O.| ~ X.Y s h d a B [.G 5XAXSXFXFXFX",
"FXAXAXAXDXjX6X1X X@XV.h.s D.F.+.4 4 I ..g.).tXL.<XvXlXpX|.i.0.8. . .~ | w x S V `.OX`.T.5XAXAXFXFXFX",
"FXAXAXAXCX7X=X`.`.K n.M C.M.2.| o.X.O.X.) &X*Xk.<XkX;XdXkXxX0Xg.| | !  .U a N ^.pX;XH F 6XAXAXFXFXFX",
"FXAXAXSXBXvX6X=X+X%Xn.h.V.i q  . . .X.T [.NX].M 6XjX,X,XsX,X~.@Xr O O O , % - T.}.`.- - xXAXZXFXFXFX",
"FXAXAXAXuX;X|.=XXXh.m.M ; $ i X. . .O.Y -XDXhX_.dXD !.v B E.f %Xm O + O + - s a s d s V nXAXAXFXFXFX",
"FXAXAXAXSXMX6X].R.L n.M c x.b.X.O.O.O...%XdXh.Z.7XC A v s /.p.Z.m O + O 1 C s A W.A W.=XVXAXAXFXFXFX",
"FXAXAXAXVX>X X X}.h.n.M N.M.<. .T Q E *.).a.1.rX:X/.N W.~.@X5X~.;   k . n -Xd A T.W.W.,XCXAXAXFXFXFX",
"FXAXAXAXAXSXbX7X<XK -.u ;.o @ s.> X , s.8Xu.1.9X$XV S #X#XK D X     o   7X7Xd A T.W.E.6XSXAXAXFXFXFX",
"FXAXAXAXAXAXAXAXAXCX&X: .   8 a.&Xa.Z.S.u.9 S.vX-XG $Xp.J *           b AXbXf x A A R.xXAXAXAXFXFXFX",
"FXAXAXAXAXAXAXZXSXAXAX_.o @ O @ p.p.a.i.1 v dXkX'.V 6Xh.@XJ b ; . . - bXAXAX3X-X:X:X6XBXAXAXAXFXFXFX",
"FXAXAXAXAXAXAXAXAXAXAXCXC % X X % * X ; N F ^.V /.V s * : c b M % @ 3XAXAXAXAXAXAXAXAXAXAXAXAXFXFXFX",
"FXAXAXAXAXAXAXAXAXAXSXAXDXJ = f c c c b 6XkX:X#XjXkXK c c c n f - 3XAXZXAXAXZXSXAXZXSXAXAXAXAXFXFXFX",
"FXAXAXAXAXAXAXAXAXAXAXZXAXSX#Xd & & X !.,XH R.^./.'.hX3X%X~.V D xXAXAXAXAXAXAXAXAXAXAXAXAXAXAXFXFXFX",
"FXAXAXAXAXAXAXAXAXAXAXAXAXAXAXxXJ s v ,XT.{.,X,XOX^.^.,XN v #XBXAXSXAXAXAXAXAXAXAXAXAXAXAXAXAXFXFXFX",
"FXAXAXAXAXAXAXAXAXAXAXAXAXAXSXAXZXwX'.`.k Z B B B B l }.~.MXSXAXZXAXAXAXAXAXAXAXAXAXAXAXAXAXAXFXFXFX",
"FXAXAXAXAXAXAXAXAXAXAXAXAXAXAXAXDXMXaXG             * `.:XAXSXAXAXAXAXAXAXAXAXAXAXAXAXAXAXAXAXFXFXFX",
"FXAXAXAXAXAXAXAXAXAXAXAXAXAXAXVX9.2.=X^.d j k j j a l `.-XAXAXAXAXSXAXAXAXAXAXAXAXAXAXAXAXAXAXFXFXFX",
"FXAXAXAXAXAXAXAXAXAXAXAXAXAXZXH.%.*.J {.T.}.sX,XsX`.T.R.xXAXAXAXAXAXAXAXAXAXAXAXAXAXAXAXAXAXAXFXFXFX",
"FXAXAXAXAXAXAXAXAXAXAXAXAXAXcX8.+.| y x E.V G W.F F T.R.VXZXAXAXAXAXAXAXAXAXAXAXAXAXAXAXAXAXAXFXFXFX",
"FXAXAXAXAXAXAXAXAXAXAXAXZXAX9X^ O.Q < , z E.x = T.T.p t H.SXAXAXAXAXAXAXAXAXAXAXAXAXAXAXAXAXAXFXFXFX",
"FXAXAXAXAXAXAXAXAXAXAXAXAXAXxX3 E O.T W 4 p s X p X / 7.%.cXAXAXAXAXAXAXAXAXAXAXAXAXAXAXAXAXAXFXFXFX",
"FXAXAXAXAXAXAXAXAXAXAXAXAXAXSXi.3 | O.o.' hX=X: P ! +.$.6.f.ZXSXAXAXAXAXAXAXAXAXAXAXAXAXAXAXAXFXFXFX",
"FXAXAXAXAXAXAXAXAXAXAXAXAXAXAXBXg 3 T I r +XgX` E Y 5 Y 6.4.cXAXSXAXAXAXAXAXAXAXAXAXAXAXAXAXAXFXFXFX",
"FXAXAXAXAXAXAXAXAXAXAXAXAXAXSXAXCXZ.1 O , w y I P 4 4 4 $.5.H.ZXAXAXAXAXAXAXAXAXAXAXAXAXAXAXAXFXFXFX",
"FXAXAXAXAXAXAXAXAXAXAXAXAXAXAXSXAXmXU Q o.o.] R T < 3 P { ( wXAXAXAXAXAXAXAXAXAXAXAXAXAXAXAXAXFXFXFX",
"FXAXAXAXAXAXAXAXAXAXAXAXSXAXAXAXAX7Xg Y E  .X.P T T | | w @XAXAXuXuXAXZXAXAXAXAXAXAXAXAXAXAXAXFXFXFX",
"FXAXAXAXAXAXAXAXAXAXAXAXAXZXAXBX7XaX XT.g Q ! 5 Y  .U e r p.SX&X@.$.cXAXAXAXAXAXAXAXAXAXAXAXAXFXFXFX",
"FXAXAXAXAXAXAXAXAXAXAXZXbXZXMXhX2XXXsXOX{.S y , , + , U I Y t.2 W } 9.DXAXSXAXAXAXAXAXAXAXAXAXFXFXFX",
"FXAXAXAXAXAXAXAXAXAXZXH.4.d.y.u.t.w.w.~.{.T.z o + 5 ~ | { W R 3 P X.{ 9XAXSXAXAXAXAXAXAXAXAXAXFXFXFX",
"FXAXAXAXAXAXAXAXAXZX9X3.7.%.[ [ [ [  .| y d y U Q |  .! u.i._ I 4 ..O.' VXAXAXAXAXAXAXAXAXAXAXFXFXFX",
"FXAXAXAXAXAXAXAXAXuX8.7.6.} X.o.o.o.o.! P U R ]  .O.[ u.zXOXp.P 4 P I ` MXAXAXAXAXAXAXAXAXAXAXFXFXFX",
"FXAXAXAXAXAXAXAXAXi./ <.` w ) w w w w 4 Y |  ....._ u.$X'.hX}.1 r r 1 @XAXAXAXAXAXAXAXAXAXAXAXFXFXFX",
"FXAXAXAXAXAXAXAXZX;XoXXXXX|.|.|.|.|.OXS I ] E e p '.OXE.G [.G R.|.|..X=XCXAXAXAXAXAXAXAXAXAXAXFXFXFX",
"FXAXAXAXAXAXAXAXSX7X-X:X:X:X:X:X:X:X:X=Xa.a.a.p._.-X=X-X_.h.-X-X-X>X-XjXAXAXAXAXAXAXAXAXAXAXAXFXFXFX"
};
