/* XPM */
static char *result[] = {
/* columns rows colors chars-per-pixel */
"50 50 252 2 ",
"   c #010101",
".  c #09070A",
"X  c #1A1719",
"o  c #160A0E",
"O  c #280203",
"+  c #360404",
"@  c #311410",
"#  c #1C1929",
"$  c #2F1725",
"%  c #192632",
"&  c #27292B",
"*  c #2A2836",
"=  c #2C333A",
"-  c #383235",
";  c #1E201F",
":  c #570205",
">  c #49181A",
",  c #4D0D0A",
"<  c #680306",
"1  c #730102",
"2  c #770507",
"3  c #761303",
"4  c #6F0F15",
"5  c #4E2809",
"6  c #712A07",
"7  c #471928",
"8  c #591C2C",
"9  c #7D1725",
"0  c #6D1C2B",
"q  c #4A3336",
"w  c #502937",
"e  c #753334",
"r  c #724B11",
"t  c #765230",
"y  c #746430",
"u  c #2D3547",
"i  c #35374C",
"p  c #373A54",
"a  c #302E47",
"s  c #102D58",
"d  c #4B3849",
"f  c #6C395E",
"g  c #3B4557",
"h  c #37424D",
"j  c #3A4C6D",
"k  c #484648",
"l  c #45495A",
"z  c #595759",
"x  c #514A4E",
"c  c #75504F",
"v  c #717252",
"b  c #464967",
"n  c #495769",
"m  c #575868",
"M  c #475977",
"N  c #4F5278",
"B  c #615365",
"V  c #59686E",
"C  c #4E627A",
"Z  c #566878",
"A  c #576973",
"S  c #666567",
"D  c #686778",
"F  c #67767C",
"G  c #76787A",
"H  c #766A6B",
"J  c #8C0102",
"K  c #860008",
"L  c #980109",
"P  c #8D0D12",
"I  c #AC010C",
"U  c #A5000A",
"Y  c #B7020A",
"T  c #A90213",
"R  c #B20213",
"E  c #BB0213",
"W  c #B80917",
"Q  c #BA1F12",
"!  c #8E2C0F",
"~  c #AA340B",
"^  c #B12B14",
"/  c #841526",
"(  c #88272E",
")  c #A6272F",
"_  c #A01021",
"`  c #CC000C",
"'  c #C4010A",
"]  c #D3000C",
"[  c #D61505",
"{  c #C40114",
"}  c #CC0114",
"|  c #C90619",
" . c #D40114",
".. c #D90014",
"X. c #D40317",
"o. c #DA1716",
"O. c #CB1312",
"+. c #C63B06",
"@. c #D0260A",
"#. c #E92F0A",
"$. c #CD2C2A",
"%. c #8C4E0D",
"&. c #A94706",
"*. c #956E14",
"=. c #B0730B",
"-. c #AC4C2A",
";. c #916F31",
":. c #B17127",
">. c #924220",
",. c #D24A10",
"<. c #E84809",
"1. c #F94A07",
"2. c #F75312",
"3. c #CA5A2D",
"4. c #D24F2D",
"5. c #E64D36",
"6. c #D56D2E",
"7. c #E96937",
"8. c #8F3544",
"9. c #B13942",
"0. c #D53646",
"q. c #845356",
"w. c #934B50",
"e. c #AC4949",
"r. c #B3694F",
"t. c #857778",
"y. c #967679",
"u. c #926D70",
"i. c #A77174",
"p. c #C87051",
"a. c #E45A6A",
"s. c #CD7B70",
"d. c #E7776A",
"f. c #7B8073",
"g. c #B68C16",
"h. c #B7982B",
"j. c #BCA92F",
"k. c #D29A0D",
"l. c #D4A40F",
"z. c #D98D3C",
"x. c #C8A827",
"c. c #D5B329",
"v. c #D7B735",
"b. c #E1B417",
"n. c #DFC436",
"m. c #E9C92B",
"M. c #FFD834",
"N. c #EECB31",
"B. c #FFE42F",
"V. c #958C50",
"C. c #AA9845",
"Z. c #B69658",
"A. c #B1A454",
"S. c #97937B",
"D. c #B4AC67",
"F. c #AD917E",
"G. c #D78557",
"H. c #CBBA52",
"J. c #CA9073",
"K. c #D4B76A",
"L. c #E79866",
"P. c #DECB54",
"I. c #F9D946",
"U. c #FFE854",
"Y. c #D9C86F",
"T. c #FBE57C",
"R. c #4C6485",
"E. c #556884",
"W. c #5A7487",
"Q. c #5B7799",
"!. c #586D91",
"~. c #647889",
"^. c #797B88",
"/. c #667D93",
"(. c #686A89",
"). c #536E92",
"_. c #887AA7",
"`. c #C07C82",
"'. c #7B868C",
"]. c #6B8497",
"[. c #758897",
"{. c #79939E",
"}. c #6D818B",
"|. c #748CA3",
" X c #729DAE",
".X c #7D9AAB",
"XX c #7B97A4",
"oX c #7B9CB3",
"OX c #6A91A9",
"+X c #7AA3B6",
"@X c #79A2AD",
"#X c #878587",
"$X c #868992",
"%X c #88979B",
"&X c #97999C",
"*X c #96888C",
"=X c #B08B8C",
"-X c #A9A69A",
";X c #849BA6",
":X c #939BA5",
">X c #989DA6",
",X c #878DA3",
"<X c #88A3AB",
"1X c #9BA2AD",
"2X c #9AA7AA",
"3X c #84A4BB",
"4X c #86A5B6",
"5X c #98B3B9",
"6X c #91AEB5",
"7X c #A5A7A9",
"8X c #A9B5B8",
"9X c #B9B8BB",
"0X c #B0AEAE",
"qX c #CD908B",
"wX c #F29286",
"eX c #D2AA90",
"rX c #E9B28A",
"tX c #CDB4AC",
"yX c #A1C2BE",
"uX c #D7CC96",
"iX c #F2E890",
"pX c #D3C4AF",
"aX c #FFF0A6",
"sX c #95B6C2",
"dX c #8CACC1",
"fX c #B9BEC9",
"gX c #A5BAC3",
"hX c #C8BDC0",
"jX c #97C3CA",
"kX c #A8C3C9",
"lX c #B8C6CA",
"zX c #B9C9D5",
"xX c #AED0D6",
"cX c #BDE5E8",
"vX c #C6C7C8",
"bX c #CBD4D5",
"nX c #D2D4D4",
"mX c #DBDCDC",
"MX c #D5D8D8",
"NX c #D3CECB",
"BX c #EAD9D4",
"VX c #F3EED1",
"CX c #D1DFE5",
"ZX c #DAE4E5",
"AX c #EBECEC",
"SX c #E5E5E6",
"DX c #F3F4F3",
"FX c #FEFEFE",
"GX c #F6FAFA",
"HX c #EDF1F2",
"JX c #DFE0D9",
"KX c None",
/* pixels */
"KXFXFXFXFXFXFXFXFXFXFXFXFXFXFXFXFXFXFXFXmX9X>X:X^.2X-XNXGXFXFXFXFXFXFXGXFXFXFXFXFXFXFXFXFXFXFXKXKXKX",
"KXFXFXFXFXFXFXFXFXFXFXFXFXFXnXSXFXFXAX7X5X5XXX|.C 5XeXtXtXNXDXDXFXFXFXFXFXFXFXFXFXFXFXFXFXFXFXKXKXKX",
"KXFXFXFXFXFXFXFXFXFXFXFXFXFXAX0XAXNX6X{.;XsX+XdXZ <XrXVXtX:X8X(.fXFXGXGXFXFXFXFXFXFXFXFXFXFXFXKXKXKX",
"KXFXFXFXFXFXFXFXFXFXFXFXFXGXFXAX'.XX6Xn E.~.d G Z /.&XwXtXCXCXi _.AXFXGXFXFXFXFXFXFXFXFXFXFXFXKXKXKX",
"KXFXFXFXFXFXFXFXFXFXFXFXFXFXFXfXA ].|.].XXW.d : 9 w [.&XJ.z V . N 0XHXGXFXFXFXFXFXFXFXFXFXFXFXKXKXKX",
"KXFXFXFXFXFXFXFXFXFXFXFXGXFXmXF n g A <X@XW./.n > < < e q.e   s N 4.`.tXAXFXFXFXFXFXFXFXFXFXFXKXKXKX",
"KXFXFXFXFXFXDXMXSXFXFXFXFXFX2XkX4Xn .XcXcX XQ.B 7 : 1 1 < P 4 $ P o.5.5.r.SXFXFXFXFXFXFXFXFXFXKXKXKX",
"KXFXFXFXnX'.^.c B '.'.mXFXbX5XjX.XM <XkXyXf.q < 3 3 3 3 3 < 3 < : 1 I ' Y 9.GXFXFXFXFXFXFXFXFXKXKXKX",
"KXFXFXFXD g {.8X~.W.u d w.e ) 8.( ( r *.C.A.:.*.r %.*.g.j.H.P.K.uXK.y H H =XDXFXFXFXFXFXFXFXFXKXKXKX",
"KXFXFXFXm Z jXZXG +Xb @ : J  .Y ` ,.m.z.G.L.G.K.x.^ W P 6 g.N.U.T.VXiXS.%X7XSXFXGXFXFXFXFXFXFXKXKXKX",
"KXFXFXGXD C {.1XF ].m $ < I | W ~ m.M.G.J.J.J.eXU.=.#.<.@.3 %.c.N.M.aXK.~ <.r.SXFXFXFXFXFXFXFXKXKXKX",
"KXFXFXnX4X.X%X;XXX;XZ $ 1 } R W &.c.M.z.p.G.G.Y.n.h.2.2.~ 3 3 l.b.N.M.iX6.[ +.c AXFXFXFXFXFXFXKXKXKX",
"KXFXFXbX.X;XsXsX5X[.n $ L X.E O.=.l.n.n.P.Y.uXP.x.m.<.2.6 5 < ~ =.k.b.I.P.Y o.K q.FXFXFXFXFXFXKXKXKX",
"KXGXFXMX{.[.3XoX<X5X/.7 I X.R [ &.k.x.x.g.h.g.c.x.h.,.2.~ ! L ` { ! g.M.I.-.X.J e GXFXFXFXFXFXKXKXKX",
"KXFXFXnX<Xn |.4XZ ~.~.7 ' } T O.&.g.l.r @ 5 > g.N.*.,.+.,.~ I W | { ! x.B.6. .J u.FXFXFXFXFXFXKXKXKX",
"KXFXFXnX{.C p n n l i 8 } | E X.~ =.*.O g n i 5 l.=.*.,.2.7.7.,.+.! 8 C.P.:.] I -XFXGXFXFXFXFXKXKXKX",
"KXGXFXmXZ ~.Z g a i b 8  .W E } #.~ 5 X F [.A - r uXeXd.wXw.@ @ ,.-.j ^.'.V.e._ 9XFXFXFXFXFXFXKXKXKX",
"KXFXFXMX~./.;X.XC b N 8 E W { } o.7.p.'.6XkXxXkXS.T.qXd.$.T < < U 5.D.l n P.D.|.1X5X8XmXFXFXFXKXKXKX",
"KXFXFXMXF Z [.dX;Xb j 8 E E E } 0.wX9XzXfX4XsXzXC.A.0Xw.E ....X.X.^ m.m.z c.C.Q.].%X8XmXFXFXFXKXKXKX",
"KXFXFXFXB # C  X].i * + + O O @ t.t.|.6X4X4XsXfXf.V CXkX9  .} } ..2 = v.V.x.H.oXXX2XlXZXGXFXFXKXKXKX",
"KXFXFXGX^.p u i u i a + + O O > *Xc M /.= ].l >X<X<XZXxXe ] } }  .^ = # x c.Z.OX;XoX;X8XAXFXFXKXKXKX",
"KXFXFXGXgXW.M R.R.j l x O + + > y.u.(.b u W.g :X-Xv 8X7X9.] X.X.` ,.m.y h v.V.R.[.1XNXDXFXFXFXKXKXKX",
"KXFXFXFXlX~.N R.E.p D *X  g . . V 2X&X^.(.b N ,XuXC.c qXa.} R L E ) h.B.f.c.C.Q..X.X%XlXFXFXFXKXKXKX",
"KXFXFXFXbX{.R.E.E.p (.AX= . .   . k G S.$XD b ^.-XG.( qXs.0 o X w.e   r y r ;.;X8XNXHXFXFXFXFXKXKXKX",
"KXFXFXFXSX{.M M b a &XFX7X            z G *X].~.xX0X%.e =Xi.F.`.`.e o   ; H JXFXFXFXFXFXFXFXFXKXKXKX",
"KXFXFXFXFXlX7X7X1X>XMXFXFXH o . ; x V S.#X&X,Xm zXlX'.$ q.i.u.t.q O @ . k AXFXFXGXFXFXFXFXFXFXKXKXKX",
"KXFXFXFXFXFXFXFXFXFXFXFXFXSXk o x S x h & & N A A V ].g h X X & X X $ i lXFXGXFXFXFXFXFXFXFXFXKXKXKX",
"KXFXFXFXFXFXFXFXGXFXFXFXFXFXmXl = x x k k z 8XzX>X$XzXkXG k k k x - i fXFXFXFXFXFXFXFXFXFXFXFXKXKXKX",
"KXFXFXFXFXFXFXFXFXFXFXFXFXGXFXAX_.x D $X&XlX4X~./.W.Z {.<X* ; * * D MXFXFXFXFXFXFXFXFXFXFXFXFXKXKXKX",
"KXFXFXFXFXFXFXFXFXFXFXFXFXFXFXFXGX0Xm p ].<XC oXdXdXoXE.oX~.a m >XDXFXFXFXFXFXFXFXFXFXFXFXFXFXKXKXKX",
"KXFXFXFXFXFXFXFXFXFXFXFXFXFXFXFXFXFXDX&X].Z g V n n n b A |.&XAXFXFXGXFXFXFXFXFXFXFXFXFXFXFXFXKXKXKX",
"KXFXFXFXFXFXFXFXFXFXFXFXFXFXFXFXFXFXFXnX[.n             = 3XNXAXGXFXFXFXFXFXFXFXFXFXFXFXFXFXFXKXKXKX",
"KXFXFXFXFXFXFXFXFXFXFXFXFXFXFXFXFXGXFXvX].A = h i i h u n +XS.+.eXFXFXFXFXFXFXFXFXFXFXFXFXFXFXKXKXKX",
"KXFXFXFXFXFXFXFXFXFXFXFXFXFXFXFXFXFXFXHX[.E.E.3XdXdX+XW.].].9.#.3.SXFXFXFXFXFXFXFXFXFXFXFXFXFXKXKXKX",
"KXFXFXFXFXFXFXFXFXFXFXFXFXFXFXFXFXFXFXFX:XR.R.M E.Z M E.R.d T X.#.qXFXFXFXFXFXFXFXFXFXFXFXFXFXKXKXKX",
"KXFXFXFXFXFXFXFXFXFXFXFXFXFXFXFXFXFXFXpX-.* j /.g u !.M $ : 2 X.' r.GXFXFXFXFXFXFXFXFXFXFXFXFXKXKXKX",
"KXFXFXFXFXFXFXFXFXFXFXFXFXFXFXFXFXFXDXp.1.&.+ a # % n @ I L {  .1 y.FXFXFXFXFXFXFXFXFXFXFXFXFXKXKXKX",
"KXFXFXFXFXFXFXFXFXFXFXFXFXFXFXFXFXFXtX<.1.o.O.L : V xXu.....| J 0 BXFXGXFXFXFXFXFXFXFXFXFXFXFXKXKXKX",
"KXFXFXFXFXFXFXFXFXFXFXFXFXFXFXFXFXGXp.1.Q < K E U ;XjXn 2 I J 4 tXFXFXFXFXFXFXFXFXFXFXFXFXFXFXKXKXKX",
"KXFXFXFXFXFXFXFXFXFXFXFXFXFXFXFXFXNX,.#.P < < 2 L 9 e 4 O + c NXFXFXFXFXFXFXFXFXFXFXFXFXFXFXFXKXKXKX",
"KXFXFXFXFXFXFXFXFXFXFXFXFXFXFXFXFXSX-.@.L 2 < 2 I E ] ..W K `.FXGXFXFXFXFXFXFXFXFXFXFXFXFXFXFXKXKXKX",
"KXFXFXFXFXFXFXFXFXFXFXFXFXFXSXeXDXFXlXe R { T T K R X.E T 9 #XGXFXFXFXFXFXFXFXFXFXFXFXFXFXFXFXKXKXKX",
"KXFXFXFXFXFXFXFXFXFXFXFXFXHXp.[ e.HXhXw 7 4 R R 1 U E 9 B OXsX8XnXFXFXFXFXFXFXFXFXFXFXFXFXFXFXKXKXKX",
"KXFXFXFXFXFXFXFXFXFXFXFXFXqX[ | 1 c ) L _ : + , , 4 B Q.oX3X+X+XyXzXFXSXAXFXFXFXFXFXFXFXFXFXFXKXKXKX",
"KXFXFXFXFXFXFXFXFXFXGXFXJX,.X.T < L Y ' ` E L , . % R.Q.].q.8.8.w.w.r.3.p.SXFXGXFXFXFXFXFXFXFXKXKXKX",
"KXFXFXFXFXFXFXFXFXFXFXFXi.] X.K 2 I w.u.) } { R L 0 d d T ` } ] ` ` [ 2.<.p.HXFXFXFXFXFXFXFXFXKXKXKX",
"KXFXFXFXFXFXFXFXFXFXFXFXu.J L 1 1 w.@XxX:XE X.X.} R L 2 U  .......] ..#.2.1.J.FXFXFXFXFXFXFXFXKXKXKX",
"KXFXFXFXFXFXFXFXFXFXFXFXvXq 7 q > z jX;X%Xy.) W | X.} R 4 4 / 9 / / / ( >.>.! MXFXFXFXFXFXFXFXKXKXKX",
"KXFXFXFXFXFXFXFXFXFXFXFX8X|.+X+X].C W.W.Z  XoXn - T ' Y 0 OX X X@X X X X X XOXnXFXFXFXFXFXFXFXKXKXKX",
"KXFXFXFXFXFXFXFXFXFXFXFXmX:X:X1X:X<X$XG :X:X:X'.G y.i.i.*X1X7X>X1X2X1X1X1X>X1XSXFXFXFXFXFXFXFXKXKXKX"
};
