/* XPM */
static char *eb0311b873e649f8dddace358069994e4MDUcVpqr81TmfDJ[] = {
/* columns rows colors chars-per-pixel */
"50 50 254 2 ",
"   c None",
".  c #030201",
"X  c #0B0A0C",
"o  c #0A0407",
"O  c #1B0401",
"+  c #0C0D11",
"@  c #091116",
"#  c #17151B",
"$  c #180D1A",
"%  c #2A0203",
"&  c #360305",
"*  c #361010",
"=  c #19172E",
"-  c #251C27",
";  c #2A1427",
":  c #1B262C",
">  c #272627",
",  c #292836",
"<  c #382833",
"1  c #383538",
"2  c #312E2D",
"3  c #2C2114",
"4  c #450104",
"5  c #5C0002",
"6  c #530104",
"7  c #4C0C16",
"8  c #4E1415",
"9  c #630103",
"0  c #6B0000",
"q  c #66010A",
"w  c #740102",
"e  c #7B0108",
"r  c #7A0813",
"t  c #661015",
"y  c #5A330A",
"u  c #502700",
"i  c #783503",
"p  c #73250C",
"a  c #55192A",
"s  c #691322",
"d  c #711921",
"f  c #4C3035",
"g  c #712E35",
"h  c #794A10",
"j  c #704E2A",
"k  c #5A4321",
"l  c #322C43",
"z  c #2C3648",
"x  c #363649",
"c  c #333A51",
"v  c #3B3B56",
"b  c #292C42",
"n  c #303568",
"m  c #423E57",
"M  c #493949",
"N  c #683948",
"B  c #503C6A",
"V  c #3C4349",
"C  c #3A4256",
"Z  c #394758",
"A  c #3E545E",
"S  c #3B4869",
"D  c #3F5A7A",
"F  c #3F6578",
"G  c #594A4A",
"H  c #4C4A52",
"J  c #684D4F",
"K  c #767253",
"L  c #464B66",
"P  c #485569",
"I  c #58586B",
"U  c #485876",
"Y  c #545879",
"T  c #725168",
"R  c #58676E",
"E  c #4C617A",
"W  c #56677A",
"Q  c #4F606A",
"!  c #6D656D",
"~  c #65686A",
"^  c #726A69",
"/  c #65767B",
"(  c #7A797A",
")  c #6E736F",
"_  c #8B0006",
"`  c #860209",
"'  c #93010C",
"]  c #990209",
"[  c #890617",
"{  c #970818",
"}  c #861606",
"|  c #AC000E",
" . c #A40008",
".. c #B2000C",
"X. c #BB000E",
"o. c #B90003",
"O. c #A90513",
"+. c #B50113",
"@. c #BC0214",
"#. c #B70318",
"$. c #AC120A",
"%. c #853818",
"&. c #932A09",
"*. c #B52F0D",
"=. c #A41424",
"-. c #BE1024",
";. c #8E2B33",
":. c #9D1B29",
">. c #C4000D",
",. c #CA0008",
"<. c #D2000D",
"1. c #D9000D",
"2. c #C81C0D",
"3. c #C30114",
"4. c #CC0114",
"5. c #CA0718",
"6. c #D40014",
"7. c #DC0214",
"8. c #DB0716",
"9. c #D41810",
"0. c #C82809",
"q. c #CA370C",
"w. c #D9340A",
"e. c #E9300F",
"r. c #CC1829",
"t. c #CD2C21",
"y. c #E8271D",
"u. c #8D530B",
"i. c #B45717",
"p. c #9C6B19",
"a. c #A9730B",
"s. c #955C2E",
"d. c #BC5133",
"f. c #876434",
"g. c #C9420A",
"h. c #D7480C",
"j. c #D04B10",
"k. c #E54508",
"l. c #EF530D",
"z. c #F6520E",
"x. c #F25111",
"c. c #CF7132",
"v. c #E1502A",
"b. c #863D46",
"n. c #834F4B",
"m. c #B4564F",
"M. c #917777",
"N. c #AB7165",
"B. c #C97670",
"V. c #EA746F",
"C. c #DC5F57",
"Z. c #B18416",
"A. c #B49D37",
"S. c #B29128",
"D. c #B7A23B",
"F. c #BDA225",
"G. c #93822C",
"H. c #C9910A",
"J. c #D6A212",
"K. c #E8B619",
"L. c #C48928",
"P. c #CCB329",
"I. c #D4B424",
"U. c #C8B034",
"Y. c #E5B02A",
"T. c #F6CD28",
"R. c #FDDB38",
"E. c #EDCB30",
"W. c #FDE42F",
"Q. c #928D53",
"!. c #B19756",
"~. c #B8AB54",
"^. c #929B6C",
"/. c #AB966F",
"(. c #D39551",
"). c #CFB74E",
"_. c #D68E6B",
"`. c #E7A469",
"'. c #FBDA48",
"]. c #EED946",
"[. c #FEEB59",
"{. c #D9CA72",
"}. c #F0DB76",
"|. c #D9C545",
" X c #3E4183",
".X c #4E6687",
"XX c #556B83",
"oX c #586A85",
"OX c #5C7285",
"+X c #5B718B",
"@X c #597192",
"#X c #637A8B",
"$X c #657786",
"%X c #797C87",
"&X c #637B96",
"*X c #73798E",
"=X c #5E7CA1",
"-X c #807E83",
";X c #6C848B",
":X c #6C8494",
">X c #6B8597",
",X c #768C99",
"<X c #7B939A",
"1X c #788688",
"2X c #6C8AA3",
"3X c #6386A7",
"4X c #728DA4",
"5X c #7894A4",
"6X c #7393AB",
"7X c #7A97A7",
"8X c #7D9BB2",
"9X c #709BB3",
"0X c #6F94A8",
"qX c #7EA3B2",
"wX c #52859A",
"eX c #7FACC0",
"rX c #898988",
"tX c #88949A",
"yX c #909190",
"uX c #B3928E",
"iX c #8796A7",
"pX c #829FB3",
"aX c #989BA5",
"sX c #88A3AA",
"dX c #84A4B3",
"fX c #8CACB4",
"gX c #85A6B8",
"hX c #92A8B7",
"jX c #9AB6B9",
"kX c #93ABAE",
"lX c #AAADAB",
"zX c #A8AC89",
"xX c #C48A8B",
"cX c #D48B92",
"vX c #D8AD8D",
"bX c #E8A986",
"nX c #D0B2AA",
"mX c #D5CF91",
"MX c #FFF194",
"NX c #C9C5B3",
"BX c #EED5A7",
"VX c #99BDC5",
"CX c #8DAFC2",
"ZX c #AABCC6",
"AX c #9BD0D4",
"SX c #A8C6CC",
"DX c #B7C6D4",
"FX c #A8D0D7",
"GX c #BCE6F0",
"HX c #BCDFED",
"JX c #C4D3D6",
"KX c #FFFFCB",
"LX c #DAECEF",
"PX c #E4D6D3",
/* pixels */
"                                                                                                    ",
"                                              Q W , iXyX                                            ",
"                                          kXSXgX8XoXjXvXPX/.                                        ",
"                                      ,XsX/ dX5XqX+XtXbXBXnXZX<Xn                                   ",
"                                    / VXW XX+XM j I XXlXbXuXHX%XB                                   ",
"                                  C W $X>X7X;XE a w s ! yXN., @ n L                                 ",
"                                / 4XL C fXSX,X;X@X< 0 w d g p $ U -.C.C.                            ",
"                                AXFX2X+XGXGXAXL N 5 5 0 0 q w q 4 ] 2.y.t.                          ",
"              Z W tX( E C     J aX-XT M Q.^.K k p i h u.p.p.s.s.s.j %.[ ' `                         ",
"              P gXJX) 0XC 7 5 ] X.| @.p.H.c.mX(.L.p.&.%.u.S.R.[.MXKXmXrXwX                          ",
"              L gXDX~ 0XC * 0 X.@.@.j.W.`._.(._.vX].g.9.2.} u.J.T.'.KX{.s.j.                        ",
"            ,X,X;X<X:X5XU * e 4.#.2.a.R.Y.m._.C.bX].Z.l.l.q.q u.K.T.R.MXc.e.j.                      ",
"            fXdXkXSXhX5XP * ] 4.+.q.H.E.E.).`.mX}.I.P.k.h.y q } H.H.K.'.{.$.y.}                     ",
"            7XiXgX9XfXkX@X8 X.5.@.*.a.I.P.P.).P.P.F.S.h.z.} p { 3.&.a.T.[.d.<.} 6                   ",
"            fXOX:XCX$X,XOX7 4.@.>.2.a.H.a.y y y Z.E.p.k.j.g.w...3.4.$.H.W.L.4.' 6                   ",
"            dX$Xv W P H Z s 6.#.>.e.u.H.u , z b u K.a.p.g.l.v.v.q.*.d f.|.S.>. .                    ",
"            *XOXW v l v S s 6.@.3.8.g.i O Z / R 3 h mXvXV._.N 7 p l.v oXyX^.d.{                     ",
"            ;XOX7X8XW L U s @.#.3.<.v.c.M.dXVXFXSXzX}.cXV.r._ 9 q 2.!.J S |.~.,XpXiX                ",
"            OXOX:XhXpXL S t ..O.3.6.V.vXDXDXfXhXDX/.!.lX;.,.7.7.7.@.S.W.K D.D.wX5X:X                ",
"              - P 4X#Xx , & % O O f -X*XhXpXdXhXDX^./ LXkX{ 6.4.6.3.; G.!.D.~.qXsX<X                ",
"              H c c c c b 4 & 4 & J N.M =X, W I aXyXiXLXjX{ 6.5.<.3.j = c D.!.=X5X7X,X              ",
"              >XU XX.XL v % % * % J yXrXoXc U U aXlXK lXaXr.1.8.7.X.I.P.V U.A..X,X:X                ",
"              5X.X.XE v m   @ A . # 1XlXrX*XY L *XNX(.J cXC. .` _ -.j T.Q.D.S.3XfX5X;X              ",
"              7X+X.XU v c   o o . . X 1 ) rX-XL *XlX!.%.B.B.f 2 G N.. O G h h                       ",
"              ;X+XU S c       X . . X . V M.rXiXI HXNXj g _.uXxXcXn.u . # >                         ",
"                              - # o ~ ) ( ) %X%Xx aXhXW ; J G G 1 . . - -                           ",
"                                - < G H > # # P iX$X~ sXOXV > , 2 1 , x                             ",
"                                  , m ~ rX( yXDXZXiX*XhXSX~ - 1 x M l                               ",
"                                      m I -XZX&X+X6X0XXX+XdX1 l x l                                 ",
"                                        = U 7XE pX7X7X8XW 4X#Xl                                     ",
"                                          :X$XX + + + + X W 4X                                      ",
"                                          #X#X@ # # # # + W 6X  i.                                  ",
"                                          P &XW pXdXpX8XXX4XXX0.k.                                  ",
"                                            .XE E &X>XY oX.X7 >.y.h.                                ",
"                                          &.< F @XS z @X.X; 5 ] 8.0.                                ",
"                                          x.j.* z : : Z & O.' 6.X.9                                 ",
"                                        g.x.w.6.] 6 R SXm.<.7.3.0                                   ",
"                                        l.e.q [ @.O.dXAXQ _ ..w 6                                   ",
"                                      &.x.$.5 q r _ d g 0 % 4                                       ",
"                                        q.@.e 9 ` O.| 1.7.X._                                       ",
"                                        H { X.@.+.' @.4.+.[ J                                       ",
"                                q.2.    a f s ] ..w ..O.N @X8XZX<X                                  ",
"                              *.8.| 6 {  .+.` 4 % & 7 .X3XeX7X0XfXsX                                ",
"                              9.6.w ` O.#.3.4.O.r & b U +XT =.=.=.:.*.k.h.                          ",
"                            $.5.@.e | ;.kXM.3.6.4.| { f t 6.7.7.8.7.8.e.z.l.                        ",
"                            6 0 5 6 r sXVXAX;.>.<.<.>.| ' ` o.o.X.o.o.,.w.k.*.                      ",
"                              / $X/ H 5XdX$X<XyXb.;.4.6.3.s ~ ! ! ! ^ ^ ^ ) ^                       ",
"                              2X6X>XXXW V P #X3XF z { ] ] H 9X6X6X6X6X0X0X6X2X                      ",
"                                                                                                    ",
"                                                                                                    "
};
