/* XPM */
static char *result[] = {
/* columns rows colors chars-per-pixel */
"50 50 205 2 ",
"   c #18181A",
".  c #1F2417",
"X  c #2D3016",
"o  c #272927",
"O  c #38382C",
"+  c #373934",
"@  c #403F3E",
"#  c #385738",
"$  c #2C4B36",
"%  c #3A6838",
"&  c #5B5917",
"*  c #5C601D",
"=  c #666A1A",
"-  c #484128",
";  c #47552C",
":  c #53592E",
">  c #4D4B3C",
",  c #474838",
"<  c #544D3E",
"1  c #545433",
"2  c #57573A",
"3  c #4E5D30",
"4  c #635C36",
"5  c #645F2B",
"6  c #4B682C",
"7  c #5B682E",
"8  c #6B7427",
"9  c #6B6835",
"0  c #7F723F",
"q  c #6E7226",
"w  c #155948",
"e  c #2C5C4C",
"r  c #385F4B",
"t  c #324E4D",
"y  c #17634F",
"u  c #376D59",
"i  c #23745C",
"p  c #2C684E",
"a  c #197F61",
"s  c #2C6A63",
"d  c #217B64",
"f  c #367968",
"g  c #494945",
"h  c #595548",
"j  c #575657",
"k  c #504C41",
"l  c #615845",
"z  c #625D54",
"x  c #5B645D",
"c  c #527354",
"v  c #64625E",
"b  c #696759",
"n  c #7C6D54",
"m  c #787958",
"M  c #646D4A",
"N  c #595A64",
"B  c #5A5C72",
"V  c #605C65",
"C  c #4C7F74",
"Z  c #6A6B6A",
"A  c #666767",
"S  c #75767A",
"D  c #72736D",
"F  c #8B7F3A",
"G  c #887A36",
"H  c #877D42",
"J  c #66933F",
"K  c #1A8C75",
"L  c #1D9B7B",
"P  c #27866C",
"I  c #378A62",
"U  c #228F71",
"Y  c #358473",
"T  c #289577",
"R  c #33926E",
"E  c #2CA47F",
"W  c #58975D",
"Q  c #63984D",
"!  c #4B8875",
"~  c #758C79",
"^  c #46B273",
"/  c #919510",
"(  c #B6B916",
")  c #8C813B",
"_  c #8E8130",
"`  c #92863C",
"'  c #9C8A3C",
"]  c #96883B",
"[  c #879724",
"{  c #8DA130",
"}  c #C2BB30",
"|  c #D6D60A",
" . c #D5D916",
".. c #CFD313",
"X. c #E1DE04",
"o. c #DFE00B",
"O. c #EDEB0D",
"+. c #EAE809",
"@. c #F3EC02",
"#. c #F1ED09",
"$. c #F5F203",
"%. c #FEFA06",
"&. c #F4F30C",
"*. c #FAF609",
"=. c #FBFA0C",
"-. c #FAF302",
";. c #E4E514",
":. c #EBEB12",
">. c #EDEA1B",
",. c #F5EF19",
"<. c #E9E824",
"1. c #8C8849",
"2. c #9A8A41",
"3. c #928842",
"4. c #8A8558",
"5. c #958C52",
"6. c #969154",
"7. c #A59549",
"8. c #A69751",
"9. c #8B8A6D",
"0. c #92B36D",
"q. c #AAA167",
"w. c #ABA277",
"e. c #B8B26E",
"r. c #C7BE77",
"t. c #D9CD7A",
"y. c #CDC96D",
"u. c #E7D879",
"i. c #F6E57A",
"p. c #787A83",
"a. c #359E85",
"s. c #1DB997",
"d. c #35A787",
"f. c #30B18E",
"g. c #2DB895",
"h. c #38BA94",
"j. c #2DAF90",
"k. c #36BDA2",
"l. c #469885",
"z. c #589B88",
"x. c #7E8486",
"c. c #72958D",
"v. c #49A992",
"b. c #43BC91",
"n. c #5DB4A4",
"m. c #69B5A6",
"M. c #1FC29A",
"N. c #26C49C",
"B. c #37C59D",
"V. c #2DCDA4",
"C. c #23CBA2",
"Z. c #33C6A5",
"A. c #33CBA3",
"S. c #3ACBA4",
"D. c #39C8A5",
"F. c #2BD4AA",
"G. c #39D1A9",
"H. c #35D2AA",
"J. c #3DDDB1",
"K. c #49D7AD",
"L. c #43DDB3",
"P. c #48D8BA",
"I. c #56CEAA",
"U. c #65C0A7",
"Y. c #49E5BA",
"T. c #3EECC0",
"R. c #3FFFF5",
"E. c #71D0C2",
"W. c #4AEDC2",
"Q. c #45EAC2",
"!. c #52EFC1",
"~. c #55F3CB",
"^. c #52F6CC",
"/. c #7FEDD1",
"(. c #66F8D7",
"). c #71F3D0",
"_. c #4FF5EA",
"`. c #959587",
"'. c #978C94",
"]. c #8A9697",
"[. c #97989A",
"{. c #A9A498",
"}. c #9398A6",
"|. c #A89CA3",
" X c #81ADA8",
".X c #96A8A8",
"XX c #9BB8B6",
"oX c #A6A6A9",
"OX c #B3B7B6",
"+X c #C1B780",
"@X c #87C5B2",
"#X c #A9D5A9",
"$X c #DFDF95",
"%X c #C8C797",
"&X c #FAE986",
"*X c #DEDCAD",
"=X c #FEFDA6",
"-X c #FCFCBD",
";X c #A8C0C0",
":X c #A8FAF4",
">X c #B3FCF6",
",X c #D7D7D8",
"<X c #DFF8F5",
"1X c #F2F4F9",
"2X c None",
/* pixels */
"2X2X2X2X2X2X2X2X2X2X2X2X2X2X2X2X2X2X2X2X2X2X2X2X2X2X2X2X2X2X2X2X2X2X2X2X2X2X2X2X2X2X2X2X2X2X2X2X2X2X",
"2X2X2X2X2X2X2X2X2X2X2X2X2X2X2X2X2X2X2X2X2X2X2X2X2X2X2X2X2X2X2X2X2X2X2X2X2X2X2X2X2X2X2X2X2X2X2X2X2X2X",
"2X2X2X2X2X2X2X2X2X2X2X2X2X2X2X2X2X2X2X2X2X2X2X2X2X2X2X2X2X2X2X2X2X2X2X2X2X2X2X2X2X2X2X2X2X2X2X2X2X2X",
"2X2X2X2X2X2X2X2X2X2X2X2X2X2X2X2X2X2X2X2X2X2X2X2X2X2X2X2X2X2X2X2X2X2X2X2X2X2X2X2X2X2X2X2X2X2X2X2X2X2X",
"2X2X2X2X2X2X2X2X2X2X2X2X2X2X2X2X2X2X2X2X2X2X2X2X2X2X2X2X2X2X2X2X2X2X2X2X2X2X2X2X2X2X2X2X2X2X2X2X2X2X",
"2X2X2X2X2X2X2X2X2X2X2X2X2X2X2X2X2X2X2X2X2X2X2X2X2X2X2X2X2X2X2X2X2X2X2X2X2X2X2X2X2X2X2X2X2X2X2X2X2X2X",
"2X2X2X2X2X2X2X2X2X2X2X2X2X2X2X2X2X2X2X2X2X2X2X2X2X2X2X2X2X2X2X2X2X2X2X2X2X2X2X2X2X2X2X2X2X2X2X2X2X2X",
"2X2X2X2X2X2X2X2X2X2X2X2X2X2X2X2X2X2X2X2X2X2X2X2X2X2X2X2X2X2X2X2X2X2X2X2X2X2X2X2X2X2X2X2X2X2X2X2X2X2X",
"2X2X2X2X2X2X2X2X2X2X2X2X2X2X2X2X2X2X2X2X2X2X2X2X2X2X2X2X2X2X2X2X2X2X2X2X2X2X2X2X2X2X2X2X2X2X2X2X2X2X",
"2X2X2X2X2X2X2X2X2X2X2X2X2X2X2X2X2X2X2X2X2X2X2X2X2X2X2X2X2X2X2X2X2X2X2X2X2X2X2X2X2X2X2X2X2X2X2X2X2X2X",
"2X2X2X2X2X2X2X2X2X2X2X2X2X2X2X2X2X2X2X2X2X2X2X2X2X2X2X2X2X2X2X2X2X2X2X2X2X2X2X2X2X2X2X2X2X2X2X2X2X2X",
"2X2X2X2X2X2X2X2X2X2X2X2X2X2X2X2X2X2X2X2X2X2X2X2X2X2X2X2X2X2X2X2X2X2X2X2X2X2X2X2X2X2X2X2X2X2X2X2X2X2X",
"2X2X2X2X2X2X2X2X2X2X2X2X2X2X2X2X2X2X2X2X2X2X2X2X2X2X2X2X2X2X2X2X2X2Xm 1.5.2X2X2X2X2X2X2X2X2X2X2X2X2X",
"2X2X2X2X2X2X2X2X2X2X2X2X2X2X2X2X2X2X2X2X2X2X2X2X2X2X2X2X2X2X2X2X2X2X1.2.2X2X2X2X2X2X2X2X2X2X2X2X2X2X",
"2X2X2X2X2X2X2X2X2X2X2X2X2X2X2X2X2X1.2X2X2X2X2X2X2X2X2X2X2X2X2X2X2X5.] ) 2X2X2X2X2X2X2X2X2X2X2X2X2X2X",
"2X2X2X2X2X2X2X2X2X2X2X2X2X2X2X2X2X) ] 3.2X2X2X2X2X2X2X2X2X2X2X2X5.2.] 3.2X2X2X2X2X2X2X2X2X2X2X2X2X2X",
"2X2X2X2X2X2X2X2X2X2X2X2X2X2X2X2X2X2XG _ ' 2X2X2X2X2X2X2X2X2X2X8.2.F 3.3.2X2X2X2X2X2X2X2X2X2X2X2X2X2X",
"2X2X2X2X2X2X2X2X2X2X2X2X2X2X2X2X2X2X) ) _ ` 8.2X2X2X2X2X2X2X2X9 ' ' 3.H 2X2X2X2X2X2X2X2X2X2X2X2X2X2X",
"2X2X2X2X2X2X2X2X2X2X2X2X2X2X2X2X2X2X3.G G G ' 2X2Xd.B.S.G.G.K.i $ 9 7.2X2X2X2X2X2X2X2X2X2X2X2X2X2X2X",
"2X2X2X2X2X2X2X2X2X2X2X2X2X2X2X2X2X2X2XG ] ' 3 I h.S.Y.W.Q.T.Q.Y.a.w 2X2X2X2X2X2X2X2X2X2X2X2X2X2X2X2X",
"2X2X2X2X2X2X2X2X2X2X2X2X2X2X2X2X2X2X2X2X) # w d.A.L.W.!.^.(.(.(.!.I.2X2X2X2X2X2X2X2X2X} 2X2X2X2X2X2X",
"2X2X2X2X2X2X2X2X2X2X2X2X2X2X2X2X2X2X2X2X2Xw T g.A.L.Y.!.~.(.:X:X).K.I.2X2X2X2X2X~ 9.m 2X2X2X2X2X2X2X",
"2X2X2X2X2X2X2X2X2X2X2X2X2X2X2X2X2X2X2X2X2XI a.g.B.G.K.Y.Y.(.:X<X>XK.B.2X2XD g I 2X2X2X2X2X2X2X2X2X2X",
"2X2X2X2X2X2X2X2X2X2X2X2X2X2X2X2X2X2X2X2Xe d E g.V.J.B.B.K.P./.>X@XQ f.! D D 2X2X2X2X2X2X2X2X2X2X2X2X",
"2X2X2X2X2X2X2X2X2X2X2X2X2X2X2X2X2X2X2X2Xe d a.I ^ s.A.f.B.S.h.W { 8 a.U c 2X2X2X2X2X2X2X2X2X2X2X2X2X",
"2X2X2X2X2X2X2X2X2X2X2X2X2X2X2X2X2X2X2X2Xe i K % [ J 7 K f.U E p * p K a N 2X2X2X2X2X2X2X2X2X2X2X2X2X",
"2X2X2X2X2X2X2X2X2X2X2X2X2X2X2X2X2X2X2X2X$ y U d ; 8 $ U c.Z c.! s Y p t ~ r.2X2X2X2X2X2X2X2X2X2X2X2X",
"2X2X2X2X2X2X2X2X<.,.*./ 2X2X2X2X2X2X2Xx l M ; P a s f x.oXS |.p.A Z A w.i.t.2X2X2X2X2X2X2X2X2X2X2X2X",
"2X2X2X2X2X2X2XO.&...= v ].v.2X2X2X2Xn b 0.=Xw.$ t p.V Z S j v v 9.%X-X-X$X4.2X2X2X2X2X2X2X2X2X2X2X2X",
"2X2X2X2X2X2X>.-.;.X p.m.g.g.h.! 2X2X! J._.#X-X4.n 4.4.6.q.e.t.y.=X-X*Xw.v 2X2X2X2X2X2X2X2X2X2X2X2X2X",
"2X2X2X2X2X>.@.&.& N XXj.V.Z.Y ]..X.XE._._.b.y.u.&X&Xi.i.i.i.u.q.5.4.1 2X2X2X2X2X2X2X2X2X2X2X2X2X2X2X",
"2X2X2X2X2XO.-. .  '.m.M.A.V.f '.[.,X;Xn.m.u & n 4 4 4 < @ 5 5 < z b `.2X2X2X2X2X2X2X2X2X2X2X2X2X2X2X",
"2X2X2X2X2XO.$.... ].m.k.Z.G.g.u S .X|.|.'.< @ X O O @ g h A j j S N `.9.2X2X2X2X2X2X2X2X2X2X2X2X2X2X",
"2X2X2X2X2XO.@.;.X A OXv.N.V.H.V.d.! z.l.d.2X2X$ @ j N V Z j < + k 9 M 1 2X2X2X2X2X2X2X2X2X2X2X2X2X2X",
"2X2X2X2X2X:.@.*.(   p.S l.C.C.H.H.H.V.F.F.C.2X2X- > k l < O {.OX, 2X2X2X2X2X2X2X2X2X2X2X2X2X2X2X2X2X",
"2X2X2X2X2X2XO.@.&.[ . B oXXXm.D.Z.Z.Z.V.k.n.XX2X2X1 4 9 ; A 1X1X~ 2X2X2X2X2X2X2X2X2X2X2X2X2X2X2X2X2X",
"2X2X2X2X2X2X2X:.@.*...* o N x.}..X.X.X.X.X}.B , 2X2X2X6 6 c {.+X2X2X2X2X2X2X2X2X2X2X2X2X2X2X2X2X2X2X",
"2X2X2X2X2X2X2X2X:.O.*.=.( / q : , > > 1 1 q / | :.>.2X2X2X2X2X9 h 2X2X2X2X2X2X2X2X2X2X2X2X2X2X2X2X2X",
"2X2X2X2X2X2X2X2X2X2X:.#.*.%.%.&.+.| | +.O.*.%.$.O.<.2X2X2X2X2X2X2X2X2X2X2X2X2X2X2X2X2X2X2X2X2X2X2X2X",
"2X2X2X2X2X2X2X2X2X2X2X2X2X;.+.O.$.@.$.&.#.O.;.2X2X2X2X2X2X2X2X2X2X2X2X2X2X2X2X2X2X2X2X2X2X2X2X2X2X2X",
"2X2X2X2X2X2X2X2X2X2X2X2X2X2X2X2X2X2X2X2X2X2X2X2X2X2X2X2X2X2X2X2X2X2X2X2X2X2X2X2X2X2X2X2X2X2X2X2X2X2X",
"2X2X2X2X2X2X2X2X2X2X2X2X2X2X2X2X2X2X2X2X2X2X2X2X2X2X2X2X2X2X2X2X2X2X2X2X2X2X2X2X2X2X2X2X2X2X2X2X2X2X",
"2X2X2X2X2X2X2X2X2X2X2X2X2X2X2X2X2X2X2X2X2X2X2X2X2X2X2X2X2X2X2X2X2X2X2X2X2X2X2X2X2X2X2X2X2X2X2X2X2X2X",
"2X2X2X2X2X2X2X2X2X2X2X2X2X2X2X2X2X2X2X2X2X2X2X2X2X2X2X2X2X2X2X2X2X2X2X2X2X2X2X2X2X2X2X2X2X2X2X2X2X2X",
"2X2X2X2X2X2X2X2X2X2X2X2X2X2X2X2X2X2X2X2X2X2X2X2X2X2X2X2X2X2X2X2X2X2X2X2X2X2X2X2X2X2X2X2X2X2X2X2X2X2X",
"2X2X2X2X2X2X2X2X2X2X2X2X2X2X2X2X2X2X2X2X2X2X2X2X2X2X2X2X2X2X2X2X2X2X2X2X2X2X2X2X2X2X2X2X2X2X2X2X2X2X",
"2X2X2X2X2X2X2X2X2X2X2X2X2X2X2X2X2X2X2X2X2X2X2X2X2X2X2X2X2X2X2X2X2X2X2X2X2X2X2X2X2X2X2X2X2X2X2X2X2X2X",
"2X2X2X2X2X2X2X2X2X2X2X2X2X2X2X2X2X2X2X2X2X2X2X2X2X2X2X2X2X2X2X2X2X2X2X2X2X2X2X2X2X2X2X2X2X2X2X2X2X2X",
"2X2X2X2X2X2X2X2X2X2X2X2X2X2X2X2X2X2X2X2X2X2X2X2X2X2X2X2X2X2X2X2X2X2X2X2X2X2X2X2X2X2X2X2X2X2X2X2X2X2X",
"2X2X2X2X2X2X2X2X2X2X2X2X2X2X2X2X2X2X2X2X2X2X2X2X2X2X2X2X2X2X2X2X2X2X2X2X2X2X2X2X2X2X2X2X2X2X2X2X2X2X"
};
