/* XPM */
static char *result[] = {
/* columns rows colors chars-per-pixel */
"50 50 131 2 ",
"   c #835930",
".  c #835931",
"X  c #855B32",
"o  c #855B33",
"O  c #865C33",
"+  c #865C34",
"@  c #865D34",
"#  c #875D34",
"$  c #865D35",
"%  c #875D35",
"&  c #875E35",
"*  c #885E35",
"=  c #8A5F35",
"-  c #885E36",
";  c #895E36",
":  c #885F36",
">  c #895F36",
",  c #885F38",
"<  c #8A6036",
"1  c #8A6037",
"2  c #8E6236",
"3  c #886038",
"4  c #896038",
"5  c #896039",
"6  c #8B6138",
"7  c #8B6139",
"8  c #8B6239",
"9  c #8C6239",
"0  c #8C6339",
"q  c #8D633A",
"w  c #8D643B",
"e  c #8E653B",
"r  c #8F653C",
"t  c #8D653E",
"y  c #946737",
"u  c #966837",
"i  c #976937",
"p  c #986A37",
"a  c #90663C",
"s  c #90663D",
"d  c #90673D",
"f  c #91673D",
"g  c #90663E",
"h  c #90673E",
"j  c #91673E",
"k  c #92683E",
"l  c #93683E",
"z  c #92683F",
"x  c #92693F",
"c  c #9A6D3F",
"v  c #9D6F3F",
"b  c #936A40",
"n  c #946A40",
"m  c #956A41",
"M  c #946B41",
"N  c #956B42",
"B  c #966B42",
"V  c #966C42",
"C  c #966C43",
"Z  c #966D43",
"A  c #976D43",
"S  c #976D44",
"D  c #976E47",
"F  c #986E44",
"G  c #986D47",
"H  c #986F47",
"J  c #9A7046",
"K  c #9A7047",
"L  c #9B7047",
"P  c #9B7147",
"I  c #9E744A",
"U  c #AC7A40",
"Y  c #A0774D",
"T  c #A1774E",
"R  c #A2784E",
"E  c #A2794F",
"W  c #A3794F",
"Q  c #A37950",
"!  c #A07853",
"~  c #A37852",
"^  c #A27952",
"/  c #A27A52",
"(  c #A37A52",
")  c #A47A50",
"_  c #A47B50",
"`  c #A47A51",
"'  c #A57B51",
"]  c #A47B52",
"[  c #A57B53",
"{  c #A67C51",
"}  c #A57C52",
"|  c #A67C52",
" . c #A77C52",
".. c #A77D52",
"X. c #A67C53",
"o. c #A77D53",
"O. c #A27854",
"+. c #A47A54",
"@. c #A47A56",
"#. c #A57C54",
"$. c #A77D54",
"%. c #A77D55",
"&. c #A87B50",
"*. c #AB7E51",
"=. c #A87D52",
"-. c #A87D53",
";. c #A87E53",
":. c #A87E54",
">. c #A97E54",
",. c #A97F54",
"<. c #A97F55",
"1. c #E8BA3F",
"2. c #F5B53B",
"3. c #FFCD36",
"4. c #AC824F",
"5. c #B58B4D",
"6. c #B68E4C",
"7. c #B28350",
"8. c #C48D41",
"9. c #C58D48",
"0. c #CB9A47",
"q. c #D09442",
"w. c #D29642",
"e. c #D39742",
"r. c #D49842",
"t. c #D69942",
"y. c #D79A43",
"u. c #D29A47",
"i. c #D6AF44",
"p. c #E4A743",
"a. c None",
/* pixels */
"a.a.a.a.a.a.a.a.a.a.a.C N N N N N N N N N N N N N N N N N N N N N N N N N B m a.a.a.a.a.a.a.a.a.a.a.",
"a.a.a.a.a.a.a.a.a.a.a.6 1 6 1 1 1 1 1 1 1 1 1 1 1 1 1 1 1 1 1 1 1 1 1 1 6 1 1 a.a.a.a.a.a.a.a.a.a.a.",
"a.a.a.a.a.a.a.a.a.a.a.q 1 + * * * * * * * * * * * * * * * * * * * * * * @ 6 9 a.a.a.a.a.a.a.a.a.a.a.",
"a.a.a.a.a.a.a.a.a.a.a.q + S _ R E E E E E E E E E E E E E E E E E W R { a & 9 a.a.a.a.a.a.a.a.a.a.a.",
"a.a.a.a.a.a.a.a.a.a.a.q # L :.| o.o.o.o.o.o.o.o.o.o.o.o.o.o.o.o.o. .| <.z & 9 a.a.a.a.a.a.a.a.a.a.a.",
"a.a.a.a.a.a.a.a.a.a.a.q # K o.' Q T R R R R R R R R R R R R R R R ` ' :.k & 9 a.a.a.a.a.a.a.a.a.a.a.",
"a.a.a.a.a.a.a.a.a.a.a.q # K o.o.r   O o o o o o o o o o o o o O . F o.:.k & 9 a.a.a.a.a.a.a.a.a.a.a.",
"a.a.a.a.a.a.a.a.a.a.a.q # K o.| f 1 q 9 9 9 9 9 9 9 9 9 9 9 9 q < A o.:.k & 9 a.a.a.a.a.a.a.a.a.a.a.",
"a.a.a.a.a.a.a.a.a.a.a.q # K o.| d > 9 6 6 6 6 6 6 6 6 6 6 6 6 9 > A o.:.k & 9 a.a.a.a.a.a.a.a.a.a.a.",
"a.a.a.a.a.a.a.a.a.a.a.q # K o.| d > 9 6 9 9 9 9 9 9 9 9 9 9 6 9 > A o.:.k & 9 a.a.a.a.a.a.a.a.a.a.a.",
"a.a.a.a.a.a.a.a.a.a.a.q # K o.| d > 9 6 9 9 9 9 9 9 9 9 9 9 6 9 > A o.:.k & 9 a.a.a.a.a.a.a.a.a.a.a.",
"a.a.a.a.a.a.a.a.a.a.a.q # K o.| d > 9 6 9 9 9 9 9 9 9 9 9 9 6 9 > A :.] 8.y 5 a.a.a.a.a.a.a.a.a.a.a.",
"a.a.a.a.a.a.a.a.a.a.a.q # K o.| d > 9 6 9 9 9 9 9 9 9 9 9 9 6 9 > A :.^ t.p , a.a.a.a.a.a.a.a.a.a.a.",
"a.a.a.a.a.a.a.a.a.a.a.q # K o.| d > 9 6 9 9 9 9 9 9 9 9 9 9 6 9 > A :.( e.i 3 a.a.a.a.a.a.a.a.a.a.a.",
"a.a.a.a.a.a.a.a.a.a.a.q # K o.| d > 9 6 9 9 9 9 9 9 9 9 9 9 6 9 > A :.( e.i 3 a.a.a.a.a.a.a.a.a.a.a.",
"a.a.a.a.a.a.a.a.a.a.a.q # K o.| d > 9 6 9 9 9 9 9 9 9 9 9 9 6 9 > A :.^ y.p , a.a.a.a.a.a.a.a.a.a.a.",
"a.a.a.a.a.a.a.a.a.a.a.q # K o.| d > 9 6 9 9 9 9 9 9 9 9 9 9 6 9 > A ;.X.U 2 7 a.a.a.a.a.a.a.a.a.a.a.",
"a.a.a.a.a.a.a.a.a.a.a.q # K o.| d > 9 6 9 9 9 9 9 9 9 9 9 9 6 9 > A o.:.t $ 0 a.a.a.a.a.a.a.a.a.a.a.",
"a.a.a.a.a.a.a.a.a.a.a.q # K o.| d > 9 6 9 9 9 9 9 9 9 9 9 9 6 9 > A o.:.l * 9 a.a.a.a.a.a.a.a.a.a.a.",
"a.a.a.a.a.a.a.a.a.a.a.q # K o.| d > 9 6 9 9 9 9 9 9 9 9 9 9 6 9 > A o.:.k & 9 a.a.a.a.a.a.a.a.a.a.a.",
"a.a.a.a.a.a.a.a.a.a.a.q # K o.| d > 9 6 9 9 9 9 9 9 9 9 9 9 6 9 > A o.:.k & 9 a.a.a.a.a.a.a.a.a.a.a.",
"a.a.a.a.a.a.a.a.a.a.a.q # K o.| d > 9 6 9 9 9 9 9 9 9 9 9 9 6 9 > A o.:.k & 9 a.a.a.a.a.a.a.a.a.a.a.",
"a.a.a.a.a.a.a.a.a.a.a.q # K o.| d > 9 6 9 9 9 9 9 9 9 9 9 9 6 9 > A o.:.k & 9 a.a.a.a.a.a.a.a.a.a.a.",
"a.a.a.a.a.a.a.a.a.a.a.q # K o.| d > 9 6 9 9 9 9 9 9 9 9 9 9 6 9 > A o.:.k & 9 a.a.a.a.a.a.a.a.a.a.a.",
"a.a.a.a.a.a.a.a.a.a.a.q # K o.| d > 9 6 6 6 6 6 6 6 6 6 6 6 6 9 > A o.:.k & 9 a.a.a.a.a.a.a.a.a.a.a.",
"a.a.a.a.a.a.a.a.a.a.a.q # K o.| j 1 q 9 9 9 9 9 9 9 9 9 9 9 9 q 1 A o.:.k & 9 a.a.a.a.a.a.a.a.a.a.a.",
"a.a.a.a.a.a.a.a.a.a.a.q # K o...e X : * * * * * * * * * * * * - X V o.:.k & 9 a.a.a.a.a.a.a.a.a.a.a.",
"a.a.a.a.a.a.a.a.a.a.a.q # K o.} J x n b b b b b b b b b b b b b x I | :.k & 9 a.a.a.a.a.a.a.a.a.a.a.",
"a.a.a.a.a.a.a.a.a.a.a.q # K o.&.+.@.%.,.:.:.:.:.:.:.:.:.:.:.:.:.,.o.' >.k & 9 a.a.a.a.a.a.a.a.a.a.a.",
"a.a.a.a.a.a.a.a.a.a.a.q # D u.2.0.6.4.` ' ' ' ' ' ' ' ' ' ' ' ' ' ' ' >.k & 9 a.a.a.a.a.a.a.a.a.a.a.",
"a.a.a.a.a.a.a.a.a.a.a.q # G p.3.1.i.5.~ { ' ' ' ' ' ' ' ' ' ' ' ' ' ' >.k & 9 a.a.a.a.a.a.a.a.a.a.a.",
"a.a.a.a.a.a.a.a.a.a.a.q # H 7.9.*.O.[ o.o.o.o.o.o.o.o.o.o.o.o.o.o.| ' >.k * 9 a.a.a.a.a.a.a.a.a.a.a.",
"a.a.a.a.a.a.a.a.a.a.a.q # L #.! Y I I I I I I I I I I I I I I I I W ' >.h % 9 a.a.a.a.a.a.a.a.a.a.a.",
"a.a.a.a.a.a.a.a.a.a.a.q # K -.=.s O > > > > > > > > > > > > > > O S o.$.c = 9 a.a.a.a.a.a.a.a.a.a.a.",
"a.a.a.a.a.a.a.a.a.a.a.q # K o.| f 1 9 9 9 9 9 9 9 9 9 9 9 9 9 q > A :.( q.u 4 a.a.a.a.a.a.a.a.a.a.a.",
"a.a.a.a.a.a.a.a.a.a.a.q # K o.| d > 9 6 6 6 6 6 6 6 6 6 6 6 6 9 > A :./ r.i , a.a.a.a.a.a.a.a.a.a.a.",
"a.a.a.a.a.a.a.a.a.a.a.q # K o.| d > 9 6 9 9 9 9 9 9 9 9 9 9 6 9 > A :.( e.i 3 a.a.a.a.a.a.a.a.a.a.a.",
"a.a.a.a.a.a.a.a.a.a.a.q # K o.| d > 9 6 9 9 9 9 9 9 9 9 9 9 6 9 > A :./ r.i , a.a.a.a.a.a.a.a.a.a.a.",
"a.a.a.a.a.a.a.a.a.a.a.q # K o.| d > 9 6 9 9 9 9 9 9 9 9 9 9 6 9 > A :.( w.i 3 a.a.a.a.a.a.a.a.a.a.a.",
"a.a.a.a.a.a.a.a.a.a.a.q # K o.| d > 9 6 9 9 9 9 9 9 9 9 9 9 6 9 > A o.$.v = 9 a.a.a.a.a.a.a.a.a.a.a.",
"a.a.a.a.a.a.a.a.a.a.a.q # K o.| d > 9 6 9 9 9 9 9 9 9 9 9 9 6 9 > A o.:.g % 9 a.a.a.a.a.a.a.a.a.a.a.",
"a.a.a.a.a.a.a.a.a.a.a.q # K o.| d > 9 6 9 9 9 9 9 9 9 9 9 9 6 9 > A o.:.k * 9 a.a.a.a.a.a.a.a.a.a.a.",
"a.a.a.a.a.a.a.a.a.a.a.q # K o.| d > 9 6 9 9 9 9 9 9 9 9 9 9 6 9 > A o.:.k & 9 a.a.a.a.a.a.a.a.a.a.a.",
"a.a.a.a.a.a.a.a.a.a.a.q # K o.| d > 9 6 9 9 9 9 9 9 9 9 9 9 6 9 > A o.:.k & 9 a.a.a.a.a.a.a.a.a.a.a.",
"a.a.a.a.a.a.a.a.a.a.a.q # K o.| j > 9 9 9 9 9 9 9 9 9 9 9 9 9 9 > A o.:.k & 9 a.a.a.a.a.a.a.a.a.a.a.",
"a.a.a.a.a.a.a.a.a.a.a.q # K o.| s ; 9 6 6 6 6 6 6 6 6 6 6 6 6 9 * Z o.:.k & 9 a.a.a.a.a.a.a.a.a.a.a.",
"a.a.a.a.a.a.a.a.a.a.a.q # K o.| M 8 w w w w w w w w w w w w w w 8 P o.:.k & 9 a.a.a.a.a.a.a.a.a.a.a.",
"a.a.a.a.a.a.a.a.a.a.a.q # K o.' ' ) ) ) ) ) ) ) ) ) ) ) ) ) ) ) ` | ' >.k & 9 a.a.a.a.a.a.a.a.a.a.a.",
"a.a.a.a.a.a.a.a.a.a.a.q # K o.' | | | | | | | | | | | | | | | | | ' ' >.k & 9 a.a.a.a.a.a.a.a.a.a.a.",
"a.a.a.a.a.a.a.a.a.a.a.q # K o.' ' ' ' ' ' ' ' ' ' ' ' ' ' ' ' ' ' ' ' >.k & 9 a.a.a.a.a.a.a.a.a.a.a."
};
