/* XPM */
static char *result[] = {
/* columns rows colors chars-per-pixel */
"50 50 119 2 ",
"   c #6F4720",
".  c #704720",
"X  c #714720",
"o  c #845A32",
"O  c #855C33",
"+  c #865C33",
"@  c #865D33",
"#  c #855D35",
"$  c #865C34",
"%  c #875D35",
"&  c #885E35",
"*  c #885E36",
"=  c #895E36",
"-  c #895F36",
";  c #896036",
":  c #8A6037",
">  c #8E6237",
",  c #896038",
"<  c #8A6038",
"1  c #8A6138",
"2  c #8B6138",
"3  c #8B6238",
"4  c #8C6239",
"5  c #8D6239",
"6  c #8C6339",
"7  c #8D633A",
"8  c #8E643A",
"9  c #8E643B",
"0  c #8F653C",
"q  c #8C643E",
"w  c #90663D",
"e  c #90673E",
"r  c #91673E",
"t  c #92683E",
"y  c #92683F",
"u  c #93683F",
"i  c #93693F",
"p  c #95693F",
"a  c #816447",
"s  c #8E6D4C",
"d  c #916840",
"f  c #936940",
"g  c #936A40",
"h  c #946940",
"j  c #946A40",
"k  c #946A41",
"l  c #946B42",
"z  c #956C42",
"x  c #966C43",
"c  c #976D43",
"v  c #976D44",
"b  c #986E43",
"n  c #986E44",
"m  c #9A7045",
"M  c #9A7047",
"N  c #9B7147",
"B  c #9B7148",
"V  c #9C7148",
"C  c #9D7148",
"Z  c #9C7149",
"A  c #9D7149",
"S  c #9C7248",
"D  c #9D7248",
"F  c #9D7249",
"G  c #9C7349",
"H  c #9D7349",
"J  c #9E7248",
"K  c #9F7348",
"L  c #9D734A",
"P  c #99724C",
"I  c #9E754C",
"U  c #A0754B",
"Y  c #A0764C",
"T  c #A1774D",
"R  c #A1774E",
"E  c #A2784E",
"W  c #A3794F",
"Q  c #A07656",
"!  c #A17756",
"~  c #A17850",
"^  c #A47A50",
"/  c #A47A51",
"(  c #A57B51",
")  c #A67B51",
"_  c #A67B52",
"`  c #A77D50",
"'  c #A67C52",
"]  c #A77D53",
"[  c #A57C54",
"{  c #A67C54",
"}  c #A77E56",
"|  c #A97B51",
" . c #A87D52",
".. c #A87D53",
"X. c #A87E53",
"o. c #AD7D50",
"O. c #A87E54",
"+. c #A97F54",
"@. c #A97F55",
"#. c #E8B53E",
"$. c #EAB63E",
"%. c #F6B63F",
"&. c #B78446",
"*. c #B88446",
"=. c #BA8646",
"-. c #BC8746",
";. c #BD8746",
":. c #BD8846",
">. c #BE8846",
",. c #BF8846",
"<. c #BF984A",
"1. c #AB8156",
"2. c #AB8157",
"3. c #AC8257",
"4. c #B48451",
"5. c #B78550",
"6. c #C49C48",
"7. c #F4B540",
"8. c None",
/* pixels */
"8.8.8.8.8.8.8.8.8.8.8.8.8.8.8.8.8.8.8.8.8.8.8.8.8.8.8.8.8.8.8.8.8.8.8.8.8.8.8.8.8.8.8.8.8.8.8.8.8.8.",
"8.8.8.8.8.8.8.t 4 7 7 7 7 7 7 7 7 7 7 7 7 7 7 7 7 7 7 7 7 7 7 7 > s 8.8.8.8.8.8.8.8.( ( ( @.f X 8.8.",
"8.8.8.8.8.8.8.w < 2 1 1 1 1 1 1 1 1 1 1 1 1 1 1 1 1 1 1 1 1 1 , # a 8.8.( ( ( ( ( ( ( ( ( +.f X 8.8.",
"8.8.8.8.8.8.8.r : o 8.8.8.8.8.8.8.8.8.8.8.8.8.8.8.8.8.8.8.8.8.q P ~ / ( ( ' ' ' ] O.O.] ( +.f X 8.8.",
"8.8.8.8.8.8.8.r : o 8.8.8.8.8.8.8.8.8.8.8.8.8.8.8.8.8.8.8.8.8.U  ...O.O.] ( W R S c k 0 n 1.u X 8.8.",
"8.8.8.8.8.8.8.r : o 8.8.8.8.8.8.8.8.8.8.8.8.8.8.8.8.8.8.8.8.8.V ' Y v k r 8 - & - - - + f 2.y X 8.8.",
"8.8.8.8.8.8.8.r : o 8.8.8.8.8.8.8.8.8.8.8.8.8.8.8.8.8.8.8.8.8.V ] y @ * - 2 4 4 4 4 7 - k 2.y X 8.8.",
"8.8.8.8.8.8.8.r : o 8.8.8.8.8.8.8.8.8.8.8.8.8.8.8.8.8.8.8.8.8.V ] g : 7 4 4 2 2 2 2 4 & k 2.y X 8.8.",
"8.8.8.8.8.8.8.r : o 8.8.8.8.8.8.8.8.8.8.8.8.8.8.8.8.8.8.8.8.8.C ] f - 4 2 2 4 2 3 2 4 & k 2.y X 8.8.",
"8.8.8.8.8.8.8.r : o 8.8.8.8.8.8.8.8.8.8.8.8.8.8.8.8.8.8.8.8.8.V ] f - 4 2 4 4 4 4 2 4 & k 2.y X 8.8.",
"8.8.8.8.8.8.8.r : o 8.8.8.8.8.8.8.8.8.8.8.8.8.8.8.8.8.8.8.8.8.K ] f - 4 2 4 4 4 4 2 4 & k 2.y X 8.8.",
"8.8.8.8.8.8.8.r : o 8.8.8.8.8.8.8.8.8.8.8.8.8.8.8.8.8.8.8.8.8.-.[ g - 4 2 4 4 4 4 2 4 & k 2.y X 8.8.",
"8.8.8.8.8.8.8.r : o 8.8.8.8.8.8.8.8.8.8.8.8.8.8.8.8.8.8.8.8.8.>.[ g - 4 2 4 4 4 4 2 4 & k 2.y X 8.8.",
"8.8.8.8.8.8.8.r : o 8.8.8.8.8.8.8.8.8.8.8.8.8.8.8.8.8.8.8.8.8.:.[ g - 4 2 4 4 4 4 2 4 & k 2.y X 8.8.",
"8.8.8.8.8.8.8.r : o 8.8.8.8.8.8.8.8.8.8.8.8.8.8.8.8.8.8.8.8.8.,.[ g - 4 2 4 4 4 4 2 4 & k 2.y X 8.8.",
"8.8.8.8.8.8.8.r : o 8.8.8.8.8.8.8.8.8.8.8.8.8.8.8.8.8.8.8.8.8.&.{ g - 4 2 4 4 4 4 2 4 & k 2.y X 8.8.",
"8.8.8.8.8.8.8.r : o 8.8.8.8.8.8.8.8.8.8.8.8.8.8.8.8.8.8.8.8.8.V ] f - 4 2 4 4 4 4 2 4 & k 2.y X 8.8.",
"8.8.8.8.8.8.8.r : o 8.8.8.8.8.8.8.8.8.8.8.8.8.8.8.8.8.8.8.8.8.V ] f - 4 2 4 4 4 4 2 4 & k 2.y X 8.8.",
"8.8.8.8.8.8.8.r : o 8.8.8.8.8.8.8.8.8.8.8.8.8.8.8.8.8.8.8.8.8.C ] f - 4 2 4 4 4 4 2 4 & k 2.y X 8.8.",
"8.8.8.8.8.8.8.r : o 8.8.8.8.8.8.8.8.8.8.8.8.8.8.8.8.8.8.8.8.8.V ] f - 4 2 4 4 4 4 2 4 & k 2.y X 8.8.",
"8.8.8.8.8.8.8.r : o 8.8.8.8.8.8.8.8.8.8.8.8.8.8.8.8.8.8.8.8.8.V ] f - 4 2 4 4 4 4 2 4 & k 2.y X 8.8.",
"8.8.8.8.8.8.8.r : o 8.8.8.8.8.8.8.8.8.8.8.8.8.8.8.8.8.8.8.8.8.V ] f - 4 2 4 4 4 4 2 4 & k 2.y X 8.8.",
"8.8.8.8.8.8.8.r : o 8.8.8.8.8.8.8.8.8.8.8.8.8.8.8.8.8.8.8.8.8.V ] f - 4 2 4 4 4 4 2 4 & k 2.y X 8.8.",
"8.8.8.8.8.8.8.r : o 8.8.8.8.8.8.8.8.8.8.8.8.8.8.8.8.8.8.8.8.8.V ] f - 4 2 2 2 2 2 2 4 & k 2.y X 8.8.",
"8.8.8.8.8.8.8.r : o 8.8.8.8.8.8.8.8.8.8.8.8.8.8.8.8.8.8.8.8.8.V ] g : 5 4 4 4 4 4 4 7 - k 2.y X 8.8.",
"8.8.8.8.8.8.8.r : o 8.8.8.8.8.8.8.8.8.8.8.8.8.8.8.8.8.8.8.8.8.V ] y + - = - - - - - : $ j 3.y X 8.8.",
"8.8.8.8.8.8.8.r : o 8.8.8.8.8.8.8.8.8.8.8.8.8.8.8.8.8.8.8.8.8.F ' T G H G S S B N M M m I } i X 8.8.",
"8.8.8.8.8.8.8.r : o 8.8.8.8.8.8.8.8.8.8.8.8.8.8.8.8.8.8.8.8.8.F ( ' ] ] ] ] ] ] ] ] ..Q o.5.d X 8.8.",
"8.8.8.8.8.8.8.r : o 8.8.8.8.8.8.8.8.8.8.8.8.8.8.8.8.8.8.8.8.8.F _ ( ( ( ( ( ( ( ( ( ` 6.$.%.p . 8.8.",
"8.8.8.8.8.8.8.r : o 8.8.8.8.8.8.8.8.8.8.8.8.8.8.8.8.8.8.8.8.8.F ( ' ' ( ( ( ( ( ( ( ) <.#.7.p   8.8.",
"8.8.8.8.8.8.8.r : o 8.8.8.8.8.8.8.8.8.8.8.8.8.8.8.8.8.8.8.8.8.Z ' ( ( ' ] ] O.O.O.O.O.! | 4.d X 8.8.",
"8.8.8.8.8.8.8.r : o 8.8.8.8.8.8.8.8.8.8.8.8.8.8.8.8.8.8.8.8.8.J ] c 6 w e t f f j l x b I } i X 8.8.",
"8.8.8.8.8.8.8.r : o 8.8.8.8.8.8.8.8.8.8.8.8.8.8.8.8.8.8.8.8.8.=.[ i & : - - & & & & - + h 3.y X 8.8.",
"8.8.8.8.8.8.8.r : o 8.8.8.8.8.8.8.8.8.8.8.8.8.8.8.8.8.8.8.8.8.>.[ g ; 4 4 4 4 4 4 4 7 - k 2.y X 8.8.",
"8.8.8.8.8.8.8.r : o 8.8.8.8.8.8.8.8.8.8.8.8.8.8.8.8.8.8.8.8.8.;.[ g - 4 2 2 2 2 2 2 4 & k 2.y X 8.8.",
"8.8.8.8.8.8.8.r : o 8.8.8.8.8.8.8.8.8.8.8.8.8.8.8.8.8.8.8.8.8.,.[ g - 4 2 4 4 4 4 2 4 & k 2.y X 8.8.",
"8.8.8.8.8.8.8.r : o 8.8.8.8.8.8.8.8.8.8.8.8.8.8.8.8.8.8.8.8.8.*.{ g - 4 2 4 4 4 4 2 4 & k 2.y X 8.8.",
"8.8.8.8.8.8.8.r : o 8.8.8.8.8.8.8.8.8.8.8.8.8.8.8.8.8.8.8.8.8.D ] f - 4 2 4 4 4 4 2 4 & k 2.y X 8.8.",
"8.8.8.8.8.8.8.r : o 8.8.8.8.8.8.8.8.8.8.8.8.8.8.8.8.8.8.8.8.8.V ] f - 4 2 4 4 4 4 2 4 & k 2.y X 8.8.",
"8.8.8.8.8.8.8.r : o 8.8.8.8.8.8.8.8.8.8.8.8.8.8.8.8.8.8.8.8.8.C ] f - 4 2 4 4 4 4 2 4 & k 2.y X 8.8.",
"8.8.8.8.8.8.8.r : o 8.8.8.8.8.8.8.8.8.8.8.8.8.8.8.8.8.8.8.8.8.V ] f - 4 2 4 4 4 4 2 4 & k 2.y X 8.8.",
"8.8.8.8.8.8.8.r : o 8.8.8.8.8.8.8.8.8.8.8.8.8.8.8.8.8.8.8.8.8.V ] f - 4 2 4 2 2 4 2 4 & k 2.y X 8.8.",
"8.8.8.8.8.8.8.r : o 8.8.8.8.8.8.8.8.8.8.8.8.8.8.8.8.8.8.8.8.8.V ] g : 7 4 2 2 2 2 2 4 & k 2.y X 8.8.",
"8.8.8.8.8.8.8.r : o 8.8.8.8.8.8.8.8.8.8.8.8.8.8.8.8.8.8.8.8.8.V ] y O - : 4 4 4 4 4 7 * k 2.y X 8.8.",
"8.8.8.8.8.8.8.r : o 8.8.8.8.8.8.8.8.8.8.8.8.8.8.8.8.8.8.8.8.8.A ' L f y 9 : & - - & : % j 2.y X 8.8.",
"8.8.8.8.8.8.8.r : o 8.8.8.8.8.8.8.8.8.8.8.8.8.8.8.8.8.8.8.8.8.F ( ] +.X.( W E L c k y 2 z 2.y X 8.8.",
"8.8.8.8.8.8.8.r : o 8.8.8.8.8.8.8.8.8.8.8.8.8.8.8.8.8.8.8.8.8.F _ ( ( ( ' ' ' ] O.O.] ^ ^ @.f X 8.8.",
"8.8.8.8.8.8.8.8.8.8.8.8.8.8.8.8.8.8.8.8.8.8.8.8.8.8.8.8.8.8.8.8.8.8.( ( ( ( ( ( ( ( ( ' ( +.f X 8.8.",
"8.8.8.8.8.8.8.8.8.8.8.8.8.8.8.8.8.8.8.8.8.8.8.8.8.8.8.8.8.8.8.8.8.8.8.8.8.8.8.8.( _ ( ( ( @.f X 8.8.",
"8.8.8.8.8.8.8.8.8.8.8.8.8.8.8.8.8.8.8.8.8.8.8.8.8.8.8.8.8.8.8.8.8.8.8.8.8.8.8.8.8.8.8.8.8.8.8.8.8.8."
};
