/* XPM */
static char *result[] = {
/* columns rows colors chars-per-pixel */
"50 50 222 2 ",
"   c #0B0B0D",
".  c #060708",
"X  c #0E0D14",
"o  c #100F16",
"O  c #100F18",
"+  c #111116",
"@  c #14131A",
"#  c #18171E",
"$  c #19181F",
"%  c #1C1B23",
"&  c #1F1D28",
"*  c #191721",
"=  c #201F26",
"-  c #211F2A",
";  c #222127",
":  c #222229",
">  c #2B2B35",
",  c #2A2C3A",
"<  c #262936",
"1  c #2D313C",
"2  c #33333C",
"3  c #38373F",
"4  c #372F31",
"5  c #4A2A1C",
"6  c #572B1B",
"7  c #6D3516",
"8  c #4D2A23",
"9  c #482725",
"0  c #532D22",
"q  c #5A2E22",
"w  c #5C3126",
"e  c #553128",
"r  c #5B3C36",
"t  c #5C3E3A",
"y  c #4F3C38",
"u  c #653A28",
"i  c #6E3E2C",
"p  c #7C421A",
"a  c #5D413D",
"s  c #6E412A",
"d  c #7A4628",
"f  c #61423C",
"g  c #6A4536",
"h  c #784A36",
"j  c #7D553D",
"k  c #353443",
"l  c #393946",
"z  c #3B3C4C",
"x  c #373946",
"c  c #3E3E50",
"v  c #2B3241",
"b  c #443E47",
"n  c #413F51",
"m  c #3C4149",
"M  c #3D4154",
"N  c #42434E",
"B  c #47454C",
"V  c #594949",
"C  c #444451",
"Z  c #4A4753",
"A  c #4A4954",
"S  c #434659",
"D  c #464A5C",
"F  c #4C4C5A",
"G  c #454853",
"H  c #544D5B",
"J  c #584A55",
"K  c #4D545B",
"L  c #4C5256",
"P  c #52525D",
"I  c #5B535C",
"U  c #5B5156",
"Y  c #634341",
"T  c #674A45",
"R  c #764E44",
"E  c #6C544C",
"W  c #745245",
"Q  c #785549",
"!  c #604F56",
"~  c #6C5A5C",
"^  c #685557",
"/  c #7A5C51",
"(  c #765B56",
")  c #7C615B",
"_  c #4B4F62",
"`  c #4D5267",
"'  c #545463",
"]  c #5B5564",
"[  c #5A5B65",
"{  c #53556B",
"}  c #5A5669",
"|  c #56596D",
" . c #5B5B6C",
".. c #565B65",
"X. c #565A71",
"o. c #5B5E74",
"O. c #565873",
"+. c #695B64",
"@. c #635D6C",
"#. c #655764",
"$. c #635D72",
"%. c #785F63",
"&. c #596267",
"*. c #5C6076",
"=. c #66636A",
"-. c #776468",
";. c #616273",
":. c #65657A",
">. c #696979",
",. c #726873",
"<. c #6B757A",
"1. c #6C797C",
"2. c #697375",
"3. c #854B2B",
"4. c #8C4D2A",
"5. c #864A25",
"6. c #904E2A",
"7. c #8D522E",
"8. c #93532B",
"9. c #9B562D",
"0. c #864E33",
"q. c #8D5332",
"w. c #8B543A",
"e. c #88553A",
"r. c #935533",
"t. c #945A35",
"y. c #9C5B35",
"u. c #945B3B",
"i. c #9B5D3A",
"p. c #985739",
"a. c #A35D34",
"s. c #A45E39",
"d. c #9E633D",
"f. c #AA6335",
"g. c #A4623B",
"h. c #AB643B",
"j. c #AD683C",
"k. c #A46236",
"l. c #B1663C",
"z. c #B46A3D",
"x. c #B96E3E",
"c. c #BA6739",
"v. c #BC713C",
"b. c #A6602E",
"n. c #8D5C46",
"m. c #8C5C4A",
"M. c #855946",
"N. c #955D43",
"B. c #985E44",
"V. c #804E45",
"C. c #A15F43",
"Z. c #8E624C",
"A. c #98654A",
"S. c #856153",
"D. c #8B6353",
"F. c #88665B",
"G. c #976854",
"H. c #A36442",
"J. c #AD6A42",
"K. c #A96A46",
"L. c #B36C43",
"P. c #B36B45",
"I. c #B47144",
"U. c #BC7344",
"Y. c #BC744A",
"T. c #B8744C",
"R. c #A56E54",
"E. c #B77552",
"W. c #8D6F6D",
"Q. c #A57A69",
"!. c #C27443",
"~. c #C2774B",
"^. c #C4794D",
"/. c #C77B4A",
"(. c #C47D53",
"). c #C97D52",
"_. c #C26F40",
"`. c #CB8053",
"'. c #C88058",
"]. c #CE8252",
"[. c #6B6B83",
"{. c #737982",
"}. c #6E7B81",
"|. c #7B8A8D",
" X c #778488",
".X c #7E8F91",
"XX c #828E91",
"oX c #8B8F9A",
"OX c #839294",
"+X c #849499",
"@X c #8B959B",
"#X c #8B9B9D",
"$X c #89999B",
"%X c #909D9F",
"&X c #828E8F",
"*X c #8C9BA0",
"=X c #929EA3",
"-X c #8DA1A2",
";X c #94A2A4",
":X c #95A6A9",
">X c #9AA6AA",
",X c #9BABAD",
"<X c #98A8AA",
"1X c #9DADB1",
"2X c #9FB0B0",
"3X c #A2ACAE",
"4X c #A1AEB1",
"5X c #A3B3B4",
"6X c #A9B5B5",
"7X c #A9B6BA",
"8X c #ABBABC",
"9X c #A5B7BA",
"0X c #B0BBBC",
"qX c #ACBCC0",
"wX c #B3BEC3",
"eX c #AFC1C2",
"rX c #B3C2C4",
"tX c #BBCACC",
"yX c #B9C5C9",
"uX c #BECED2",
"iX c #C6D3D6",
"pX c None",
/* pixels */
"pXpXpXpXpXpXpXpXpXpXpXpXpXpXpXpXpXpXpXpXpXpXpXpXpXpXpXpXpXpXpXpXpXpXpXpXpXpXpXpXpXpXpXpXpXpXpXpXpXpX",
"pXpXpXpXpXpXpXpXpXpXpXpXpXpXpXpXpXpXpXpXpXpXpXpXpXpXpXpXpXpXpXpXpXpXpXpXpXpXpXpXpXpXpXpXpXpXpXpXpXpX",
"pXpXpXpXpXpXpXpXpXpXpXpXpXpXpXpXpXpXpXpXpXpXpXpXpXpXpX@X&XrX0X0XrX0X3XpXpXpXpXpXpXpXpXpXpXpXpXpXpXpX",
"pXpXpXpXpXpXpXpXpXpXpXpXpXpXpXpXpXpXpXpXpXpXpXpXpX6X,X>X,X6XtXtXiXiX%X;X7XpXpXpXpXpXpXpXpXpXpXpXpXpX",
"pXpXpXpXpXpXpXpXpXpXpXpXpXpXpXpXpXpXpXpXpXpXwXyX$X<X:X$X8X5X,X,X6X6X6XrX3XOX8X3XpXpXpXpXpXpXpXpXpXpX",
"pXpXpXpXpXpXpXpXpXpXpXpXpXpXpXpXpXpXpXpX;X@X7XiXOX$X8X,X8XrX;X%X6XeXrXtX=X2X0X8X6X6XpXpXpXpXpXpXpXpX",
"pXpXpXF pXpXpXpXpXpXpXpXpXpXpXpXpXpX@X2.%X,X,X;X,X#X8X;X XK 1 3 &.|.7XrX@X8X,X<X3X;X2.pXpXpXpXpXpXpX",
"pX[.>.D S F F pXpXpXpXpXpXpXpXpXpX5X0X1. X=X+X1X8X&.m 2 1 B P P M 1 x B <.rX,X.X>X2.%XtX,XpXpXpXpXpX",
"pX[.:.D ! @.o.O.' pXpXpXpXpXpXpX3X,X4XqX|.>X,XOXB , N I P N > m ' ^ I M , ..;X9X*X|.uXtX1X5XpXpXpXpX",
"pX:.;.{ T s.G.,.$.o.} pXpXpXpX3X>X>X*X=X>X@X&.1 B P m > % % $ z Z 6 s / +.m 3 <..X1X1X$XqX8X2XpXpXpX",
"pX;.;.{ b f.U.h./ ,.:.} pXpX@X@X*X5X,X*XoXx 3 P m : % % % % $ M } 6 i 5.N./ I v K rX:X+X<X2X6XpXpXpX",
"pX&.;.` t a.F.B.6.J.F.:.| pX&. XwX7XyX#X2 B P < = ; = % % $ + N ! 6 i -./ 8.G.+.z M |.:X%X5X X2.pXpX",
"pX .=.` t k.W.R.r._.b.A.,. .2.}. XqX+X, G A = % ; % % % # @ + z ] q 5.Q.u.k.U.w.U N G ;X1X1.1.8X5XpX",
"pX[ *.o.V h.~.P.r.Y.P.l.d =.O.@X+X2., C C % = % % $ * @ @ +   n o.q q./.f.g.~.6.h ~ l m  X.X*X|.#X3X",
"pXP o.X.t h.).U.r.Y.Y.P.d H.-.| 6XB 2 G = & % % $ $ @ @ + o   n $.w 7.^.k.j.~.q.r.K.I < &.9X:X:X9X9X",
"pXP *. .f l.).Y.r.Y.Y.x.d h.H.#.K 2 A : % % % % @ @ @ + o o   z @.w r.].g.K.(.q.t.U.W N m -X$X$X<X2X",
"pXH o.| t h.).~.u.~.!.U.d J.f.W S N 3 = % % % % @ @ + O O X . z #.w p.).J.P.).q.r._.3.J 2 {.,X-X-X2X",
"pXH  .o.Y P.(.~.t.T.!.U.i P.x.h ] m - = & * @ @ @ + + O O X . z @.q p.).P.J.~.h V S.3.h N L 2X:X1X8X",
"pXF  .O.Y P.).~.q.T.!.M.V ( g.q.~ z = = % * * @ @ O X X X X . z $.0 i.`.K.J.P.~ ] H V 9.U 1 OX9X2X8X",
"pXZ } O.Y l.).~.0.Y.T.} H H E 7.~ z ; % % * @ @ O O X X . X . x  .0 s.).P.h.P./ D.C.#.A.Q 1 L ;X@X#X",
"pXG  .X.t P.).).5.!./.D.h u.U N.( m ; % % * @ O X o X X X   . x @.0 i.(.A.A.K.e.B.T.~ S.E v 2 ;X>X>X",
"pXZ  .o.t P.(.R.W D.R.G.W A.+.-.I c % % % @ @ O O o X X X . . x  .0 w.-.O.| X.;.@.$.>.O.{ < B rXtX8X",
"pXZ  .X.Y P.R.$.| { |  . .;.:.' | m % % * @ @ O O O X X X   . z #.0 B.G.( M.Z.W / Z.+.@.-.v Z 8XeX2X",
"pXN  .X.t P.^.R.g B.A.R.R m.~ -.%.z = % * @ + @ O O X X X X   z  .w s.`.J.L./.e.A.j.^ G.N.< A qX:X%X",
"pXB | { a z.(.Y.3.U.Y.G.h e.I u.m.l = # $ @ @ o O o X O X X . z  .w a.).J.L.!.~ ~ V U J.u.< ' ,X+X:X",
"pXZ  .*.a z.).Y.0.T.I.#.J P ^ 5.G.l % % * # @ @ + + O O X X   z { u p.).H.L.^.R H #.w.l.n.< &.$X|.,X",
"pXZ  .O.t l.).K.3.J.P.m.J ) d.7.A.l = $ = @ @ o + @ O O X X   l } w r.~.m.R.).w.t.z.h.L.n.> K 1.1.%X",
"pXB  .{ t J.Q.,.h k.j.^.7.J.f.7.D.k = % * # @ @ @ + + O X X   z  .0 4.n.[.W.(.u.h.U.j.x.n.1 >  X&XOX",
"pXZ  .O.t h.W.o.g J.J.^.u.I.g.t.Z.k % % * $ # @ @ @ @ @ X X   l } 0 6.N.o.-.(.y.g.I.I.x.Z.: &.tXrXrX",
"pXZ | O.t l.S.} i j.I.Y.u.L.g.t.Z.l = % % $ # @ + @ o o o o o k ' 6 q.R ] E K.a.d.U.L.z.j < &.eXrXrX",
"pXZ  .` i V.R m.V N.Y.Y.t.P.h.t.D.k = % % $ # @ @ + @ o o o   l @.5 r F.C.s Q i.k.U.L.c.Z.< =.8X8X2X",
"pXZ | ` Y Y m.U.a n.~.U.y.P.h.t.Z.k % % $ $ # @ @ @ @ @ o o   k ' 5 i G.c.i ^ i.y.U.I.z.Q : 2.tX:X-X",
"pXA  .{ f u.T R T g.Y.U.0.H.z.3.Z.v % % % $ # @ @ @ @ @ + o + 3 Z 5 6.( Y b R.a.a.U.P.c.Q < <.rX,X5X",
"pXA | { t l.E.Q 0.U.U.M.H ~ B.4.m., % % % $ $ # @ @ @ + + + X 3 ' 5 s.Y.B.i./.a.y._.z.U.Q < K =X&XOX",
"pXH | _ r l.).h.r.Y.I.+.H J U t.M.k - % $ $ $ @ % @ @ @ @ + X x _ 5 s.~.J.y.(.r.g m.c.v.R < &.4X;X;X",
"pXF  .D r h.^.j.i.~.!.A.h 9.^ A.n.v = = % % $ # * @ # @ @ @ o k F 8 y.~.J.y.T.E { ` D.c.Q < 1.tX8X8X",
"pXP ' | a h.Y.F.( S.F.G.Q A.+.-.^ , ; % % % $ % % @ @ @ @ @ @ 2 P 0 8.~.J.y.!.( D.Q #.K.W , ;.#X-X9X",
"pXP ' _ r h.K.@. .[  .&.&.;.[.` _ k - = % % % $ % $ % @ @ $ @ k ' w 6.T.H.r.P.N.u.f.^ F.T v m .XeX2X",
"pX' ..S r f.!.H.d.J.K.u.h A.^ ) ~ , & - % % % % # $ % # % $ # 2 Z u 0.W.#.] @.@.=.=.=. .K 1 &.8X6X2X",
"pX' | D r h.~.P.j.!.v./ 0.u.I G.Q , & ; = % % % % % % # $ $ @ 3 H u w.F.~ E ( ( ~ ) =.#. .1 &.-XOX X",
"pX .{ ` r f.Y.J.h.U.K.] J ' E h.( < = - - = % % = % # % % $ # 2 ' u 9.v.k.8.v.i.e.f.E D.E < |.uX9X}.",
"pX[ ..S r s.Y.P.s.I.L.e.V D.u.h.E , = - = = % % % % % % = = $ 1 C i 3.m.i.9.j.^ V T I s.T < XXuXqX.X",
"pX[ } S r s.!.j.i.I.U.a.5.Y.y.s.E < : : = % - % = % % % $ = % 3 _ u s {.e.4.h.E } #.T 8.T , |.wXrX-X",
"pXo.] D r a.n.g.8.I.P.y.7.Y.y.k.T , & ; = = - = = = = = = = % 3 _ 5 6 d 7 6 5.7 0 u 7 7 y v |.5X,X,X",
"pX;.| _ r t.W.i.8.L.I.y.6.!.y.j.Y < : : : : : ; = = = = ; ; % 2 D 4 9 w 0 9 e e 8 8 8 5 b k +X5X=X6X",
"pX>. .M r a.J.i.6.!.x.s.4.K.j j V 1 & : ; ; ; ; ; = ; ; ; : = 2 ] ..| | .. . . .}  .[ P F n *XqX,X0X",
"pX>.[ M r b.L.u.h M.T V B l S l l > ; : ; : ; ; ; : : ; ; : ; > F ' P P ' P ' P ' H P D D z oXqX7X7X",
"pX[. ._ b V B Z z M N z H k pXpXpXpXpXpXpXpXpXpXpXpXpXpXpXpXpXpXpXpXpXpXpXpXpXpXpXpXpXpXpXpXpXpXpXpX",
"pX{.o.C z S c C C pXpXpXpXpXpXpXpXpXpXpXpXpXpXpXpXpXpXpXpXpXpXpXpXpXpXpXpXpXpXpXpXpXpXpXpXpXpXpXpXpX",
"pXpX .m pXpXpXpXpXpXpXpXpXpXpXpXpXpXpXpXpXpXpXpXpXpXpXpXpXpXpXpXpXpXpXpXpXpXpXpXpXpXpXpXpXpXpXpXpXpX"
};
