/* XPM */
static char *_f4a86086d124769af22da142ca88859psGLF9IeMR9XzR7F[] = {
/* columns rows colors chars-per-pixel */
"50 50 242 2 ",
"   c #010100",
".  c #0B0401",
"X  c #0B0901",
"o  c #010A0B",
"O  c #120501",
"+  c #140B02",
"@  c #1B0C02",
"#  c #170E09",
"$  c #171406",
"%  c #1C1304",
"&  c #121612",
"*  c #240D05",
"=  c #250F08",
"-  c #241503",
";  c #251706",
":  c #2C1406",
">  c #2C1B04",
",  c #2C130A",
"<  c #241B0A",
"1  c #2B1D0B",
"2  c #331305",
"3  c #331B04",
"4  c #391905",
"5  c #33150A",
"6  c #3A160A",
"7  c #3D1A0A",
"8  c #361D12",
"9  c #1E251F",
"0  c #2B210E",
"q  c #33240D",
"w  c #3D260A",
"e  c #272318",
"r  c #3A2616",
"t  c #292B23",
"y  c #353329",
"u  c #39352A",
"i  c #451C04",
"p  c #431B0C",
"a  c #4C1D0D",
"s  c #541E0A",
"d  c #4F1F10",
"f  c #43240B",
"g  c #482809",
"h  c #57270C",
"j  c #4C310F",
"k  c #5A3408",
"l  c #452919",
"z  c #542211",
"x  c #5B2412",
"c  c #5D2A15",
"v  c #552D1C",
"b  c #4E3414",
"n  c #563616",
"m  c #5D3C14",
"M  c #612D0A",
"N  c #69360B",
"B  c #643B0C",
"V  c #78370D",
"C  c #733C0D",
"Z  c #632612",
"A  c #652915",
"S  c #6B2B14",
"D  c #742D15",
"F  c #7B2E15",
"G  c #772F18",
"H  c #673B14",
"J  c #7C3214",
"K  c #743815",
"L  c #7D331A",
"P  c #412D20",
"I  c #4B3222",
"U  c #493829",
"Y  c #583A27",
"T  c #673A24",
"R  c #763C23",
"E  c #7D410E",
"W  c #6C4215",
"Q  c #6C4419",
"!  c #744314",
"~  c #7B4514",
"^  c #78481A",
"/  c #7D4A1A",
"(  c #5A412F",
")  c #4A4637",
"_  c #594D3B",
"`  c #68442E",
"'  c #76472A",
"]  c #684832",
"[  c #754E36",
"{  c #575341",
"}  c #645B47",
"|  c #7B5D45",
" . c #6B634D",
".. c #77624A",
"X. c #786A52",
"o. c #843E0D",
"O. c #8A3E0D",
"+. c #822F15",
"@. c #843419",
"#. c #8D361A",
"$. c #873918",
"%. c #923718",
"&. c #943A1C",
"*. c #9C3D1D",
"=. c #A33E1E",
"-. c #8B420F",
";. c #91430F",
":. c #824312",
">. c #8D4212",
",. c #844718",
"<. c #824D1B",
"1. c #934513",
"2. c #984613",
"3. c #9A4A16",
"4. c #984918",
"5. c #A64816",
"6. c #A4421D",
"7. c #AB431D",
"8. c #A54D1C",
"9. c #AA4D1C",
"0. c #B24D1D",
"q. c #B8491F",
"w. c #A3501F",
"e. c #AC511D",
"r. c #B4521E",
"t. c #BA521E",
"y. c #86462A",
"u. c #954B2D",
"i. c #8A583C",
"p. c #9A5536",
"a. c #A44121",
"s. c #AB4422",
"d. c #A74B28",
"f. c #B24622",
"g. c #BA4721",
"h. c #B44923",
"j. c #BC4A23",
"k. c #A95526",
"l. c #B55423",
"z. c #BA5622",
"x. c #BC5925",
"c. c #B85B29",
"v. c #A45231",
"b. c #AA5835",
"n. c #BA5B35",
"m. c #B66336",
"M. c #C6531F",
"N. c #CC521F",
"B. c #C34D24",
"V. c #CA4F25",
"C. c #C34F28",
"Z. c #C55220",
"A. c #CC5224",
"S. c #C55926",
"D. c #CC5229",
"F. c #D35423",
"G. c #D55729",
"H. c #D6572D",
"J. c #DC5729",
"K. c #C65E37",
"L. c #E85B26",
"P. c #E45A2C",
"I. c #EB5D2D",
"U. c #F65827",
"Y. c #F25E2C",
"T. c #FB5D2B",
"R. c #CA602E",
"E. c #C76839",
"W. c #CC6D3E",
"Q. c #D86839",
"!. c #CF713F",
"~. c #D3713E",
"^. c #EF602F",
"/. c #F5612F",
"(. c #FE622E",
"). c #EC6334",
"_. c #E86536",
"`. c #F46232",
"'. c #FE6633",
"]. c #F76836",
"[. c #FF6B35",
"{. c #FF6D38",
"}. c #FF7037",
"|. c #FF733A",
" X c #935F40",
".X c #87694E",
"XX c #986242",
"oX c #8C7155",
"OX c #997859",
"+X c #AE6F4C",
"@X c #C86C44",
"#X c #CC7346",
"$X c #D77444",
"%X c #DE7E51",
"&X c #F37948",
"*X c #E27D51",
"=X c #AA815E",
"-X c #9B8768",
";X c #B38D69",
":X c #AB9371",
">X c #BDA27D",
",X c #CE8158",
"<X c #E38557",
"1X c #F58957",
"2X c #FF945E",
"3X c #D2956B",
"4X c #E49668",
"5X c #FC9764",
"6X c #FE9D69",
"7X c #C8A67E",
"8X c #D8A77C",
"9X c #FFA26C",
"0X c #E8AB7C",
"qX c #F2A473",
"wX c #FEA572",
"eX c #FEAA76",
"rX c #FFAE79",
"tX c #FFB177",
"yX c #FFB37D",
"uX c #C8AC84",
"iX c #D8B58A",
"pX c #E8B587",
"aX c #F6B685",
"sX c #FBB784",
"dX c #FCB985",
"fX c #F4BB8A",
"gX c #FDBD8A",
"hX c #E2BD90",
"jX c #FEC28E",
"kX c #ECC798",
"lX c #F3C696",
"zX c #FEC693",
"xX c #FEC996",
"cX c #F4CC9B",
"vX c #FECD9A",
"bX c #F6D09F",
"nX c #FFD29D",
"mX c #FFD6A1",
"MX c #FFDAA4",
"NX c #FCD9A6",
"BX c #FFE1A9",
"VX c #FFEEB3",
/* pixels */
"8 fXxXjXjXjXR.B x.gXjXvX|   OXxXpXgXgXgXfXdXfXwX3.! E.| 0XdXgXjXdXgXzXjXgXgXaXgX_ K.~ o.6XzXfXgXgXgX",
"  -XiXiXiXhXE.4 b.iXuX7Xe   ( lXlXvXnXnXMXvXmXxXk./ @X} vXnXvXlXhXlXlXlXxXxXmXfXt +XV o.qXmXvXvXvXvX",
"Z a A L S p :   - L A z z z c ' y.i.( ` ` ` ] T 4 r z 8 ' ` Y r 8 l T T P r U T * 4 8 4 c Y I r I ' ",
"[.[.'.'.[.'.t.X @.[.'.`.'.[.'.I.T.F.O     #.g..   w +.B.=.+.%.B.F.g.F Z D O B.I.I.I.H o.Y.I.D.q.D.Y.",
"/.'.`.'.`.[.F.% 5.[.`.'.'.`.'.Y.`.'.D.u.Z F.|.6 ; Q %.P.I.I.Y.[.`.J.C.f.B.6 [./.`.(.! -.(.[.'.[.[.'.",
"/.[.[.[.{.{.J.+ 7.|.[.[.[.[.[.[.[.[.[.|.L j.|.S > <.Y.|.[.'.[.'.`.[.{.|.P.6 '.{.[.'.! -.'.[.'.(.'.`.",
"D %.0.6.*.6.V   a V.Z.6.%.f.*.Z.F.A.A.j.O x @.. ; ^ 5.j.j.F.V.B.Z.Z.6.j.f.O 1.H.Z.B.! V M.M.M.M.C.j.",
"  # X   < 0 1 q 0 q 1 $ $ ; ; r @ ; ; - + $ X $ < % % % X     < q l r q q < q w q ; . + ; q w w > > ",
"8.8.$.c S.x.R.x.x.x.l.x.x.l.S.O.- 3.l.l.l.l.z.z.l.l.l.l.l.= p x.t.:.~ r.S.x.x.x.l.S.p x S.l.l.l.l.l.",
"aXxX7X=XnXpX8XnXzXjXzXxXxXxXzXk.- Q.xXzXxXzXxXzXxXxXxXzXvX| 8XMX9X-.C 2XnXxXzXzXzXMX| OXMXzXxXxXzXzX",
"zXMX8X.XMXpX;XmXvXvXnXvXvXvXnXc.* ~.mXvXnXnXvXnXnXvXnXnXvX.XfXvXqXV C 6XlX0X3X8XpXzX.X;XMXvXxXvXzXzX",
"y.u.y.. b.E.K.v.v.v.n.n.k.b.K.J . J k.u.v.n.v.u.u.y.y.y.y.7 T y.d.h h a.y.y.u.d.H R 8 v n.K.K.Q.Q.$X",
"x F @.@.F =.5 O %.&.&.*.*.*.=.A q V =.Z : 7.B.B.B.g.h.B.j.D.B.F.P.i   D +.F #.#.F @.F D D +.4 2 *.%.",
"'.'.[.[.[.^.p A }.[.[.[.[.'.|.Z.B F.{.(.&.[.[.'.[.[.'.[.[.[.[.[.'.g 3 [.{.[.[.[.{.{.[.[.[.|.f., [.[.",
"[.[.'.'.[.J.@ #.}.'.[.[.[.'.[.Z.k F.{.'.#.'.[.[.'.[.[.[.[.[.'.[.'.7 h [.[.[.[.[.[.[.[.[.'.[.u.p '.[.",
"0.r.r.0.9.M.z p t.9.0.0.9.0.0.>.B 1.l.5.z 9.j.0.q.0.r.t.0.r.j.7.r.3 g 0.9.q.t.r.t.t.l.j.t.S.: 7 D.x.",
"X % > > - + + % - > > 3 - X O @ - @ * O @ > > > 0 1 $ ; - % ; @ + . @ @ * - ; % $ q r 0 0 0   X 0 1 ",
"v W.E.E.W.E.5.W 5.Q.!.$XE.v E.$X!.!.~.~.Q.@X#XH.>.^ 2 v $XE.W.W.@X@X!.!.W.W.$Xy.r 9.h M d.b.b.m.b.p.",
".XBXnXnXnXnX~.M c.nXnXmXlX| xXmXnXnXnXnXnXnXmXzXw.<.Z :XBXnXnXnXnXnXnXmXnXvXBX;X..tXC -.yXMXmXnXnXnX",
".XnXzXzXjXvXE.k c.jXxXlXjX] zXzXzXzXzXzXzXzXxXsX3.<.i OXnXzXzXzXzXzXzXxXzXjXnX=X.X9XC o.wXxXgXzXxXxX",
"c ].P.).`.[.A.k 0.`._.).$., ).).).).).].`.).`.`.4.H . z H.Q.I.].[.[.].`.).).`.A 3 F.H o.'.[.H.).{.].",
"g Z S F @.+.p + x #.J D x Z @.#.#.@.Z 6 , a x z 5 % = * 5 Z x x z 5 a #.&.#.D 7 * a > : A @.6 = x D ",
"'.`.`.`.`.'.a $ t.[.'.'.[.[.'.[.[.'.[.*.O P.`.Y.4.Q J.(./.'.(.I.J.@ @.[.'.'.'.'.'.Y.C C J.'.J 5 /.I.",
"'.'.[.[.'.|.F > M.[.'.'.'.'.'.'.[.'.[.B.. I.[.[.8.Q L.[.'.[.'.[.{.S j.[.'.[.'.'.[.'.C >.'.[.f.a [.[.",
"9.8.9.9.8.l.f < 3.r.9.9.8.l.r.9.9.8.0.K . 4.l.l.,.^ 2.r.9.9.e.e.r.4 V l.k.e.e.e.e.9./ ~ 8.l.K f e.8.",
"m H n m H m . # r e b n n j j b n q > %   $ q q r l ; q q > 0 ; <   q b j b m b j j n b j b % . b g ",
"1 , I I 1 r I I r P #   1 i.p.N w J XXXXXX Xi.[ ]   ` XXXXi. XXXy.4 7 c ] Y @ r ] ` ` [ ] ` ] ] ` ] ",
"zXcXnXnXlXcXnXnXnXnXvXy } VXMXE.N $XMXMXMXmXMXBXlXu xXBXmXMXMXBXdX;.E 9XMXMXOX:XBXnXmXMXmXMXMXmXnXMX",
"rXgXgXgXdXdXgXdXdXgXdX< [ zXyXl.k R.yXyXaXaXaXdXpXU 0XdXaXaXaXgX5Xo.N 1XgXjXOXOXjXaXgXdXsXdXaXaXdXdX",
"[.[.[.{.{.[.H.[.'.{.C.  f {.}.M.W N.}.}.{.{.{.{.'.= P.{.[.[.[.|.[.1.~ (.[.|.@.s.|.[.[.[.[.[.{.{.[.}.",
"a.s.a.*.&.G p x p S Z .   G C.L g #.4.s.f.s.D D %.  a h.=.=.6.u.a.k g 6.a.h.7 a j.s.D.V.j.D.f.&.j.Z.",
"&.&.#.&.&.p O =.s.f.s.C.C.s.j.V g $.a.x x C.*.a.f.f.&.#.#.f.7.q.#.  3 &.f.a.s.s.f.a.h.a.*.6.= 8 j.f.",
"[.[.}.[.}.J., '.[.[.[.[.[.[.|.M.k F.|.j.*.|.[.[.[.[.[.[.[.[.[.[.'.* B (.[.[.[.[.[.[.[.[.[.}.D D |.[.",
"$.>.>.>.-.:.* >.1.1.1.1.>.>.1.~ W o.3.N h 1.>.>.>.1.1.;.>.1.>.1.-.# k >.>.>.>.>.>.>.1.-.-.2.g w 1.-.",
"! C C C C N X n m k N H H ! C C ! ! K f > ! ! ~ Q ' j H ~ ! / / !   w / ! / ~ ~ / ,./ ! E :.f 7 4./ ",
"K y.u.u.b.p.: % g T T T l 4 y.[ R R R P r R z A 4 ;   * s 4 2 s p   * A K S s s d s w i J s * 2 @.L ",
"hXcXkXkXmXMXE.k m.vXcXMX-XU mXcXcXkXcXcXcXkXkXhX,.m * _ :X7XX.-X>X7X-X:XiXiXuX) X ( 3 i oX-X-X:X-X:X",
"6XeXwXwXqXwXK.g l.wXwXrXXX` eX6XwXwXwXwXwXwXeX5Xe.! 2 4XyXrXrXrXeXeXyXeXeXwXsX XI 1XE ;.2XyXrXtXrXrX",
"(.'.(.(.(.[.Z.k Z.'.'.[.*.D ].'.(.(.(.(.(.T.(.T.8.Q a /.(.T.(.T.T.T.T.T.T.T.'.F 6 T.! o.T.T.T.T.T.T.",
"V.D.D.D.V.H.=.g @.j.j.j.x 7 M.H.P.`.[.`.I.'.I./.1.b O D.[.I.`.'.[.[.[.`.[.[.D.p = (.! -.].[.|.[.{.[.",
"z z p z z g . . . X + O O X . = : d z 6 p 6 x x @ + : x L J D Z x x z 7 z z =   . x - 3 Z F G D @.L ",
"/./.I./.'.J.2 k 5.P.J.I.I.P.J.V.7.i * .   O F.P.1.! N.P.J.P.J.P.D   j.V.g.B.B.q.6.7.k h j.#.  @.j.4.",
"! C W C C N ; Q Q ~ ! ! ! ! ! / / W Q > . j / ! ^ ' H ! ! ! ! <.n @ ! ,.~ ,.~ / / ~ ^ ! E ~ ; k :.V ",
"2.2.3.3.w.$.7 8.3.4.3.4.4.1.1.o.W o.3.f N 8.O.1.1.1.1.1.1.1.%.1.S X B 1.>.O.>.>.-.>.>.1.-.2.i S ;.O.",
"b.+X+X+X#X] + i.3X4X#X4X4X4X5Xu.k R.eXl ] eXrXeXqXqXtXrXeXeXqXsXp.  4 E.eXrXrXsXsXyXsXyXyX4X1 ,XdXsX",
"X.oX .} } { U ) ) 9 & e t y 9 + X l ) & & u ) u t y ) { } }  .X.t   . U { _ y ) } X.X.}  .t o t ) } ",
"5XwXwX9X6X6X5X6X#Xo l 1X*X<X1X5.h h.*X%X1X<Xv.O @ v.#X%X%X%X<X<X&XV N _.p.  L   y.*X@X*X#X#X<X@Xv.v.",
"/.U.U.U.T.T.T.U.'.a.z '.T.T.T.0.B F.'.(.(./.V.@ @.{.'.(.T.(.'.T.T.o.! [.V.&.[.5 (.(.'.(.'.'.T.'.[.'.",
"/.^.'.`.`.[.[.Y.[.D.x '.[.`.[.j.k F.[.[.[.[.[.z s.[.'.`.`.[.'.'.'.o.C [.C.L A.x [.[.'.[.`.'.'.'.'.`.",
"*.5.C.V.P.P.^.J.I.a.p f.a.f.D.@.w 5.C.4.f.#.&.5 *.I.P.`.P.I.`.'.'.-.B (.L 6 D A P.^.Y.^.'.'.I.^.I.Y."
};
