/* XPM */
static char *result[] = {
/* columns rows colors chars-per-pixel */
"50 50 222 2 ",
"   c #0D121C",
".  c #12141D",
"X  c #090D14",
"o  c #161925",
"O  c #1B1C25",
"+  c #1B1D2A",
"@  c #141621",
"#  c #0F1422",
"$  c #231D2D",
"%  c #1D212A",
"&  c #1E2636",
"*  c #22232D",
"=  c #252431",
"-  c #292A35",
";  c #36353D",
":  c #362E2F",
">  c #471E08",
",  c #59270E",
"<  c #5D2C14",
"1  c #562A19",
"2  c #522813",
"3  c #622E15",
"4  c #6A3318",
"5  c #75391A",
"6  c #472B27",
"7  c #532E26",
"8  c #53322B",
"9  c #583125",
"0  c #493538",
"q  c #513534",
"w  c #523B3D",
"e  c #583B37",
"r  c #4C3029",
"t  c #773C23",
"y  c #6D3E31",
"u  c #5B433C",
"i  c #54413C",
"p  c #7C4528",
"a  c #664437",
"s  c #794C39",
"d  c #775039",
"f  c #2D3541",
"g  c #383A44",
"h  c #4C3D43",
"j  c #443D47",
"k  c #523D42",
"l  c #413F51",
"z  c #3C4249",
"x  c #43444D",
"c  c #4D4349",
"v  c #534343",
"b  c #5B4442",
"n  c #5A484A",
"m  c #454453",
"M  c #444A53",
"N  c #4B4A56",
"B  c #4D4C5B",
"V  c #484758",
"C  c #524D5D",
"Z  c #574C58",
"A  c #4D525A",
"S  c #4E5157",
"D  c #53515D",
"F  c #57565D",
"G  c #6A4D44",
"H  c #644744",
"J  c #714E47",
"K  c #6B514D",
"L  c #65534D",
"P  c #73534A",
"I  c #7A5647",
"U  c #695658",
"Y  c #7C5C52",
"T  c #745A58",
"R  c #6F4F50",
"E  c #75625B",
"W  c #4C4E62",
"Q  c #514E61",
"!  c #584F65",
"~  c #4E5264",
"^  c #4F536A",
"/  c #545363",
"(  c #5A5564",
")  c #5B5965",
"_  c #54556B",
"`  c #58566B",
"'  c #54586B",
"]  c #5B5B6C",
"[  c #555C62",
"{  c #565B72",
"}  c #5B5D72",
"|  c #555770",
" . c #6C5C62",
".. c #635966",
"X. c #785E62",
"o. c #625E72",
"O. c #5C6569",
"+. c #5A6669",
"@. c #5C6279",
"#. c #5D6174",
"$. c #63626D",
"%. c #6C6367",
"&. c #766365",
"*. c #656675",
"=. c #6D7A7D",
"-. c #677275",
";. c #72727A",
":. c #873F23",
">. c #85431F",
",. c #844223",
"<. c #8A4423",
"1. c #844B26",
"2. c #834A2A",
"3. c #8A4D2B",
"4. c #834629",
"5. c #8D522C",
"6. c #94552E",
"7. c #854C31",
"8. c #8B5334",
"9. c #8B553B",
"0. c #86553A",
"q. c #935433",
"w. c #9C5C35",
"e. c #975A37",
"r. c #914B26",
"t. c #A35D33",
"y. c #A35E39",
"u. c #A85F37",
"i. c #A05C2C",
"p. c #9E623A",
"a. c #A3623C",
"s. c #AA643B",
"d. c #AD693C",
"f. c #A76439",
"g. c #B36C3C",
"h. c #BB6D3E",
"j. c #B3663B",
"k. c #BB713D",
"l. c #C56A37",
"z. c #845C4B",
"x. c #885A46",
"c. c #935C47",
"v. c #855E53",
"b. c #8B6249",
"n. c #9D6442",
"m. c #96644A",
"M. c #8A6557",
"N. c #956755",
"B. c #A36543",
"V. c #AB6643",
"C. c #AD6B42",
"Z. c #A66A49",
"A. c #B46D43",
"S. c #B66B45",
"D. c #B57144",
"F. c #BC7344",
"G. c #B4724B",
"H. c #BB744A",
"J. c #BF794A",
"K. c #A66E54",
"L. c #B87752",
"P. c #AB7053",
"I. c #856866",
"U. c #8E7573",
"Y. c #A05F41",
"T. c #C3764B",
"R. c #C4794C",
"E. c #C67649",
"W. c #C57B51",
"Q. c #C97C52",
"!. c #6E7981",
"~. c #737E83",
"^. c #7B7988",
"/. c #646981",
"(. c #887788",
"). c #738284",
"_. c #7C858A",
"`. c #7D8B8D",
"'. c #768688",
"]. c #7D8F90",
"[. c #838C8F",
"{. c #838D92",
"}. c #849294",
"|. c #8B979C",
" X c #86999A",
".X c #8C9B9D",
"XX c #879498",
"oX c #939D9E",
"OX c #8E9DA2",
"+X c #929DA2",
"@X c #8EA1A1",
"#X c #93A3A4",
"$X c #99A3A5",
"%X c #95A5A9",
"&X c #9CABAD",
"*X c #98A8AA",
"=X c #9CADB1",
"-X c #9EB1B2",
";X c #9FB0AF",
":X c #A2ACAD",
">X c #A3AEB2",
",X c #A8AFB5",
"<X c #A4B3B4",
"1X c #A9B3B5",
"2X c #A5B6B9",
"3X c #ABB6B9",
"4X c #ABBABC",
"5X c #A6B9BA",
"6X c #B2BCBD",
"7X c #A2B0AF",
"8X c #ADBBC0",
"9X c #B2BEC1",
"0X c #AEC1C1",
"qX c #B3C4C4",
"wX c #BCCBCD",
"eX c #B7C6C9",
"rX c #BDCCD1",
"tX c #C9D7DA",
"yX c #C1CDD3",
"uX c #CCDBE0",
"iX c #D2E4E6",
"pX c None",
/* pixels */
"pXpXpXpXpXpXpXpXpXpXpXpXpXpXpXpXpXpXpXpXpX).:XeX3X3X8X<X2XpXpXpXpXpXpXpXpXpXpXpXpXpXpXpXpXpXpXpXpXpX",
"pXpXpXpXpXpXpXpXpXpXpXpXpXpXpXpXpXpX:X>X=X*X#XeXyXtXuXuX>X].>XpXpXpXpXpXpXpXpXpXpXpXpXpXpXpXpXpXpXpX",
"pXpXpXpXpXpXpXpXpXpXpXpXpXpXpXpX6X[.&X&X.X*X0X&X&X<XqXqX:X3XeX[.oX1XpXpXpXpXpXpXpXpXpXpXpXpXpXpXpXpX",
"pXpXpXpXpXpXpXpXpXpXpXpXpXpX}.qXuX:X[.1X#X#X0XeX=X>X<X<X6X3X9X}.4X4X<X>XpXpXpXpXpXpXpXpXpXpXpXpXpXpX",
"pXpXpXpXpXpXpXpXpXpXpXpX$X*X.X#X3X.X~.4X9X3X:X`.+.*..X3XeXtX,X|.0X=X-X1X,XpXpXpXpXpXpXpXpXpXpXpXpXpX",
"pXpXpXpXpXpXpXpXpXpX3X`.+.+XOX#X#X0XOX{._.S * . . . o g -.oX=.<X-XOX X=X{.+.<XpXpXpXpXpXpXpXpXpXpXpX",
"pXpXpXpXpXpXpXpXpX<X2X9X=.{..X`.;X-XA   . + g m D D x = . . O [.4X*X}.:X=.1XtX,X$XpXpXpXpXpXpXpXpXpX",
"pXpXpXpXpXpXpXpX=X-X*X2X3X_.&X:X=.= . f / L N V C S V n k m - . A #X6X}.{.yXwX<X<X7XpXpXpXpXpXpXpXpX",
"pXpXpXpXpXpXpX7X&X*X X X#X&X;.; # ; / X.N.t 0 V D A m q < x.D N * * [ }.5X4XXX-XeX2X:XpXpXpXpXpXpXpX",
"pXpXpXpXpXpX.X}.].*X1X#XOX).* + W E N.t s.:.h W C / ~ q 3 6.8.b.Z g X S rX-XOX%X=X3X3XpXpXpXpXpXpXpX",
"pXpXpXpXpXpX[ =.5X2X5XqX).% ;  .I w.n.*.I.>.h } C _ ] e 3 s  .8.w.E M + g '.%X X=X=XO.+.pXpXpXpXpXpX",
"pXpXpXpXpX2X#X-.).2X8X~.% z A m.f.C.V.&.Z.>.h } Q / ^ i , x.(.0.i.h.Y N $ x %X2X.X+.}.qX>XpXpXpXpXpX",
"pXpXpXpX1X5X0X5X'.~.*.$ g &.a r.G.D.F.3.H.:.h ' C ` _ u < V.S.e.a.F.6.a A + z ).=.`.OX X|.pXpXpXpXpX",
"pXpXpXpX1X<X5X4XwX).X g ) Z.1.5.D.F.L.q.H.:.h } D ` #.u 3 S.Q.w.d.F.w.1.b.m   ; =X=X#X|.3X>XpXpXpXpX",
"pXpXpX:X2X5X5X1X9X+.% C b.F.1.6.F.H.H.q.H.:.v #.D ` #.u < S.W.p.s.E.q.4.F.Y f = OX%XOX%X2X<XpXpXpXpX",
"pXpXpX:X<X-X@X XOX= j G i.R.4.8.R.T.G.q.W.:.v #.D ` @.b < G.W.w.A.R.q.3.T.w.n & $.-X X X#X<XpXpXpXpX",
"pXpXpX>X5X X'..X-.- U 9.i.V.t e.R.F.H.8.W.:.h { Q _ } b < G.Q.y.S.R.q.<.T.t.a g ; #X*X@X*X2XpXpXpXpX",
"pXpXpX&X-X].].%Xz f P t.P ( h 9.R.J.G.3.W.:.k *.C ! *.u < L.W.a.d.E.9.q v.q.p L % =.5X#X<X2X2XpXpXpX",
"pXpXpX=X<X%X-X`.% M s z.! L ` b.T.Q.G.2.W.<.k @.Q ! } w 3 L.L.y.a.D.T ` ! Z 3.b.- z 4X2X<X4X1XpXpXpX",
"pXpXpXXX`.}.|.z = L c...d C.L m.Q.Q.G.7.W.<.k { B Q } k 3 L.R.a.a.D.Y E c.D Y n.x % -.|.{.}.pXpXpXpX",
"pXpXpX,X2X).'.f - Z b./ 9.G.0.0.G.G.Z.p W.4.w } W Q } k 4 E.E.y.f.F.9.x.R.x. .Z.c # +.$X.X$XpXpXpXpX",
"pXpXpXyXiXeX2Xz - ' ( *.*.$.o.........%.K.:.0 /.B Q } q 4 K.I.U U %. .T I.%.} U m # ].wXqX1X1XpXpXpX",
"pXpXpX4XrXwX<Xx - *..... .&. .U X.X. .U P.<.w } B Q o.k 3 N.o.o.( ( o. .o.*.o.^ ~ . ).qXeX&X<XpXpXpX",
"pXpXpX X=X5X<Xx = M.N.N 3.T.s w.Q.Q.S.:.T.,.q { B V } k 4 H.P.9.B.G.7.8.G.x.] N.n   [.0X*X*X7XpXpXpX",
"pXpXpX X].-X<XM = c.V...H e.U M.W.G.S.p G.,.0 { N V } k 5 H.W.w.E.T.x.Y d.K E g.a . }.*X X#X1XpXpXpX",
"pXpXpX#X'.@X0XM = z.k.c.Z F F b.R.d.Z.1.A.,.q @.V Z } k t G.L.q.S.R.U ] n C c.h.b . }. X|.$X<XpXpXpX",
"pXpXpX7X@X&XqXS $ z.F.p.I T e a.R.a.A.p g.<.q { Q B | H 5 S.Q.w.D.Q.0.Z ..v.u.F.u % XX=..X:X3XpXpXpX",
"pXpXpX_.]..X@X; $ z.k.y.w.H.5.s.R.w.m.d A.<.q ' ! C | w 3 S.S.9.Z.W.q.7.D.j.s.g.a . +.+.`.`.[.pXpXpX",
"pXpXpX$X-.@X].% = x.k.y.a.T.q.V.T.x./.^.P.<.q { Q C } k < y.Y !.U.E.t.t.F.g.d.g.n   F @X.X.X$XpXpXpX",
"pXpX4XtX#XqXwXA * I F.a.B.H.q.a.F.9.o.o.L.<.q ~ ( ! | k < a.T /.I.E.y.q.F.D.g.g.b O #XrXeXqX3XpXpXpX",
"pXpX6X5X&XeXwX[ O I F.a.w.H.q.s.S.2...Z Z.<.0 ~ ) ( | q 3 t.H o.v.G.t.w.F.F.g.d.b % oXqXeX0X1XpXpXpX",
"pXpX7X.X X}.;X[ O I F.6.w.H.q.g.c.R v.e n p r _ ) ) | h , I Y Y e v.y.6.H.D.g.d.b * .X-X4X-X=XpXpXpX",
"pXpXXX$X X@X-X+.% I F.3.p.E.<.a.J v.E.4.q y 7 | ` ] | 0 , U K.s.,.J Y.q.H.F.g.d.u % $XeX%X#X:XpXpXpX",
"pXpX:X<X;X-XqX+.% P k.y.p.D.p d.c.U Z.y k t 8 ^ } o._ 0 4 R I.9.e v.f.3.F.D.g.d.v - :X4X#X<X1XpXpXpX",
"pXpXpX$X#X@X*XS % P k.a.a.T.1.a.S.x.K H N.<.8 Q } ] ~ 0 t y.P H J G.w.6.F.h.D.d.i % }.$X$X#X#XpXpXpX",
"pXpXpX_.+.-.}.z o J k.s.B.V.1.p.F.A.F.a.V.:.7 ` } { | 0 t H.H.y.a.E.t.r.k.g.D.d.v % -._.=.;.=.pXpXpX",
"pXpX:X3X|.$XiX-.+ G h.a.J U h c.F.D.H.a.a.<.7 C } #./ : t H.H.B.a.H.q.e Y a.k.d.v - &X0XeX3X1XpXpXpX",
"pXpX&XoX*X#XiX+.O G g.v.! L | Y F.D.F.C.V.<.7 V ] ] W h 4 S.T.y.f.F.K / C ..B.j.h - :X5X*X5X4XpXpXpX",
"pXpX:X}.*X@X0X-.o G d.U J a.U x.F.F.F.V.S.<.9 Q } #.` 0 4 S.H.y.w.F.U E 9./ Y s.h - =.'.5X4X5XpXpXpX",
"pXpX7X}..X#X;X+.o L M./ 0.Z.p.p B.a.S.B.j.<.9 B ] ] _ w 4 V.H.u.w.E.w.5.l.x.U Z.x & +.<X4X&X1XpXpXpX",
"pXpX:X&X*X<X5X+.O / ' *.*.o.$.o.) ..] %.B.<.7 V ` #.W v 4 n.&.T T X.T U E &.o.F x - .X3X3X<X&XpXpXpX",
"pXpXpX}.}.'. XM + o.U ..T X.X.U T T  .T n.<.8 V ` } V w 5 v.$.[ ) ) o.$.o.%.} _ C * '.}._.=.{.pXpXpX",
"pXpXpXeXeX0XuX^.o L N./ 1.V.c.4.d.C.D.5.f.1.9 D ) ' _ i 5 d.P.9.8.V.w.s B.x.) M.j j 6X4X:X=.7XpXpXpX",
"pXpXpXwXtXtXtX`.O a B...b q.U G A.C.h.1.t.<.9 c ` O.W w 5 s.g.a.6.h.m.J q.K &.p.; N eXqX<X{.6XpXpXpX",
"pXpXpXwXtXeX2X_.o H j.m.` D / s D.g.S.s U p 9 m _ ] V w 5 P &.e.w.g.U D v / 0.n.g M 4XqX6X#X6XpXpXpX",
"pXpXpX9X<XOX2X`.+ v y.w.a L a t t.t.t.G (.y < C ' / ~ v 3 T U.p 3.a.s Z / d p e.; A <X-X4X$X:XpXpXpX",
"pXpXpX=.=X`.&X{.+ j 5 3 > 4 4 1 5 4 4 , 7 , > x / C W 0 > 4 5 < < t 5 < 2 5 < 4 - D 2X#X$X>X:XpXpXpX",
"pXpXpX@X2X~.#X{.+ j 7 6 : r 6 6 8 7 7 : 6 6 : M B V Q j : r 8 6 6 8 8 r 6 q 6 0 ; F 2X%X%X6X3XpXpXpX",
"pXpXpX4X4X%X<X}.= m V V V W V B Q Q / / / / / / / ` ` ' ] ] ` ` o.o.o.` ` } ` / x ) 4X-X<X4X1XpXpXpX",
"pXpXpX<X4X3X8X`.- V V g m Q V m Q Q V V ( W B / / / A ` ( ` D / Q Q / ( ( / A / m O.1X<X<X<X1XpXpXpX"
};
