/* XPM */
static char *a5a92294d01d4b21ad45b105ae36e8e77UuQ6449IedoQKPa[] = {
/* columns rows colors chars-per-pixel */
"50 50 230 2 ",
"   c None",
".  c #0B1938",
"X  c #01481A",
"o  c #324B3C",
"O  c #7D623E",
"+  c #02164A",
"@  c #021755",
"#  c #000D4E",
"$  c #092259",
"%  c #2D3852",
"&  c #001B6A",
"*  c #001D79",
"=  c #08286A",
"-  c #002372",
";  c #01297A",
":  c #04357C",
">  c #2D3C6E",
",  c #3E434B",
"<  c #3D6554",
"1  c #364B7A",
"2  c #2D6378",
"3  c #685B53",
"4  c #495279",
"5  c #4F526D",
"6  c #685773",
"7  c #5E6A7A",
"8  c #786B70",
"9  c #5D6350",
"0  c #9B0B02",
"q  c #921A10",
"w  c #A80A01",
"e  c #A60802",
"r  c #B40903",
"t  c #AB150A",
"y  c #BC1A0A",
"u  c #AF1517",
"i  c #9F2117",
"p  c #8D322A",
"a  c #B3342C",
"s  c #DC1C0A",
"d  c #DE1604",
"f  c #D01708",
"g  c #E21A07",
"h  c #D4240F",
"j  c #CC302C",
"k  c #8F463F",
"l  c #B4433B",
"z  c #BA5119",
"x  c #96504A",
"c  c #B55752",
"v  c #A9534A",
"b  c #976B56",
"n  c #94756B",
"m  c #A46E69",
"M  c #DD5041",
"N  c #D96A60",
"B  c #2B915E",
"V  c #DD993F",
"C  c #E39C3D",
"Z  c #FFB23C",
"A  c #B6864F",
"S  c #998675",
"D  c #9A8369",
"F  c #AD977D",
"G  c #DB9A4A",
"H  c #CB934F",
"J  c #E09F4D",
"K  c #DFA559",
"L  c #E7A44C",
"P  c #F9B458",
"I  c #F0AA4D",
"U  c #C69B65",
"Y  c #DAA663",
"T  c #CCA778",
"R  c #E5AD62",
"E  c #ECB469",
"W  c #F6B965",
"Q  c #E9BC7D",
"!  c #DCC575",
"~  c #F8C477",
"^  c #001F81",
"/  c #012D8B",
"(  c #012788",
")  c #023289",
"_  c #103789",
"`  c #002C93",
"'  c #002D9D",
"]  c #00279F",
"[  c #01339B",
"{  c #063599",
"}  c #143D9A",
"|  c #002DA4",
" . c #002CAA",
".. c #0133A4",
"X. c #0134AC",
"o. c #013AAE",
"O. c #0E3DA6",
"+. c #002DB4",
"@. c #0135B2",
"#. c #023AB4",
"$. c #0035BB",
"%. c #013CBC",
"&. c #103EA1",
"*. c #0E419A",
"=. c #385285",
"-. c #264997",
";. c #365697",
":. c #315092",
">. c #1753B5",
",. c #1047B5",
"<. c #2A53A8",
"1. c #335BB7",
"2. c #2D54AF",
"3. c #3A63A4",
"4. c #495889",
"5. c #505A8C",
"6. c #5A6A95",
"7. c #496499",
"8. c #676688",
"9. c #6F778A",
"0. c #5771AA",
"q. c #4D69A9",
"w. c #697EAC",
"e. c #0035C3",
"r. c #013BC4",
"t. c #0035CA",
"y. c #003DCC",
"u. c #003DD4",
"i. c #003DD8",
"p. c #0242CC",
"a. c #0145C6",
"s. c #1856CD",
"d. c #0043DC",
"f. c #0147D7",
"g. c #1855D7",
"h. c #0E51CD",
"j. c #255AC7",
"k. c #305ECA",
"l. c #3469CB",
"z. c #0043E4",
"x. c #024BE5",
"c. c #0044E8",
"v. c #014EEC",
"b. c #0052EC",
"n. c #1661CC",
"m. c #4B78CE",
"M. c #5F888D",
"N. c #7B8499",
"B. c #7B8183",
"V. c #7C93BA",
"C. c #5B88D5",
"Z. c #7B98CD",
"A. c #638CD5",
"S. c #6D90CD",
"D. c #5381E5",
"F. c #96979A",
"G. c #8E8B92",
"H. c #A9938C",
"J. c #A89A9A",
"K. c #88B391",
"L. c #989CA3",
"P. c #8897B5",
"I. c #A5A7AB",
"U. c #AAAEB2",
"Y. c #AFB4B8",
"T. c #B4B7BA",
"R. c #B5B9BC",
"E. c #BABCBE",
"W. c #B6B2B4",
"Q. c #ADB0AF",
"!. c #C78B88",
"~. c #C59B98",
"^. c #D78A84",
"/. c #DFB88A",
"(. c #E6BC83",
"). c #CEA7A5",
"_. c #CCB6B6",
"`. c #85C088",
"'. c #91C7A6",
"]. c #ADC5BD",
"[. c #D3C68E",
"{. c #FBC986",
"}. c #F2CC97",
"|. c #EFCB99",
" X c #EAD6B8",
".X c #ECD0AC",
"XX c #889AC4",
"oX c #91A9D3",
"OX c #BBBEC1",
"+X c #B7BBC0",
"@X c #A6B7D6",
"#X c #ACB7CA",
"$X c #BEC1C4",
"%X c #B9C3D9",
"&X c #BFD1C5",
"*X c #C2C3C6",
"=X c #C4C6C9",
"-X c #C6C9CC",
";X c #CAC9CB",
":X c #D8CCC8",
">X c #D3D6CD",
",X c #CCCED1",
"<X c #C4CCD4",
"1X c #CDD1D3",
"2X c #CADCD5",
"3X c #D2D3D5",
"4X c #D4D6D9",
"5X c #D6D9DB",
"6X c #DADCDE",
"7X c #DAD7D4",
"8X c #CCD4CF",
"9X c #E3DADA",
"0X c #F0E6D5",
"qX c #DBDEE2",
"wX c #D3D9E3",
"eX c #C7D0E2",
"rX c #E9DFE2",
"tX c #DCE1E3",
"yX c #DAE7EA",
"uX c #E3E4E5",
"iX c #E4E6E9",
"pX c #EBECED",
"aX c #E7E8E6",
"sX c #F1EEEC",
"dX c #F7F4EC",
"fX c #EBEEF0",
"gX c #EDF1F4",
"hX c #F2F3F4",
"jX c #F4F7FA",
"kX c #FAFAF8",
/* pixels */
"                                                            C.m.                                    ",
"                                              l.n.n.n.A.  D.8.3                                     ",
"                                          C.a.f.f.f.a.a.h.2.I A V.                                  ",
"                                        A.u.f.d.d.f.a.,.%.A C C ;.m.Z.                              ",
"                                        p.f.f.z.d.y.%.$.5.C L I 5 t.r.a.m.                          ",
"                                      j.p.d.z.z.z.u.p.e.n I P P 8 e.p.y.r.>.                        ",
"                                    Z.%.z.z.z.z.z.z.z.i.;.S T T 5 @.r.r.a.$.>.                      ",
"                        1.g.x.g.k.1.,.a.d.z.z.z.z.c.z.i.t.+...O.X.o.a.r.%.#.X.                      ",
"                        n H 8.>.u.t.r.u.z.z.z.c.c.c.c.z.u.p.a.#.%.%.%.%.#...[ *.                    ",
"                        XXb I L 8 %.y.u.i.z.z.c.c.c.c.c.v.x.$.@.%.%.%.r.#./ ) /                     ",
"                          6.A P I 4 t.u.i.z.z.z.c.c.c.b.v.1.P.3. .%.%.%.[ = ; -                     ",
"                            5.K Y _ r.u.i.i.z.z.c.c.c.b.j.,X    l.$.%.r.{ = = &                     ",
"                pXiXaX        =.=...r.y.y.i.z.z.c.z.v.c.Z.dXiX  @Xt.$.$.,.                          ",
"                aX6X3X          ( e.u.y.y.u.i.z.z.d.x.f.@XhXfXhXeXh.$.$.$.S.                        ",
"              pXgXpXqX3XE.    F.: *.k.x.p.y.u.u.d.u.z.g.wXhXiXgXqXj.@.@.#.X.oX                      ",
"              $XuXfXiX6X,X1XI.G.;.;.7XA.f.y.r.u.u.u.i.h.<X'.tXgXiXk. .X.@.X.o.                      ",
"          aX$XF.4XpXaX4X1X4XT.7Xw.-.qXrXC.d.%.y.y.y.i.g.R.X K.pXwXj.|  .X.X.X.>.                    ",
"          qX5X*XqXpXqXE.$X1X4X,XD -.@XuX6Xl.y.@.$.e.t.>.2Xo < aX<XO.` | X.X.X. .S.                  ",
"          gX4X;XaXqX$X1X1X4XiXR.H 6 m.0XtX<Xs.r.o.#. .q.sX'.B 7X.XF / | ..X.X...>.                  ",
"              6XqX$X      ,X4XI.D S { %XaXuXM./ | ^ * P.sX8X`.}.W E _ ` ` ' ......                  ",
"                Y.            U.9.F.:.>.6XyX&X< =.6.F. X.X.X{.W G b & - ( ( ` { ' S.                ",
"                ;X            pX=X  %X) q.7XaX'.`.3 O ~ ~ ~ R K H > & / ` { [ ` ` 2.                ",
"                                      -.1 ~ |.}.! 3 3 P R J G H 5 ( |  . .( ; ( ` ,.                ",
"                                      oX*.S ~ P P P P J R /. XsXiX@XG.4.<.0.= & / &.                ",
"                                        3.( 1 n U R Y .XpXkXgXiXhXkXdX}.(.0X<X7.- }                 ",
"                                        %X) & & @ . 4.gXhX6X-XiXkXhXgXiX.X7XpXkX#X0.                ",
"                                          V.& = @ + N.aX-X4XgXhX4XuXkXfXqX1XuXaXsXfX                ",
"                                            7.@ @ + H.=X-XjXpX$XY.pXkXhXpX-X-XpXiXhX                ",
"                                              1 # @ 6._.1XaX$XR.pXhXhXhXpX6XE.6XuXpX                ",
"                                                1 @ 0.,X$XE.*XhXhX3XuXjXpXuX*X3XuXuX                ",
"                                                  ;.-.<X$XR.iXpX=X*XfXhXpXqX=X,X5XuX                ",
"                                          fX9X3X,X3.] 1 n R.4X=XOXfXfXaXtX3X=X,X,XiX                ",
"                                        uX*XY.I.N... .4 n I.Y.Y.rXiX6X-X_.R.OX$X4XhX                ",
"                                      hX:XE.S , > %.| 9.Q.L.U.$X3X1X*X=X].-X=X5XhX                  ",
"                                      rX,XF., . ` r.O.8 J.I.I.+X+XT.+X[. XjXsX                      ",
"                                      ).:X9.o - #.e.<.J.I.U.#X$XT.6.8.x sX                          ",
"                                      c 7XL., : r.+.0.J._.m v c l u e v gX                          ",
"                                    :Xt ^.wXF.7 -.<.L.x fX).0 e r f w ~.                            ",
"                                    ! ~.).5X6X3X1X_.v b gX  !.0 e e a                               ",
"                                    ! wXtX4X4X3X4X~.p H.      !.i i                                 ",
"                                    [.6X5X6X6X4X3X1XT.>X                                            ",
"                                    [.5X6XyXyXiX3X*X+XpX                                            ",
"                                    z j M N ^.).,X-X-X                                              ",
"                                    w d g d d g j J.6X                                              ",
"                                    e s s s s f w p                                                 ",
"                                    t f s s s f q m                                                 ",
"                                    q h s s h t p                                                   ",
"                                    x f h h y q J.                                                  ",
"                                      q h y q G.                                                    ",
"                                        k x W.                                                      "
};
