/* XPM */
static char *result[] = {
/* columns rows colors chars-per-pixel */
"50 50 220 2 ",
"   c #03020A",
".  c #170E17",
"X  c #111038",
"o  c #392C33",
"O  c #391520",
"+  c #531015",
"@  c #64020A",
"#  c #6F181E",
"$  c #71141A",
"%  c #6C1C22",
"&  c #771B21",
"*  c #51312C",
"=  c #78262C",
"-  c #56413B",
";  c #684538",
":  c #050948",
">  c #010953",
",  c #0B135B",
"<  c #0B1155",
"1  c #0C114B",
"2  c #342E4B",
"3  c #292955",
"4  c #3A3858",
"5  c #0A1364",
"6  c #0B156B",
"7  c #0D1773",
"8  c #0E1975",
"9  c #0D197B",
"0  c #081479",
"q  c #121C7A",
"w  c #1A247C",
"e  c #1C2260",
"r  c #2C2D63",
"t  c #4A3B51",
"y  c #47465B",
"u  c #574347",
"i  c #6A5756",
"p  c #72504E",
"a  c #4C4275",
"s  c #585978",
"d  c #54476E",
"f  c #695B78",
"g  c #786568",
"h  c #796976",
"j  c #7C7478",
"k  c #686371",
"l  c #8A0308",
"z  c #910E14",
"x  c #AD080E",
"c  c #BC040C",
"v  c #B5090F",
"b  c #BA080E",
"n  c #B60309",
"m  c #A80B11",
"M  c #B40C11",
"N  c #BB0713",
"B  c #B11518",
"V  c #BF2619",
"C  c #951E23",
"Z  c #813737",
"A  c #A62A2F",
"S  c #C4040A",
"D  c #C80509",
"F  c #CB0C11",
"G  c #D20D12",
"H  c #CA141A",
"J  c #D5151A",
"K  c #D61319",
"L  c #D0090E",
"P  c #CE1B20",
"I  c #DD1F24",
"U  c #D4262A",
"Y  c #E7262C",
"T  c #84573B",
"R  c #D4530C",
"E  c #DD7301",
"W  c #8D524E",
"Q  c #946949",
"!  c #8D6A52",
"~  c #AC7A56",
"^  c #B27A52",
"/  c #B25F62",
"(  c #9D7D65",
")  c #87727A",
"_  c #916F6E",
"`  c #A27F75",
"'  c #AB5A5B",
"]  c #C84F53",
"[  c #C45E62",
"{  c #C26566",
"}  c #C06E4F",
"|  c #E5BD16",
" . c #E6B320",
".. c #D6B33D",
"X. c #F2CB09",
"o. c #B8845B",
"O. c #9C807E",
"+. c #AE8868",
"@. c #C48E62",
"#. c #C4966A",
"$. c #C49E75",
"%. c #D49C6B",
"&. c #C7A47B",
"*. c #DBAD7C",
"=. c #D9A877",
"-. c #E3AA74",
";. c #CDBC53",
":. c #E4C241",
">. c #000A84",
",. c #0E1A83",
"<. c #0F1D8B",
"1. c #061486",
"2. c #101E8E",
"3. c #111C82",
"4. c #071997",
"5. c #101F92",
"6. c #17228B",
"7. c #112196",
"8. c #12229C",
"9. c #29328E",
"0. c #0A1EA5",
"q. c #0F22A8",
"w. c #1425A4",
"e. c #1527AA",
"r. c #1628AE",
"t. c #1729B2",
"y. c #192BB6",
"u. c #192CBC",
"i. c #1328BB",
"p. c #2A38AF",
"a. c #3C469A",
"s. c #3A46B5",
"d. c #3A45A0",
"f. c #4F549D",
"g. c #484C94",
"h. c #645E98",
"j. c #72718F",
"k. c #6D73AB",
"l. c #555EAE",
"z. c #1B2EC2",
"x. c #162BC6",
"c. c #1D30C4",
"v. c #1D32CC",
"b. c #1E33D3",
"n. c #1E35DD",
"m. c #1730D8",
"M. c #2136CE",
"N. c #2136D3",
"B. c #2037DD",
"V. c #243ADB",
"C. c #253AD7",
"Z. c #1E37E8",
"A. c #233AE4",
"S. c #233BEC",
"D. c #2037E2",
"F. c #253EF4",
"G. c #253FF8",
"H. c #3541C5",
"J. c #2742FB",
"K. c #2742FA",
"L. c #91898A",
"P. c #898796",
"I. c #9B9798",
"U. c #918792",
"Y. c #A49E9E",
"T. c #B08E89",
"R. c #BCAF91",
"E. c #9998A4",
"W. c #8F92B2",
"Q. c #A49EA2",
"!. c #9FA3A5",
"~. c #A6A3A6",
"^. c #A5A4AB",
"/. c #A9A6A9",
"(. c #AEABAD",
"). c #AAA3A3",
"_. c #B1AEB2",
"`. c #B5B3B5",
"'. c #B6B5BA",
"]. c #B9B6BA",
"[. c #BCBABD",
"{. c #B8B5B7",
"}. c #B0ACB0",
"|. c #DBB485",
" X c #CFAF8E",
".X c #E8BD8A",
"XX c #E4B784",
"oX c #C1B4B6",
"OX c #ECC28D",
"+X c #FDCE8C",
"@X c #EDC491",
"#X c #F6CD95",
"$X c #F9D49C",
"%X c #F9D59A",
"&X c #FFE39D",
"*X c #F9DDA6",
"=X c #EDD9B0",
"-X c #FFF0AD",
";X c #F9E1B2",
":X c #8D94CA",
">X c #9AA0CD",
",X c #ADB0C9",
"<X c #B8B9C4",
"1X c #B1B4CE",
"2X c #C1BFC3",
"3X c #BBC7C9",
"4X c #BEC8D2",
"5X c #BEC2E1",
"6X c #C3C2C5",
"7X c #C5C5CA",
"8X c #C9C9CE",
"9X c #C7C8CC",
"0X c #CBCCD3",
"qX c #C3C6D7",
"wX c #CBD1D7",
"eX c #D4D7DB",
"rX c #D3D6E6",
"tX c #FAFBFB",
"yX c #E6E8EF",
"uX c None",
/* pixels */
"uXuXuXuXuXuXuXuXuXuXuXuXuXuXuXuXuXuXuXuXuXuXuXuXuXuXuXuXuXuXuXuXuXuXuXuXuXuXuXuXuXuXuXuXuXuXuXuXuXuX",
"uXuXuXuXuXuXuXuXuXuXuXuXuXuXuXuXuXuXuXuXuXG.J.K.G.K.F.uXuXuXuXuXuXuXuXuXuXuXuXuXuXuXuXuXuXuXuXuXuXuX",
"uXuXuXuXuXuXuXuXuXuXuXuXuXuXuXuXuXuXJ.J.G.F.A.B.V.V.n.Z.D.D.A.uXuXuXuXuXuXuXuXuXuXuXuXuXuXuXuXuXuXuX",
"uXuXuXuXuXuXuXuXuXuXuXuXuXuXuXuXJ.K.K.F.D.n.b.c.v.u.u.z.z.z.v.b.uXuXuXuXuXuXuXuXuXuXuXuXuXuXuXuXuXuX",
"uXuXuXuXuXuXuXuXuXuXuXuXuXuXuXJ.K.F.S.A.B.N.N.m.i.e.w.w.e.e.e.r.uXuXuXuXuXuXuXuXuXuXuXuXuXuXuXuXuXuX",
"uXuXuXuXuXuXuXv.F.K.F.uXuXuXJ.F.F.S.S.D.N.B.x.g._ a q.7.2.<.7.uXuXuXuXuXuXuXuXuXuXuXuXuXuXuXuXuXuXuX",
"uXuXuXuXuXuXuXd p.D.B.B.K.J.F.S.A.S.V.V.D.i.f $.=.g i.D.c.r.t.uXuXuXuXuXuXuXuXuXuXuXuXuXuXuXuXuXuXuX",
"uXuXuXuXuXuXuXt ( p.v.A.G.S.A.A.V.V.V.A.i.h XX X|.) q.v.v.b.B.D.uXuXuXuXuXuXuXuXuXuXuXuXuXuXuXuXuXuX",
"uXuXuXuXuXuXuXuX! ) z.F.A.D.V.C.C.C.V.c.q g &..X@Xj 0.u.u.y.u.z.b.n.uXuXuXuXuXuXuXuXuXuXuXuXuXuXuXuX",
"uXuXuXuXuXuXuXuXi ` V.S.n.b.v.N.M.M.M.c.t.4.9.h.$.s 0.y.y.r.e.y.y.z.v.B.uXuXuXuXuXuXuXuXuXuXuXuXuXuX",
"uXuXuXuXuXuXuXuXr M.Z.b.v.z.z.z.M.u.u.u.t.r.w.4.6.7.t.t.e.e.e.e.e.t.y.z.N.uXuXuXuXuXuXuXuXuXuXuXuXuX",
"uXuXuXuXuXuXuXuXV.D.v.v.z.u.u.u.t.r.t.t.w.w.8.w.w.5.w.e.e.e.w.w.w.e.e.t.u.N.uXuXuXuXuXuXuXuXuXuXuXuX",
"uXuXuXuXuXuXuXuXv.b.b.u.u.t.t.t.t.M.z.u.t.e.w.w.w.w.w.e.e.w.8.w.8.8.w.e.e.u.uXuXuXuXuXuXuXuXuXuXuXuX",
"uXuXuXuXuXuXuXuXp.s.i.u.t.e.e.e.c.8.5.5.5.5.8.8.w.w.e.e.e.e.8.5.8.8.8.8.w.e.u.uXuXuXuXuXuXuXuXuXuXuX",
"uXuXuXuXyXrXqX>Xf.2Xu.e.e.w.w.u.7.5.uXuXuXuX5.5.8.w.e.e.e.e.w.8.8.8.8.8.w.w.e.z.uXuXuXuXuXuXuXuXuXuX",
"uXuXuXrXwX1X1X>Xf.tXs.0.e.w.u.w.5.uXuXuXuXuXuX<.5.w.w.e.e.e.w.8.5.8.5.5.8.8.8.y.uXuXuXuXuXuXuXuXuXuX",
"uXuX0X/.^.<X,XW.a.tX:X4.w.w.r.7.uXuXuXuXuXuXuX2.5.w.w.w.r.y.<.6 9 ,.,.<.2.5.5.8.uXuXuXuXuXuXuXuXuXuX",
"uXuX/.E._.4X,XW.a.yXrX8.7.8.w.2.uXuXuXuXuXuXuX<.5.8.w.w.r.t.,., uXuXuXuXuXuXuXuXuXuXuXuXuXuXuXuXuXuX",
"uXuXuX~.'.qXE.L.l.5XtXd.7.7.8.8 . uXuXuXuXuXuX2.5.w.w.w.e.e.8.5.<.<.uXuXuXuXuXuXuXuXuXuXuXuXuXuXuXuX",
"uXuXuXuX3XE.j.L.k.>XtXs 1.<.,.a.. uXuXuXuXuXuX6.7.w.w.w.e.w.8.w.8.8.w.uXuXuXuXuXuXuXuXuXuXuXuXuXuXuX",
"uXuXuXuX/.P.uXuXI.k.tXI.4 6.w _.o uXuXuXuXuX>.4.0.w.w.w.w.8.7.7.8.w.w.e.uXuXuXuXuXuXuXuXuXuXuXuXuXuX",
"uXuXuXuXuXuXuXuXuXuX5X3Xo y k [.3XuXuXuXuX).U.U.g.w.e.e.w.8.7.7.7.7.w.e.y.uXuXuXuXuXuXuXuXuXuXuXuXuX",
"uXuXuXuXuXuXuXuXuXuX&.T.    -  X=X;X=X*X;X*X%X%X+Xh.0.w.8.8.5.7.7.7.7.8.r.uXuXuXuXuXuXuXuXuXuXuXuXuX",
"uXuXuXuXuXuXuXuXuXP.; o.o.! $.OX#X$X*X*X%XOXOXXX-.g.0.7.5.5.<.5.<.5.<.6.8.r.uXuXuXuXuXuXuXuXuXuXuXuX",
"uXuXuXuXuXuXuXuX0X6X) - o.=.=.*..X@X@X.X.X.X-.@.a 0 6 6 7 7 7 9 8 8 7 7 7 2.uXuXuXuXuXuXuXuXuXuXuXuX",
"uXuXuXuXuXuXuXwXwX8X[.O.p ; ^ @.@.%.=.%.@.^ p 1 : > 5 6 5 5 < 1 uXuXuXuXuX1 uXuXuXuXuXuXuXuXuXuXuXuX",
"uXuXuXuXuXuXuX0XwX8X[.(.g - - uXuXW ; ; * X : : 2 g q ,.<.9 9 5 < uXuX* + @ z uXuXuXuXuXuXuXuXuXuXuX",
"uXuXuXuXuXuXuX0X8X8X6X!.I.Y.g i uXuX* ; Q ! t +.%XT.,.2.5.,.,.9 , uX* + @ z b F uXuXuXuXuXuXuXuXuXuX",
"uXuXuXuXuXuXuX7X9X6X{.Y.7X(.).I.i o * T ~ +.#X%Xj.0 2.5.5.2.7 6 < X O @ z M b S F J uXuXuXuXuXuXuXuX",
"uXuXuXuXuXuXuX[.[.[./.`.2X{.9XO.! +.#.*.$X#X@X%Xj.>.5.8.8.2., , : . @ @ m b S S D D uXuXuXuXuXuXuXuX",
"uXuXuXuXuXuXuXuX_.(.I._.(.0XI.! =..X.X*.|.|.#X-X=X6.<.5.8.uXuXuXuXo $ l n c S S F F R uXuXuXuXuXuXuX",
"uXuXuXuXuXuXuXuXuXuXuXuX).[.j j uXuXQ o.=.#X&X*X-Xj.4.8.8.uXuXuXy s P._ z n S S c R X.:.uXuXuXuXuXuX",
"uXuXuXuXuXuXuXuXuXuXuXuXuXY.L.uXuXuXQ o.|.OX#X$X&XU.0.w.9 uX3 s P.E.E.4X}.C c c R | R... .uXuXuXuXuX",
"uXuXuXuXuXuXuXuXuXuXuXuXuXuXuXuXuXuXuXQ #.*..X@X+Xh.4.q uXuXt 4 E.3X`.[.eXQ.l S } | $.;.E n uXuXuXuX",
"uXuXuXuXuXuXuXuXuXuXuXuXuXuXuXuXuXuX> 1 u ~ $.=.L.w.9 9 9 uX4 : y 7X9X'.7X0XW ' <X X| E c b uXuXuXuX",
"uXuXuXuXuXuXuXuXuXuXuXuXuXuXuXuXuX6 5 6 0 uXuXuXuXuXuX5.<.,.9 q : P.eX'.[.9XQ.^.<XT.V b c S b uXuXuX",
"uXuXuXuXuXuXuXuXuXuXuXuXuXuXuXuX7 6 8 uXuXuXuXuXuXuXuXuXuX8.5.9.3 2 6X[.'.].uX)./ b n b N N b b uXuX",
"uXuXuXuXuXuXuXuXuXuXuXuXuXuXuXuXe , uXuXuXuXuXuXuXuXuXuXuXuXuXuXj.k _.[.uXuXuXuXuXx M v b b b v uXuX",
"uXuXuXuXuXuXuXuXuXuXuXuXuX/._.`.(.E.Y.uXuXuXuXuXuXuXuXuXuXuXuXuXuXuXuXuXuXuXuXuXuXuXuXuXuXuXM uXuXuX",
"uXuXuXuXuXuXuXuXuXuXuXuXuX/.`.[.6X7X[./.uXuXuXuXuXuXuXuXuXuXuXuXuXuXuXuXuXuXuXuXuXuXuXuXuXuXuXuXuXuX",
"uXuXuXuXuXuXuXuXuXuXuXuX}.[.7X].`.(.`.`.uXuXuXuXuXuXuXuXuXuXuXuXuXuXuXuXuXuXuXuXuXuXuXuXuXuXuXuXuXuX",
"uXuXuXuXuXuXuXuXuXuXuXuXI.L./.0X8X].).~.uXuXuXuXuXuXuXuXuXuXuXuXuXuXuXuXuXuXuXuXuXuXuXuXuXuXuXuXuXuX",
"uXuXuXuXuXuXuXY I H H B T.!._ p I.3X[.~.uXuXuXuXuXuXuXuXuXuXuXuXuXuXuXuXuXuXuXuXuXuXuXuXuXuXuXuXuXuX",
"uXuXuXuXY Y U J G H G D ] 6XoXA l Z O.uXuXuXuXuXuXuXuXuXuXuXuXuXuXuXuXuXuXuXuXuXuXuXuXuXuXuXuXuXuXuX",
"uXuXuXB P K K J J J J K U oX<X] L v m uXuXuXuXuXuXuXuXuXuXuXuXuXuXuXuXuXuXuXuXuXuXuXuXuXuXuXuXuXuXuX",
"uXuXuXuX# z m S G G G G J {.4X[ L P M m uXuXuXuXuXuXuXuXuXuXuXuXuXuXuXuXuXuXuXuXuXuXuXuXuXuXuXuXuXuX",
"uXuXuXuXuX% % & z z M D P oX3X{ D H N x uXuXuXuXuXuXuXuXuXuXuXuXuXuXuXuXuXuXuXuXuXuXuXuXuXuXuXuXuXuX",
"uXuXuXuXuXuXuXuX% % % z A {.4X] D N M m uXuXuXuXuXuXuXuXuXuXuXuXuXuXuXuXuXuXuXuXuXuXuXuXuXuXuXuXuXuX",
"uXuXuXuXuXuXuXuXuXuX= % % = W A n S b x uXuXuXuXuXuXuXuXuXuXuXuXuXuXuXuXuXuXuXuXuXuXuXuXuXuXuXuXuXuX",
"uXuXuXuXuXuXuXuXuXuXuXuXuX# $ # & z m uXuXuXuXuXuXuXuXuXuXuXuXuXuXuXuXuXuXuXuXuXuXuXuXuXuXuXuXuXuXuX"
};
