/* XPM */
static char *_1550e538e364df8b06ca598047395a8ftlkDYaAJI4xCHPL[] = {
/* columns rows colors chars-per-pixel */
"50 50 215 2 ",
"   c None",
".  c #04030B",
"X  c #170E17",
"o  c #111038",
"O  c #37282F",
"+  c #391520",
"@  c #531015",
"#  c #64010A",
"$  c #6F181E",
"%  c #71141A",
"&  c #6C1C22",
"*  c #771B21",
"=  c #50332E",
"-  c #78262B",
";  c #5A413B",
":  c #684538",
">  c #040849",
",  c #0B1148",
"<  c #020A55",
"1  c #0B135B",
"2  c #0B1155",
"3  c #342E4B",
"4  c #282957",
"5  c #393857",
"6  c #0A1363",
"7  c #0B156B",
"8  c #0D1773",
"9  c #0E1976",
"0  c #0D197B",
"q  c #081479",
"w  c #131D78",
"e  c #1D2361",
"r  c #2E2E62",
"t  c #463B47",
"y  c #473B57",
"u  c #564247",
"i  c #46455A",
"p  c #6B5757",
"a  c #72504F",
"s  c #4E4375",
"d  c #585977",
"f  c #51456E",
"g  c #6A5B78",
"h  c #786569",
"j  c #786A77",
"k  c #7C7578",
"l  c #676371",
"z  c #890308",
"x  c #970D12",
"c  c #8F0E14",
"v  c #AD080E",
"b  c #BD040C",
"n  c #B5090F",
"m  c #BA090E",
"M  c #B70309",
"N  c #A80B11",
"B  c #B40C11",
"V  c #BB0713",
"C  c #B11418",
"Z  c #BF271B",
"A  c #922F32",
"S  c #A9252A",
"D  c #C4040A",
"F  c #C70509",
"G  c #CB0C11",
"H  c #D20D12",
"J  c #CA151A",
"K  c #D4141A",
"L  c #D71319",
"P  c #D0090E",
"I  c #CE1B20",
"U  c #DD1F24",
"Y  c #D4262B",
"T  c #E7272C",
"R  c #84573B",
"E  c #D4510C",
"W  c #DD7400",
"Q  c #8D524E",
"!  c #946849",
"~  c #8D6B52",
"^  c #AC7A55",
"/  c #B27B54",
"(  c #B25F62",
")  c #876D71",
"_  c #8B757A",
"`  c #987669",
"'  c #AA5859",
"]  c #C84F52",
"[  c #C45E62",
"{  c #C26566",
"}  c #C06E4F",
"|  c #E5B919",
" . c #D6B33E",
".. c #F2CB08",
"X. c #B8845B",
"o. c #9C807E",
"O. c #B0896A",
"+. c #C58E62",
"@. c #C59769",
"#. c #C69E77",
"$. c #D49C6B",
"%. c #C6A777",
"&. c #D9AA79",
"*. c #E2AA74",
"=. c #CCBC55",
"-. c #E4C341",
";. c #000A84",
":. c #0E1B83",
">. c #0F1D8B",
",. c #051486",
"<. c #101E8E",
"1. c #111C83",
"2. c #071897",
"3. c #101F92",
"4. c #182489",
"5. c #112096",
"6. c #12229C",
"7. c #30368D",
"8. c #0A1EA5",
"9. c #0F22A6",
"0. c #1425A4",
"q. c #1526AA",
"w. c #1628AE",
"e. c #182AAF",
"r. c #1729B2",
"t. c #192BB6",
"y. c #192CBC",
"u. c #1428BB",
"i. c #2A38AF",
"p. c #3C469A",
"a. c #3A46B5",
"s. c #3A45A0",
"d. c #4F559D",
"f. c #494C93",
"g. c #706B92",
"h. c #6C72AA",
"j. c #545DAE",
"k. c #1B2EC2",
"l. c #162BC6",
"z. c #1D30C4",
"x. c #1D32CC",
"c. c #1E34D4",
"v. c #1E35DD",
"b. c #1730D9",
"n. c #2136CE",
"m. c #2037DD",
"M. c #243ADB",
"N. c #2237D4",
"B. c #1E37E8",
"V. c #233AE4",
"C. c #233BEC",
"Z. c #2137E0",
"A. c #253EF4",
"S. c #3641C2",
"D. c #2741FB",
"F. c #2742FA",
"G. c #91898A",
"H. c #888696",
"J. c #948A98",
"K. c #9B9698",
"L. c #8F8987",
"P. c #A39E9C",
"I. c #AF8B89",
"U. c #BBAA8F",
"Y. c #9898A4",
"T. c #8F92B3",
"R. c #A59EA2",
"E. c #9FA3A5",
"W. c #A5A2A5",
"Q. c #A9A4A5",
"!. c #A4A4AA",
"~. c #AEABAD",
"^. c #A9A7AB",
"/. c #AFAEB3",
"(. c #B2AEB1",
"). c #B4B2B5",
"_. c #B8B6BA",
"`. c #BCBABD",
"'. c #B7B5B9",
"]. c #B0ACAD",
"[. c #DBB485",
"{. c #CFAE8E",
"}. c #E8BD89",
"|. c #E4B784",
" X c #C1B4B6",
".X c #ECC28D",
"XX c #EDC491",
"oX c #F6CD95",
"OX c #F9D59B",
"+X c #FECF8B",
"@X c #FFE39D",
"#X c #EDD9AC",
"$X c #F9DDA6",
"%X c #EED9B8",
"&X c #FDE9AE",
"*X c #FBE9B1",
"=X c #8C93CA",
"-X c #9AA0CC",
";X c #ADB0C9",
":X c #B8B9C4",
">X c #B1B5CF",
",X c #C1BFC3",
"<X c #BBC6C9",
"1X c #BEC7D1",
"2X c #BDC2E0",
"3X c #C3C2C5",
"4X c #C5C4C9",
"5X c #C9C9CD",
"6X c #CCCDD3",
"7X c #C3C5D7",
"8X c #CBD0D7",
"9X c #D4D6DB",
"0X c #D3D6E6",
"qX c #FAFAFA",
"wX c #E5E7EF",
/* pixels */
"                                                                                                    ",
"                                              A.A.D.A.D.D.                                          ",
"                                      V.V.Z.V.Z.m.N.B.Z.A.A.D.D.                                    ",
"                                    x.x.k.k.y.y.k.x.n.x.c.V.A.D.D.D.                                ",
"                                    w.q.q.q.0.0.q.t.b.N.c.B.V.C.F.F.F.                              ",
"                                      3.>.>.5.8.s ~ p.k.m.c.m.C.C.C.F.F.      A.A.A.n.              ",
"                                      r.w.k.V.u.) &.#.g u.Z.m.V.C.C.C.A.D.D.m.m.b.a.f               ",
"                                    V.m.c.c.x.9._ {.{.|.j t.V.M.M.M.V.V.C.A.V.l.i.` y               ",
"                                m.x.z.y.t.u.y.9._ XXXX{.h 1.z.M.N.M.M.M.m.V.A.l._ ~                 ",
"                            M.c.k.u.r.w.r.r.t.8.g #.g 4.2.r.z.n.n.N.n.n.c.m.Z.Z.o.p                 ",
"                          c.k.r.r.w.q.q.w.w.r.q.<.4.2.9.e.r.t.y.k.z.k.k.k.x.N.B.S.r                 ",
"                        c.y.r.q.0.0.0.0.0.q.w.0.6.6.9.0.6.0.r.t.r.r.y.y.y.k.x.x.Z.m.                ",
"                        y.q.0.0.6.6.6.0.0.q.q.q.0.0.0.0.w.w.y.z.z.r.q.r.r.u.y.c.c.n.                ",
"                      y.q.0.0.6.6.6.6.6.0.q.q.0.q.0.6.6.5.5.<.5.0.k.r.q.w.r.t.u.a.i.                ",
"                    y.q.0.6.6.6.6.6.6.6.q.q.q.q.0.6.5.>.        3.5.y.q.q.q.q.r.7Xd.-X7X0XwX        ",
"                    r.0.6.6.6.3.5.3.6.q.w.q.0.q.0.3.>.            5.6.t.0.0.8.a.qXd.=X>X1X9X0X      ",
"                    6.3.3.<.>.:.:.0 7 <.r.q.0.q.0.>.>.              5.e.0.0.2.=XqXs.=X;X;XQ.^.6X    ",
"                                    1 :.r.w.0.0.6.3.>.              5.6.6.5.6.wXwX7.Y.;X7X/.Y.~.    ",
"                                >.>.3.6.q.q.0.0.0.>.>.            X 9 5.5.2.s.qX7Xj.H.Y.6X'.^.      ",
"                              0.6.6.0.6.0.q.q.0.0.6.4.            X f.>.4.,.d qX-Xh.L.g.Y.3X        ",
"                            w.0.0.6.6.5.6.0.q.0.9.8.2.;.          t /.w 4.r R.qXh.H.    H.^.        ",
"                          r.0.0.6.5.5.3.6.0.0.q.8.d.J.J.Q.        _.:Xl i O 4X,X                    ",
"                          w.6.5.3.3.5.3.5.6.6.8.g.+XOXOX$X&X#X#X%X%X{.; . . U.#.                    ",
"                        w.6.<.<.>.3.3.3.3.3.6.9.f.&.|.}..XOXOX$XOXoX.X%.~ X.X.; H.                  ",
"                        >.8 8 8 9 9 0 9 8 8 7 8 q s +.*.*.}..XXX.X}.&.&.*./ : k :X5X                ",
"                        ,           , 2 6 6 7 6 > > 4 a / +.$.*.$.+.+.^ : a L._.6X9X6X              ",
"                      x # @ =     2 6 0 0 :.:.w g 3 > > , = : : !     ; = k ~.,X5X8X6X              ",
"                    G n x # @ =   1 0 :.:.3.<.0 U.+X` t ~ ! : =     p h P.K.P.<X5X5X6X              ",
"                K G D m m z # + o 2 7 8 >.6.5.<.q j OXoX@.^ : : O p K.Q.].3XR.'.4X5X4X              ",
"                G F F D m M # @ X , 2 6 4.6.5.<.,.g.OX.XoXOX&.O.^ ~ o.5X'.<X).^. X:X`.              ",
"              E F F D D D n z % O         6.6.<.4.#X&XOX[.&.|..X.X&.~ K.6X].(.K.~.].                ",
"            -...E V D D M x _ H.d i       5.0.2.g.&X$X$XoX&.X.!     j k `.Q.                        ",
"          |  .U...E b M A ].,X!.Y.H.d 4   9 0.2.J.&XoXoX}.[.X.!       J.R.                          ",
"        b W =.%.| } D z R.9X:X'.4XY.5 5     w 2.g.oXXX}.[.@.!                                       ",
"        m D W | U.>X' Q 6X,X'.,X5X5 o r   0 9 :.9.I.&.$.^ u , 1                                     ",
"      V D m m Z I.:X!.W.4X,X_.9XH.< q :.:.>.<.            q 7 6 7                                   ",
"    m m m m m b m ( Q.  _._.,X,X3 4 7.2.6.                    9 7 7                                 ",
"    B V m m B B n           _.(.l k                             6 e                                 ",
"      B                                                       P.K./.).(.Q.                          ",
"                                                            ^.`.4X3X_.).^.                          ",
"                                                            ).'.].(._.,X`.~.                        ",
"                                                            W.Q.`.6X5X~.G.K.                        ",
"                                                            Q.`.3XK.Q ) E.I.C J J K Y               ",
"                                                              G.A z S ).:X] F H L L L U T T         ",
"                                                              N v G ] <X XY L K K K L L U I C       ",
"                                                            v B Y F [ <X XI H L H P D N c %         ",
"                                                            N V G F { <X XI F m N c * & &           ",
"                                                            B n n F [ 1X).A c & & &                 ",
"                                                            B m D M S Q - & & &                     ",
"                                                              N c * $ % $                           "
};
