/* XPM */
static char *result[] = {
/* columns rows colors chars-per-pixel */
"50 50 79 1 ",
"  c #0C3600",
". c #0D3900",
"X c #164600",
"o c #164A00",
"O c #194E00",
"+ c #1C5400",
"@ c #1E5B00",
"# c #215D01",
"$ c #1F6100",
"% c #246401",
"& c #286604",
"* c #266B00",
"= c #2A6C02",
"- c #267200",
"; c #2C7402",
": c #2D7A01",
"> c #307606",
", c #327C04",
"< c #33770A",
"1 c #357B09",
"2 c #3A7F0D",
"3 c #2E8100",
"4 c #348304",
"5 c #398606",
"6 c #368B02",
"7 c #3A8C05",
"8 c #378308",
"9 c #3A840A",
"0 c #3C8C0A",
"q c #369101",
"w c #3C9305",
"e c #3E9A04",
"r c #3E9309",
"t c #3F9B08",
"y c #408E0D",
"u c #419607",
"i c #419C06",
"p c #42940B",
"a c #449B0A",
"s c #489E0E",
"d c #438E12",
"f c #459411",
"g c #489614",
"h c #4A9D13",
"j c #44A305",
"k c #48A707",
"l c #47A806",
"z c #48A907",
"x c #46A309",
"c c #49A40C",
"v c #47A80A",
"b c #4CAB0C",
"n c #51AE0E",
"m c #4FB10D",
"M c #52B30D",
"N c #55BB0E",
"B c #58BC0D",
"V c #4CA311",
"C c #4EA911",
"Z c #50A712",
"A c #52AD13",
"S c #57AE1A",
"D c #58AE1C",
"F c #54B412",
"G c #58B615",
"H c #56B812",
"J c #5ABC14",
"K c #59B41A",
"L c #5CBC1A",
"P c #5EC215",
"I c #5EC219",
"U c #61C815",
"Y c #61C31B",
"T c #64C91A",
"R c #69CF1D",
"E c #67D01B",
"W c #6BD41E",
"Q c #6DD422",
"! c None",
/* pixels */
"bbMuk5=,uu5==&O@9Du775,57ca7ji,>=,*+;4&5unr,::b0%5",
"ucRpsr%>y0y=7a5,#=77>q,*>1A7:&>a47eqk4#;;FU7%+*84!",
"!jcG9yK=;:i0pk5=q8;4,u0,;$7&<71cj=crp0eit,iee%=q;q",
"!wrcMshIa;>;%r5;u%#x78=cu7r%7e,>5:escZcc1,ein:+***",
"IM47y,rc;#ooiu==%>hI7,:IbuVr#+1u;%75%>1##;81Mbiru!",
"!a4,#,ka6;,:7i=,4#&pi5#5ui0,#yu4q=;,;uq;;,r%;en1#!",
"!u,=sL00r;:,4!0p>7*#4n>u8k,oO+,cTq=5wur7,,j!80;w5!",
"!u>rNMacs,7#14,>:7,uAMjip,%,upanGa,eb%,7hf=>=1;*!i",
"u4p0ww:cae0@9s#o!V:!f044uq:,4i043@@,i45&36::%7=%ib",
"u4r;;88rcr,i6r;ab,%7*X6xjNu*;q66ew47=eC7i;-:*647bT",
"!%:kr:jFaaici4&=pM0p66bw7cBneiu66e%7i,x::&@*%*$$,F",
"!rsCAybw1cx0p@O%:,9PNB:8a*>u,#+;rr@.;40her4elw6;%!",
"!::*aCJx<puPF,,7e;;,9LVC6a,7q,@@%,!t6:08;9V>6x7i7!",
"w66qcWNm8<0=!647ncl3*:7%*p1rwsbwrx:Zb6ij6-$:4b;*,!",
"!e:7!!eq7>f:wee47;wt--:%,r4:xi,,:x;;eew4ji-64i6@*r",
"!!66cFx7c#;r78:*xq*74;7nUcu0blraj0:$:lj*:e48,xx,;!",
"UxuYYLf99a6>#ycps74&spcKYYu4s56puw7#1bp;+#48FLpr0x",
"!5aAcFKd*n4,0YKpV0*7i1y>=s,,::77&,au=,7iw*4,up77:u",
"kcMuj5=1ru8=>&++9Dr77,:55sawua41=:%+=,=4uc7,::b0%6",
"icYas7%>0rd=7a5,@;76:71*,1S5,&>i66tek5#;:NJ7%+=44t",
"!xxF59F=::a7uc5=w,;4,ar4:$5&171kj=sup7rir,eee%*q46",
"!ercMahYa=,>#e4:t%#x78,kw7r&7e,>7:uacZjC<,etk,+*;;",
"Ib47p,rV;#OOui==%;hL744FxrsuO#1e*%r8*>,&#:61bkir7b",
"Qc4,#:ks4:,:5t=,6%&fi7:8ux7<#pu4q=;:;tq;;,7=:rb1%!",
"!i:=sJ09t,:,770p>7*%4b:y7k,+%+,kU7;7rur7,,tr805u4!",
"!p,yBMacx:0+,7,<;u,7nnjip,@4traALa,eb%47hf=;=,:;!i",
"u4p7qw1sar0#9c#X!s>!f744t6:4,s783@+,u44%36::&7;#ib",
"u4r;:85rcu,u77;in,%w=o6xjNr*:666tw40;wm0i:;;*637bT",
"!%:vr:jFaaacu4%=pbqp46be7kGAeiu76e%6a:j;,&$*$-%$,F",
"!rxCAybw,ck0u#O%4,2UNJ,4s=:i:#+;er@ >80hw78elw6-%!",
"!:;%aAPk<yiGL,,7e::,1Kcc,r:5q4@@&,!x6:r010a;6j0u7!",
"t64aAYpa0,55%:>,ski&99rVcLhxsrt7ax49iw7-@@-4aF487!",
"RaaRLLSf>F6>;JYVs;&:i0s0gJ1:7;47,7a,,u76=#67bZ5,:c",
"!6aprip1;a,:yg<&cD8ji>1:=p7w7u75&=,=*:4ab7,468br;w",
"snYib7&,cay=*;#&#9781w4,5pZ7w,>1,6,*74%;;Mn,$%58=6",
"uaFh501#;;p>bMu8;477;78=;%s,=&1bq,bka7=67usr4@*76j",
"!iaLaaYVr>u7&7,=t%+wru,6,;4#7k,5k:r7iskbp:6wi*#:*>",
"jj45M79L5%%@,i4>,:5F4;;LxiC,:%4>%&aayp01%4wrMr;:64",
"QC6p*:ku,%#%7r%:%&0Lj44xj7pi+19u4%,;%:4$&:4*rjN0,6",
"!i:*1appw4777x,7r:#&4i*87m7+O>77b:=04jr6;:j4*75,%w",
"!u:0JTa5t*=&=:70%7;:pMii50%*,=rHRj87i476f94r09;qim",
"ur1rjw0HxrcOya%#ic5CFci,r3;8ikrrw8#wj%:,ra&*#,*+4j",
"u6x,4r,7i6,:,0%;b5#F9*,ptj74;:46q:;;,eV8q333:i45nP",
"7*:4:;uAAcrmju5cbt44**kjiBbiwji4wi:x74b70=%%+*-;yJ",
"!>rNb0xx,pi07*XX4v0Allu80,cM7,,4we+%7,r93;*:63-%*F",
"!008VpLq1bbCA==5q%=CCT7ii4&:,% @:4*!-60hrsarxjt6:!",
"63:-aUJM214x!4,4xuw-&dcr;c5aerr;>u6Hj:74-=8-,v;06!",
"jw4uP!!t48a#*etrs7ze--:O*0;4tcaw7x*5bevjl6@46k:@;!",
"!!43vMjwa&9iar6*i3*t;;:7bir,bi:86i8%6j4%3e47:ww%%r",
"!qqt!!i45@%*%4,:t;%;;4jHPc8:cjeau4;#%xHw6e6:7FAprx"
};
