/* XPM */
static char *result[] = {
/* columns rows colors chars-per-pixel */
"50 50 73 1 ",
"  c #1F0602",
". c #200603",
"X c #230A07",
"o c #2A0B06",
"O c #240B08",
"+ c #2C0D09",
"@ c #320B05",
"# c #3C0D06",
"$ c #340F09",
"% c #390F08",
"& c #22110F",
"* c #35110A",
"= c #3C130C",
"- c #221311",
"; c #2D1613",
": c #271918",
"> c #291C1B",
", c #331713",
"< c #341914",
"1 c #301A18",
"2 c #33211F",
"3 c #38211F",
"4 c #332321",
"5 c #382220",
"6 c #41140C",
"7 c #4B140A",
"8 c #4C180F",
"9 c #531307",
"0 c #53150A",
"q c #5E1A0F",
"w c #451710",
"e c #471810",
"r c #4D1A11",
"t c #501B12",
"y c #641C0E",
"u c #6C1D0F",
"i c #751E0D",
"p c #781E0C",
"a c #651D10",
"s c #6D1F10",
"d c #7E200D",
"f c #6F2011",
"g c #752111",
"h c #7D2211",
"j c #83210E",
"k c #832412",
"l c #892613",
"z c #8E2813",
"x c #912712",
"c c #932814",
"v c #9D2C15",
"b c #9C2E18",
"n c #A42E16",
"m c #AA2F17",
"M c #AD3017",
"N c #AF3118",
"B c #B43319",
"V c #BD361B",
"C c #C2371B",
"Z c #C6381D",
"A c #CD3A1D",
"S c #D43D1F",
"D c #D93E1F",
"F c #E23F1F",
"G c #D63E20",
"H c #DC3F20",
"J c #E2401F",
"K c #DE4020",
"L c #E54221",
"P c #EB4423",
"I c #F24623",
"U c #F74824",
"Y c #FA4825",
/* pixels */
":&>5,<<<<<<<<<<<<<<<<<4--2<<<<<<<<<<<<<<<<<<3>&:3<",
"o8 lPFJJJLJJJJJJJJJJJK#%*@DJJJJJJJJJJJJJJJKIc.8.jI",
"*rOcULLLLLLLLLLLLLLLLL6=6=LLLLPLLLLLLLLLLLJUb&rOlU",
"$rOlLDHKHHKHHHKHKHHKKG6==*SKKDKKHHHHKKKHKHHJcOr lL",
"*rOkKASASSASSSSSSSSASA6*6*ASSSASSASSSSASSSAHc&rXdK",
"*rOhSCCZZZCZCCCZCCCCZV===*VCZCZCZZCCCCZZCCCAlorXgS",
"*eogCBBBBBBBBBBBBBBBVN=*6*BVBBBBBBBBBBBBBBBVko8XfC",
"*eosBnnMmmmnmmnnmmmmmn==6$nMnmnMnmMmnMMMmmmMg&8ouB",
"*r+yvcccvccccccvcccccc%==*cvcccccccccccccccvs+e+qn",
"$e+yxlllllllllllzzzlzl%$=$llllllllxllxlllllxa+rO0c",
"$r+%077797977977977777+w6o777799777797979970#+r*@9",
"err$++$++++o++++++$+++=rt6+++++++o++++++++++*ere*o",
"*+$***=**6rrtw==%=$===***=======ette====*====****=",
"aaaaaaaaa%*r*+86777e77w7e7687776owwo6e7776e7788787",
"IPIPIPPPYcOrOzULLLLPLLLLLPLLLLLL===#LLLLLLLLLLLJLL",
"LLLLLLLKIcOr+zILLLLLLLLLLLLLLLLK6=w6LLLLLLLLLLJJLL",
"DDDDDHHSJlXtOzJGGGGDDDDDDDDDDDFS=6=6SDSDDDDDDDDDDD",
"AAAAAAAAHkXt+lHAGAAAAASAAAAAAASZ666=ASSASAAAAAASAA",
"CCCCCCCVShOt+hACCCCCCCCCCCCCCCCV6==6VCCCCCCCCCCCCC",
"BBBBBBBBVfOt+gVNBBBBBBBBBBBBBBBN=66=MBBBBBBBBBBBBB",
"nnnnnnnvMsOt+sMnnnnnnnnnnnnnnnnn=66=vnnnnnnnnnnnnn",
"xxxxccczvyO8$accxxcxxxxxlcccxxxx=6==zcccxxcxcxccxx",
"jjkkjjjjlq+8+qlkjjkjkjjjjkjjjkjj$==%kkkkjjjjdjjjkj",
"666666=66+$t$@66666666666666666#oeeo#66=6666666666",
"%%*==*====tet<========**%*======erte*===*====***#=",
"rrt=*,***,******,*****88r8********;*********=rrr=*",
"$r$%ayqqqqyyqyqqqqqqqqoeeoqyqqqqyqqqqyqqqqqa=+r*#a",
"$rXzYJIJPPPJJIPPPPPPPL6==*LLPPPPPPPPPPPPPPPYbOr zY",
"*rXzILLLLLLLJJJJJJLKJK6*=*KLKKKKJLKJKLLLLKKPbOrOlI",
"*tXzJDDGDDGGGHGGHGGHHS=*=+KKKKKKHHHGDHSHKGGLcOrOkL",
"$rXkDAAAAAAAAASAASAAAA===*AAAAAAAAAAAAAAAAAHcOeXhH",
"@r&gAVCCCCCCCZCCVVCCCV==6*VCCCVVCCCVCCCCCCVZk+rOgA",
"*rXfVMNNBBNNNNNBNBBBBN=*6$BBNBBBBBBNBBBBBNNVh+eouV",
"*rXsMnnnnnnnnnnnnnvnnv*=6$vnnnvnvnnnvnvnnnvMgOeOum",
"*r+ycccczccccccccccccz*==%cxzccccczccccczczvf+r+yc",
"@r+0lhhhhhhhhhhhhhdhhh#=6+hhdhhddhhhjhhhhhdky+eo0k",
"*r*+********%*%$****%$OweO*****************=O*r*o$",
"ttt=6===6==*==6=w==6w6rttr6==6w==*==66===w==6tttww",
"XXXXXXXXX*rrr*XXOOOOOX..X OOOOOX=rr=OOXOOo &O X .O",
"llllzzllc0OtX0zlllkllklzlllllllk$6w+klllllllllllll",
"YUUUUUUUYbXrXbYYYYYYYYYYYYYYYYYI6w=6IYYYUUYYYYYYYY",
"HKKKKHKDPzXrOzPKHDHHHDHHHHHHHKKG6=66GKHHKKHHHHHHHH",
"SGSDDDSSJl&t&zJGSDDSDDDGDSGSGSDS#w=6SSSDGKGGDGSDGG",
"AZAZAZAZDhXt+kGZAAZAAZAZAAAAAZZZ==66ZAAZZZZAZAAZAZ",
"VVVVVVVVAhXt+hAVVVVVVVVVVVVVVVVV6===VVVVVVVVCVVVVV",
"BNNBNNBNBfXt+gBMMBBMNBNNNNNNMBBm#ww=MMNNNMBNNNNNNN",
"nvvvnvbvmsOt+fnvvvvvvvvvvnvnvvvv%==%vvvvvvvvvnnvvn",
"zxzzzzzzcy+8$aczzzzzzzczlxllzzxz=ww%zzczzzzclxllzz",
"ippppppid9O7o9pppppppppppppppppi@%w@ipippppppppppp",
";;;;;;;;;5:&>3;;;;;;;;;;;;;;;;;14--4;;;;;;;;;;;;;;"
};
